<?xml version="1.0" encoding="UTF-8"?>
<svg xmlns="http://www.w3.org/2000/svg" xmlns:xlink="http://www.w3.org/1999/xlink" version="1.2" >
<font id="Centrale Sans Bold Condensed">
<font-face  font-family="Centrale Sans" units-per-em="1000" ascent="1000" descent="-360" font-style="normal" font-weight="700" font-stretch="condensed" cap-height="700" x-height="520" underline-position="-225" underline-thickness="50" />
<missing-glyph  horiz-adv-x="549" d="M469 732 L469 -122 L80 -122 L80 732 L469 732 Z M176 658 L275 393 L373 658 L176 658 Z M151 60 L242 305 L151 549 L151 60 Z M398 549 L307 305 L398 60 L398 549 Z M373 -48 L275 217 L176 -48 L373 -48 Z " />
<glyph glyph-name="nonmarkingreturn" unicode="&#xd;" horiz-adv-x="270" d="" />
<glyph glyph-name="space" unicode="&#x20;" horiz-adv-x="177" d="" />
<glyph glyph-name="A" unicode="A" horiz-adv-x="600" d="M408 163 L186 163 L143 0 L9 0 L208 704 L392 704 L591 0 L449 0 L408 163 Z M381 266 L299 589 L214 266 L381 266 Z " />
<glyph glyph-name="Aacute" unicode="&#xc1;" horiz-adv-x="600" d="M408 163 L186 163 L143 0 L9 0 L208 704 L392 704 L591 0 L449 0 L408 163 Z M381 266 L299 589 L214 266 L381 266 Z M347 769 L254 769 L321 899 L438 899 L347 769 Z " />
<glyph glyph-name="Abreve" unicode="&#x102;" horiz-adv-x="600" d="M408 163 L186 163 L143 0 L9 0 L208 704 L392 704 L591 0 L449 0 L408 163 Z M381 266 L299 589 L214 266 L381 266 Z M302 770 Q237 770 202 799 Q167 828 162 898 L236 902 Q239 867 258 851.5 Q277 836 302 836 Q326 836 345 851.5 Q364 867 367 902 L441 898 Q436 828 401 799 Q366 770 302 770 Z " />
<glyph glyph-name="Acircumflex" unicode="&#xc2;" horiz-adv-x="600" d="M408 163 L186 163 L143 0 L9 0 L208 704 L392 704 L591 0 L449 0 L408 163 Z M381 266 L299 589 L214 266 L381 266 Z M362 765 L300 852 L242 765 L132 765 L237 896 L367 896 L471 765 L362 765 Z " />
<glyph glyph-name="Adieresis" unicode="&#xc4;" horiz-adv-x="600" d="M408 163 L186 163 L143 0 L9 0 L208 704 L392 704 L591 0 L449 0 L408 163 Z M381 266 L299 589 L214 266 L381 266 Z M202 907 Q233 907 248.5 891.5 Q264 876 264 848 Q264 788 201 788 Q172 788 156 803.5 Q140 819 140 848 Q140 876 156 891.5 Q172 907 202 907 Z M398 907 Q461 907 461 848 Q461 788 398 788 Q338 788 338 848 Q338 876 353 891.5 Q368 907 398 907 Z " />
<glyph glyph-name="Agrave" unicode="&#xc0;" horiz-adv-x="600" d="M408 163 L186 163 L143 0 L9 0 L208 704 L392 704 L591 0 L449 0 L408 163 Z M381 266 L299 589 L214 266 L381 266 Z M360 769 L268 769 L180 899 L295 899 L360 769 Z " />
<glyph glyph-name="Amacron" unicode="&#x100;" horiz-adv-x="600" d="M408 163 L186 163 L143 0 L9 0 L208 704 L392 704 L591 0 L449 0 L408 163 Z M381 266 L299 589 L214 266 L381 266 Z M428 813 L174 813 L174 889 L428 889 L428 813 Z " />
<glyph glyph-name="Aogonek" unicode="&#x104;" horiz-adv-x="601" d="M408 163 L186 163 L143 0 L9 0 L208 704 L392 704 L591 0 L449 0 L408 163 Z M381 266 L299 589 L214 266 L381 266 Z M546 -180 Q497 -180 469 -157.5 Q441 -135 441 -91 Q441 -33 481 -6.5 Q521 20 577 27 L591 0 Q550 -7 530 -22 Q510 -37 510 -62 Q510 -81 523 -90.5 Q536 -100 557 -100 Q584 -100 617 -89 L618 -169 Q583 -180 546 -180 Z " />
<glyph glyph-name="Aring" unicode="&#xc5;" horiz-adv-x="600" d="M408 163 L186 163 L143 0 L9 0 L208 704 L392 704 L591 0 L449 0 L408 163 Z M381 266 L299 589 L214 266 L381 266 Z M301 772 Q256 772 226.5 801 Q197 830 197 884 Q197 938 226.5 966.5 Q256 995 301 995 Q346 995 375.5 966.5 Q405 938 405 884 Q405 830 375.5 801 Q346 772 301 772 Z M301 825 Q317 825 329.5 839.5 Q342 854 342 884 Q342 914 329.5 928 Q317 942 301 942 Q285 942 273 928 Q261 914 261 884 Q261 854 273 839.5 Q285 825 301 825 Z " />
<glyph glyph-name="Atilde" unicode="&#xc3;" horiz-adv-x="600" d="M408 163 L186 163 L143 0 L9 0 L208 704 L392 704 L591 0 L449 0 L408 163 Z M381 266 L299 589 L214 266 L381 266 Z M357 785 Q339 785 325.5 791 Q312 797 300.5 804 Q289 811 286 813 Q271 823 259.5 828.5 Q248 834 237 834 Q207 834 195 790 L149 812 Q179 917 251 917 Q266 917 278.5 911.5 Q291 906 301.5 899.5 Q312 893 316 890 Q347 868 368 868 Q387 868 396 880 Q405 892 411 912 L456 891 Q429 785 357 785 Z " />
<glyph glyph-name="AE" unicode="&#xc6;" horiz-adv-x="821" d="M786 106 L786 0 L363 0 L363 177 L199 177 L138 0 L0 0 L261 700 L781 700 L781 594 L503 594 L503 395 L744 395 L744 289 L503 289 L503 106 L786 106 Z M363 594 L342 594 L236 285 L363 285 L363 594 Z " />
<glyph glyph-name="AEacute" unicode="&#x1fc;" horiz-adv-x="821" d="M786 106 L786 0 L363 0 L363 177 L199 177 L138 0 L0 0 L261 700 L781 700 L781 594 L503 594 L503 395 L744 395 L744 289 L503 289 L503 106 L786 106 Z M363 594 L342 594 L236 285 L363 285 L363 594 Z M541 769 L448 769 L515 899 L632 899 L541 769 Z " />
<glyph glyph-name="B" unicode="B" horiz-adv-x="591" d="M416 359 Q444 356 475.5 337 Q507 318 530 280.5 Q553 243 553 188 Q553 100 495 50 Q437 0 344 0 L70 0 L70 700 L327 700 Q425 700 478.5 653.5 Q532 607 532 524 Q532 455 498 415.5 Q464 376 416 359 Z M200 404 L311 404 Q353 404 378 430.5 Q403 457 403 500 Q403 544 377 571 Q351 598 307 598 L200 598 L200 404 Z M318 101 Q366 101 393.5 130 Q421 159 421 204 Q421 248 394.5 278 Q368 308 322 308 L200 308 L200 101 L318 101 Z " />
<glyph glyph-name="C" unicode="C" horiz-adv-x="562" d="M365 -10 Q273 -10 199.5 29.5 Q126 69 83.5 150 Q41 231 41 350 Q41 470 83.5 551.5 Q126 633 199.5 672.5 Q273 712 365 712 Q459 712 532 688 L522 570 Q447 600 387 600 Q292 600 239 534 Q186 468 186 351 Q186 234 239 167.5 Q292 101 387 101 Q439 101 523 134 L532 14 Q459 -10 365 -10 Z " />
<glyph glyph-name="Cacute" unicode="&#x106;" horiz-adv-x="560" d="M365 -10 Q273 -10 199.5 29.5 Q126 69 83.5 150 Q41 231 41 350 Q41 470 83.5 551.5 Q126 633 199.5 672.5 Q273 712 365 712 Q459 712 532 688 L522 570 Q447 600 387 600 Q292 600 239 534 Q186 468 186 351 Q186 234 239 167.5 Q292 101 387 101 Q439 101 523 134 L532 14 Q459 -10 365 -10 Z M375 769 L282 769 L349 899 L466 899 L375 769 Z " />
<glyph glyph-name="Ccaron" unicode="&#x10c;" horiz-adv-x="560" d="M365 -10 Q273 -10 199.5 29.5 Q126 69 83.5 150 Q41 231 41 350 Q41 470 83.5 551.5 Q126 633 199.5 672.5 Q273 712 365 712 Q459 712 532 688 L522 570 Q447 600 387 600 Q292 600 239 534 Q186 468 186 351 Q186 234 239 167.5 Q292 101 387 101 Q439 101 523 134 L532 14 Q459 -10 365 -10 Z M498 896 L394 765 L264 765 L159 896 L265 896 L328 805 L393 896 L498 896 Z " />
<glyph glyph-name="Ccedilla" unicode="&#xc7;" horiz-adv-x="560" d="M365 -10 Q273 -10 199.5 29.5 Q126 69 83.5 150 Q41 231 41 350 Q41 470 83.5 551.5 Q126 633 199.5 672.5 Q273 712 365 712 Q459 712 532 688 L522 570 Q447 600 387 600 Q292 600 239 534 Q186 468 186 351 Q186 234 239 167.5 Q292 101 387 101 Q439 101 523 134 L532 14 Q459 -10 365 -10 Z M344 -49 Q382 -52 412.5 -72 Q443 -92 443 -137 Q443 -185 407 -207 Q371 -229 316 -229 Q255 -229 224 -217 L229 -158 Q268 -173 303 -173 Q328 -173 345 -163 Q362 -153 362 -130 Q362 -107 340 -94.5 Q318 -82 271 -81 L302 22 L365 22 L344 -49 Z " />
<glyph glyph-name="Ccircumflex" unicode="&#x108;" horiz-adv-x="560" d="M365 -10 Q273 -10 199.5 29.5 Q126 69 83.5 150 Q41 231 41 350 Q41 470 83.5 551.5 Q126 633 199.5 672.5 Q273 712 365 712 Q459 712 532 688 L522 570 Q447 600 387 600 Q292 600 239 534 Q186 468 186 351 Q186 234 239 167.5 Q292 101 387 101 Q439 101 523 134 L532 14 Q459 -10 365 -10 Z M390 765 L328 852 L270 765 L160 765 L265 896 L395 896 L499 765 L390 765 Z " />
<glyph glyph-name="Cdotaccent" unicode="&#x10a;" horiz-adv-x="560" d="M365 -10 Q273 -10 199.5 29.5 Q126 69 83.5 150 Q41 231 41 350 Q41 470 83.5 551.5 Q126 633 199.5 672.5 Q273 712 365 712 Q459 712 532 688 L522 570 Q447 600 387 600 Q292 600 239 534 Q186 468 186 351 Q186 234 239 167.5 Q292 101 387 101 Q439 101 523 134 L532 14 Q459 -10 365 -10 Z M328 787 Q299 787 283 801.5 Q267 816 267 844 Q267 872 283 886.5 Q299 901 328 901 Q390 901 390 844 Q390 787 328 787 Z " />
<glyph glyph-name="D" unicode="D" horiz-adv-x="633" d="M70 700 L283 700 Q422 700 497 632 Q544 588 568.5 516.5 Q593 445 593 352 Q593 261 568.5 189 Q544 117 497 72 Q459 36 402 18 Q345 0 276 0 L70 0 L70 700 Z M260 106 Q305 106 338.5 116.5 Q372 127 394 152 Q421 181 435 233.5 Q449 286 449 353 Q449 425 433.5 477 Q418 529 388 557 Q366 577 334.5 585.5 Q303 594 260 594 L206 594 L206 106 L260 106 Z " />
<glyph glyph-name="Eth" unicode="&#xd0;" horiz-adv-x="645" d="M509 632 Q556 588 580.5 516.5 Q605 445 605 352 Q605 261 580.5 189 Q556 117 509 72 Q471 36 414 18 Q357 0 288 0 L82 0 L82 322 L10 322 L10 383 L82 383 L82 700 L295 700 Q434 700 509 632 Z M406 152 Q433 181 447 233.5 Q461 286 461 353 Q461 425 445.5 477 Q430 529 400 557 Q378 577 346.5 585.5 Q315 594 272 594 L218 594 L218 383 L311 383 L311 322 L218 322 L218 106 L272 106 Q317 106 350.5 116.5 Q384 127 406 152 Z " />
<glyph glyph-name="Dcaron" unicode="&#x10e;" horiz-adv-x="633" d="M70 700 L283 700 Q422 700 497 632 Q544 588 568.5 516.5 Q593 445 593 352 Q593 261 568.5 189 Q544 117 497 72 Q459 36 402 18 Q345 0 276 0 L70 0 L70 700 Z M260 106 Q305 106 338.5 116.5 Q372 127 394 152 Q421 181 435 233.5 Q449 286 449 353 Q449 425 433.5 477 Q418 529 388 557 Q366 577 334.5 585.5 Q303 594 260 594 L206 594 L206 106 L260 106 Z M474 896 L370 765 L240 765 L135 896 L241 896 L304 805 L369 896 L474 896 Z " />
<glyph glyph-name="Dcroat" unicode="&#x110;" horiz-adv-x="645" d="M509 632 Q556 588 580.5 516.5 Q605 445 605 352 Q605 261 580.5 189 Q556 117 509 72 Q471 36 414 18 Q357 0 288 0 L82 0 L82 322 L10 322 L10 383 L82 383 L82 700 L295 700 Q434 700 509 632 Z M406 152 Q433 181 447 233.5 Q461 286 461 353 Q461 425 445.5 477 Q430 529 400 557 Q378 577 346.5 585.5 Q315 594 272 594 L218 594 L218 383 L311 383 L311 322 L218 322 L218 106 L272 106 Q317 106 350.5 116.5 Q384 127 406 152 Z " />
<glyph glyph-name="E" unicode="E" horiz-adv-x="528" d="M487 594 L206 594 L206 395 L450 395 L450 290 L206 290 L206 106 L492 106 L492 0 L70 0 L70 700 L487 700 L487 594 Z " />
<glyph glyph-name="Eacute" unicode="&#xc9;" horiz-adv-x="528" d="M487 594 L206 594 L206 395 L450 395 L450 290 L206 290 L206 106 L492 106 L492 0 L70 0 L70 700 L487 700 L487 594 Z M319 769 L226 769 L293 899 L410 899 L319 769 Z " />
<glyph glyph-name="Ebreve" unicode="&#x114;" horiz-adv-x="528" d="M487 594 L206 594 L206 395 L450 395 L450 290 L206 290 L206 106 L492 106 L492 0 L70 0 L70 700 L487 700 L487 594 Z M273 770 Q208 770 173 799 Q138 828 133 898 L207 902 Q210 867 229 851.5 Q248 836 273 836 Q297 836 316 851.5 Q335 867 338 902 L412 898 Q407 828 372 799 Q337 770 273 770 Z " />
<glyph glyph-name="Ecaron" unicode="&#x11a;" horiz-adv-x="528" d="M487 594 L206 594 L206 395 L450 395 L450 290 L206 290 L206 106 L492 106 L492 0 L70 0 L70 700 L487 700 L487 594 Z M442 896 L338 765 L208 765 L103 896 L209 896 L272 805 L337 896 L442 896 Z " />
<glyph glyph-name="Ecircumflex" unicode="&#xca;" horiz-adv-x="528" d="M487 594 L206 594 L206 395 L450 395 L450 290 L206 290 L206 106 L492 106 L492 0 L70 0 L70 700 L487 700 L487 594 Z M334 765 L272 852 L214 765 L104 765 L209 896 L339 896 L443 765 L334 765 Z " />
<glyph glyph-name="Edieresis" unicode="&#xcb;" horiz-adv-x="528" d="M487 594 L206 594 L206 395 L450 395 L450 290 L206 290 L206 106 L492 106 L492 0 L70 0 L70 700 L487 700 L487 594 Z M176 907 Q207 907 222.5 891.5 Q238 876 238 848 Q238 788 175 788 Q146 788 130 803.5 Q114 819 114 848 Q114 876 130 891.5 Q146 907 176 907 Z M372 907 Q435 907 435 848 Q435 788 372 788 Q312 788 312 848 Q312 876 327 891.5 Q342 907 372 907 Z " />
<glyph glyph-name="Edotaccent" unicode="&#x116;" horiz-adv-x="528" d="M487 594 L206 594 L206 395 L450 395 L450 290 L206 290 L206 106 L492 106 L492 0 L70 0 L70 700 L487 700 L487 594 Z M274 787 Q245 787 229 801.5 Q213 816 213 844 Q213 872 229 886.5 Q245 901 274 901 Q336 901 336 844 Q336 787 274 787 Z " />
<glyph glyph-name="Egrave" unicode="&#xc8;" horiz-adv-x="528" d="M487 594 L206 594 L206 395 L450 395 L450 290 L206 290 L206 106 L492 106 L492 0 L70 0 L70 700 L487 700 L487 594 Z M337 769 L245 769 L157 899 L272 899 L337 769 Z " />
<glyph glyph-name="Emacron" unicode="&#x112;" horiz-adv-x="528" d="M487 594 L206 594 L206 395 L450 395 L450 290 L206 290 L206 106 L492 106 L492 0 L70 0 L70 700 L487 700 L487 594 Z M400 813 L146 813 L146 889 L400 889 L400 813 Z " />
<glyph glyph-name="Eogonek" unicode="&#x118;" horiz-adv-x="528" d="M487 594 L206 594 L206 395 L450 395 L450 290 L206 290 L206 106 L492 106 L492 0 L70 0 L70 700 L487 700 L487 594 Z M401 -180 Q352 -180 324 -157.5 Q296 -135 296 -91 Q296 -33 336 -6.5 Q376 20 432 27 L446 0 Q405 -7 385 -22 Q365 -37 365 -62 Q365 -81 378 -90.5 Q391 -100 412 -100 Q439 -100 472 -89 L473 -169 Q438 -180 401 -180 Z " />
<glyph glyph-name="F" unicode="F" horiz-adv-x="503" d="M476 594 L206 594 L206 383 L438 383 L438 278 L206 278 L206 0 L70 0 L70 700 L476 700 L476 594 Z " />
<glyph glyph-name="G" unicode="G" horiz-adv-x="622" d="M574 375 L574 32 Q526 10 471.5 0 Q417 -10 365 -10 Q217 -10 129 78 Q41 166 41 344 Q41 523 131.5 617.5 Q222 712 380 712 Q424 712 473 703 Q522 694 559 678 L544 561 Q507 580 472.5 592 Q438 604 400 604 Q301 604 243.5 537.5 Q186 471 186 343 Q186 217 239.5 157 Q293 97 373 97 Q426 97 462 115 L462 283 L339 283 L339 375 L574 375 Z " />
<glyph glyph-name="Gbreve" unicode="&#x11e;" horiz-adv-x="622" d="M574 375 L574 32 Q526 10 471.5 0 Q417 -10 365 -10 Q217 -10 129 78 Q41 166 41 344 Q41 523 131.5 617.5 Q222 712 380 712 Q424 712 473 703 Q522 694 559 678 L544 561 Q507 580 472.5 592 Q438 604 400 604 Q301 604 243.5 537.5 Q186 471 186 343 Q186 217 239.5 157 Q293 97 373 97 Q426 97 462 115 L462 283 L339 283 L339 375 L574 375 Z M338 770 Q273 770 238 799 Q203 828 198 898 L272 902 Q275 867 294 851.5 Q313 836 338 836 Q362 836 381 851.5 Q400 867 403 902 L477 898 Q472 828 437 799 Q402 770 338 770 Z " />
<glyph glyph-name="Gcircumflex" unicode="&#x11c;" horiz-adv-x="622" d="M574 375 L574 32 Q526 10 471.5 0 Q417 -10 365 -10 Q217 -10 129 78 Q41 166 41 344 Q41 523 131.5 617.5 Q222 712 380 712 Q424 712 473 703 Q522 694 559 678 L544 561 Q507 580 472.5 592 Q438 604 400 604 Q301 604 243.5 537.5 Q186 471 186 343 Q186 217 239.5 157 Q293 97 373 97 Q426 97 462 115 L462 283 L339 283 L339 375 L574 375 Z M398 765 L336 852 L278 765 L168 765 L273 896 L403 896 L507 765 L398 765 Z " />
<glyph glyph-name="Gcommaaccent" unicode="&#x122;" horiz-adv-x="622" d="M574 375 L574 32 Q526 10 471.5 0 Q417 -10 365 -10 Q217 -10 129 78 Q41 166 41 344 Q41 523 131.5 617.5 Q222 712 380 712 Q424 712 473 703 Q522 694 559 678 L544 561 Q507 580 472.5 592 Q438 604 400 604 Q301 604 243.5 537.5 Q186 471 186 343 Q186 217 239.5 157 Q293 97 373 97 Q426 97 462 115 L462 283 L339 283 L339 375 L574 375 Z M387 -74 Q387 -130 378.5 -167.5 Q370 -205 355 -247 L280 -247 Q290 -209 296 -171 Q302 -133 302 -74 L387 -74 Z " />
<glyph glyph-name="Gdotaccent" unicode="&#x120;" horiz-adv-x="622" d="M574 375 L574 32 Q526 10 471.5 0 Q417 -10 365 -10 Q217 -10 129 78 Q41 166 41 344 Q41 523 131.5 617.5 Q222 712 380 712 Q424 712 473 703 Q522 694 559 678 L544 561 Q507 580 472.5 592 Q438 604 400 604 Q301 604 243.5 537.5 Q186 471 186 343 Q186 217 239.5 157 Q293 97 373 97 Q426 97 462 115 L462 283 L339 283 L339 375 L574 375 Z M338 787 Q309 787 293 801.5 Q277 816 277 844 Q277 872 293 886.5 Q309 901 338 901 Q400 901 400 844 Q400 787 338 787 Z " />
<glyph glyph-name="H" unicode="H" horiz-adv-x="650" d="M580 0 L444 0 L444 289 L206 289 L206 0 L70 0 L70 700 L206 700 L206 400 L444 400 L444 700 L580 700 L580 0 Z " />
<glyph glyph-name="Hbar" unicode="&#x126;" horiz-adv-x="654" d="M631 524 L582 524 L582 0 L445 0 L445 289 L209 289 L209 0 L72 0 L72 525 L24 525 L24 586 L72 586 L72 700 L209 700 L209 586 L445 586 L445 700 L582 700 L582 586 L631 586 L631 524 Z M445 524 L209 525 L209 400 L445 400 L445 524 Z " />
<glyph glyph-name="Hcircumflex" unicode="&#x124;" horiz-adv-x="650" d="M580 0 L444 0 L444 289 L206 289 L206 0 L70 0 L70 700 L206 700 L206 400 L444 400 L444 700 L580 700 L580 0 Z M386 765 L324 852 L266 765 L156 765 L261 896 L391 896 L495 765 L386 765 Z " />
<glyph glyph-name="I" unicode="I" horiz-adv-x="275" d="M206 0 L70 0 L70 700 L206 700 L206 0 Z " />
<glyph glyph-name="Iacute" unicode="&#xcd;" horiz-adv-x="277" d="M206 0 L70 0 L70 700 L206 700 L206 0 Z M184 769 L91 769 L158 899 L275 899 L184 769 Z " />
<glyph glyph-name="Ibreve" unicode="&#x12c;" horiz-adv-x="275" d="M206 0 L70 0 L70 700 L206 700 L206 0 Z M138 770 Q73 770 38 799 Q3 828 -2 898 L72 902 Q75 867 94 851.5 Q113 836 138 836 Q162 836 181 851.5 Q200 867 203 902 L277 898 Q272 828 237 799 Q202 770 138 770 Z " />
<glyph glyph-name="Icircumflex" unicode="&#xce;" horiz-adv-x="272" d="M205 0 L69 0 L69 700 L205 700 L205 0 Z M198 765 L136 852 L78 765 L-32 765 L73 896 L203 896 L307 765 L198 765 Z " />
<glyph glyph-name="Idieresis" unicode="&#xcf;" horiz-adv-x="276" d="M206 0 L70 0 L70 700 L206 700 L206 0 Z M39 907 Q70 907 85.5 891.5 Q101 876 101 848 Q101 788 38 788 Q9 788 -7 803.5 Q-23 819 -23 848 Q-23 876 -7 891.5 Q9 907 39 907 Z M235 907 Q298 907 298 848 Q298 788 235 788 Q175 788 175 848 Q175 876 190 891.5 Q205 907 235 907 Z " />
<glyph glyph-name="Idot" unicode="&#x130;" horiz-adv-x="275" d="M206 0 L70 0 L70 700 L206 700 L206 0 Z M136 787 Q107 787 91 801.5 Q75 816 75 844 Q75 872 91 886.5 Q107 901 136 901 Q198 901 198 844 Q198 787 136 787 Z " />
<glyph glyph-name="Igrave" unicode="&#xcc;" horiz-adv-x="275" d="M206 0 L70 0 L70 700 L206 700 L206 0 Z M197 769 L105 769 L17 899 L132 899 L197 769 Z " />
<glyph glyph-name="Imacron" unicode="&#x12a;" horiz-adv-x="275" d="M15 850 L258 850 L258 778 L15 778 L15 850 Z M206 0 L70 0 L70 700 L206 700 L206 0 Z " />
<glyph glyph-name="Iogonek" unicode="&#x12e;" horiz-adv-x="279" d="M208 0 L72 0 L72 700 L208 700 L208 0 Z M163 -180 Q114 -180 86 -157.5 Q58 -135 58 -91 Q58 -33 98 -6.5 Q138 20 194 27 L208 0 Q167 -7 147 -22 Q127 -37 127 -62 Q127 -81 140 -90.5 Q153 -100 174 -100 Q201 -100 234 -89 L235 -169 Q200 -180 163 -180 Z " />
<glyph glyph-name="Itilde" unicode="&#x128;" horiz-adv-x="286" d="M211 0 L75 0 L75 700 L211 700 L211 0 Z M200 785 Q182 785 168.5 791 Q155 797 143.5 804 Q132 811 129 813 Q114 823 102.5 828.5 Q91 834 80 834 Q50 834 38 790 L-8 812 Q22 917 94 917 Q109 917 121.5 911.5 Q134 906 144.5 899.5 Q155 893 159 890 Q190 868 211 868 Q230 868 239 880 Q248 892 254 912 L299 891 Q272 785 200 785 Z " />
<glyph glyph-name="J" unicode="J" horiz-adv-x="385" d="M321 195 Q321 92 277.5 41.5 Q234 -9 123 -9 Q67 -9 22 5 L24 116 Q48 109 62 106.5 Q76 104 93 104 Q143 104 164 128.5 Q185 153 185 217 L185 598 L76 598 L76 700 L321 700 L321 195 Z " />
<glyph glyph-name="Jcircumflex" unicode="&#x134;" horiz-adv-x="385" d="M149 765 L39 765 L144 896 L274 896 L378 765 L269 765 L207 852 L149 765 Z M76 700 L321 700 L321 195 Q321 92 277.5 41.5 Q234 -9 123 -9 Q67 -9 22 5 L24 116 Q48 109 62 106.5 Q76 104 93 104 Q143 104 164 128.5 Q185 153 185 217 L185 598 L76 598 L76 700 Z " />
<glyph glyph-name="K" unicode="K" horiz-adv-x="593" d="M299 318 L205 190 L205 0 L70 0 L70 700 L205 700 L205 372 L426 700 L579 700 L387 438 L584 0 L432 0 L299 318 Z " />
<glyph glyph-name="Kcommaaccent" unicode="&#x136;" horiz-adv-x="593" d="M299 318 L205 190 L205 0 L70 0 L70 700 L205 700 L205 372 L426 700 L579 700 L387 438 L584 0 L432 0 L299 318 Z M361 -74 Q361 -130 352.5 -167.5 Q344 -205 329 -247 L254 -247 Q264 -209 270 -171 Q276 -133 276 -74 L361 -74 Z " />
<glyph glyph-name="L" unicode="L" horiz-adv-x="486" d="M206 112 L469 112 L469 0 L70 0 L70 700 L206 700 L206 112 Z " />
<glyph glyph-name="Lacute" unicode="&#x139;" horiz-adv-x="486" d="M206 112 L469 112 L469 0 L70 0 L70 700 L206 700 L206 112 Z M180 769 L87 769 L154 899 L271 899 L180 769 Z " />
<glyph glyph-name="Lcaron" unicode="&#x13d;" horiz-adv-x="486" d="M206 112 L469 112 L469 0 L70 0 L70 700 L206 700 L206 112 Z M291 586 L291 699 L376 699 Q376 650 370.5 619.5 Q365 589 350 532 L291 532 L291 586 Z " />
<glyph glyph-name="Lcommaaccent" unicode="&#x13b;" horiz-adv-x="486" d="M206 112 L469 112 L469 0 L70 0 L70 700 L206 700 L206 112 Z M308 -74 Q308 -130 299.5 -167.5 Q291 -205 276 -247 L201 -247 Q211 -209 217 -171 Q223 -133 223 -74 L308 -74 Z " />
<glyph glyph-name="Lslash" unicode="&#x141;" horiz-adv-x="453" d="M436 106 L436 0 L70 0 L70 246 L7 201 L7 264 L70 308 L70 700 L202 700 L202 401 L338 497 L338 435 L202 339 L202 106 L436 106 Z " />
<glyph glyph-name="M" unicode="M" horiz-adv-x="836" d="M766 0 L636 0 L635 277 Q635 320 637 373.5 Q639 427 640 448 L643 515 L639 515 L476 61 L356 61 L191 517 L188 517 L191 448 Q192 427 194 373.5 Q196 320 196 277 L196 0 L70 0 L70 700 L251 700 L422 222 L597 700 L765 700 L766 0 Z " />
<glyph glyph-name="N" unicode="N" horiz-adv-x="653" d="M456 0 L194 468 L195 271 L195 0 L70 0 L70 700 L196 700 L459 237 L458 433 L458 700 L582 700 L583 0 L456 0 Z " />
<glyph glyph-name="Nacute" unicode="&#x143;" horiz-adv-x="653" d="M456 0 L194 468 L195 271 L195 0 L70 0 L70 700 L196 700 L459 237 L458 433 L458 700 L582 700 L583 0 L456 0 Z M371 769 L278 769 L345 899 L462 899 L371 769 Z " />
<glyph glyph-name="Ncaron" unicode="&#x147;" horiz-adv-x="651" d="M456 0 L194 468 L195 271 L195 0 L70 0 L70 700 L196 700 L459 237 L458 433 L458 700 L582 700 L583 0 L456 0 Z M494 896 L390 765 L260 765 L155 896 L261 896 L324 805 L389 896 L494 896 Z " />
<glyph glyph-name="Ncommaaccent" unicode="&#x145;" horiz-adv-x="651" d="M456 0 L194 468 L195 271 L195 0 L70 0 L70 700 L196 700 L459 237 L458 433 L458 700 L582 700 L583 0 L456 0 Z M368 -74 Q368 -130 359.5 -167.5 Q351 -205 336 -247 L261 -247 Q271 -209 277 -171 Q283 -133 283 -74 L368 -74 Z " />
<glyph glyph-name="Eng" unicode="&#x14a;" horiz-adv-x="653" d="M363 -99 Q400 -94 428 -75 Q456 -56 456 -18 L456 0 L193 468 L195 274 L195 0 L70 0 L70 700 L196 700 L459 237 L458 433 L458 700 L583 700 L583 8 Q583 -84 533.5 -129 Q484 -174 403 -191 L363 -99 Z " />
<glyph glyph-name="Ntilde" unicode="&#xd1;" horiz-adv-x="653" d="M456 0 L194 468 L195 271 L195 0 L70 0 L70 700 L196 700 L459 237 L458 433 L458 700 L582 700 L583 0 L456 0 Z M381 785 Q363 785 349.5 791 Q336 797 324.5 804 Q313 811 310 813 Q295 823 283.5 828.5 Q272 834 261 834 Q231 834 219 790 L173 812 Q203 917 275 917 Q290 917 302.5 911.5 Q315 906 325.5 899.5 Q336 893 340 890 Q371 868 392 868 Q411 868 420 880 Q429 892 435 912 L480 891 Q453 785 381 785 Z " />
<glyph glyph-name="O" unicode="O" horiz-adv-x="661" d="M331 -12 Q187 -12 114 81.5 Q41 175 41 351 Q41 526 114 619 Q187 712 331 712 Q475 712 548 619 Q621 526 621 351 Q621 176 548 82 Q475 -12 331 -12 Z M331 96 Q477 96 477 351 Q477 604 331 604 Q184 604 184 351 Q184 96 331 96 Z " />
<glyph glyph-name="Oacute" unicode="&#xd3;" horiz-adv-x="661" d="M331 -12 Q187 -12 114 81.5 Q41 175 41 351 Q41 526 114 619 Q187 712 331 712 Q475 712 548 619 Q621 526 621 351 Q621 176 548 82 Q475 -12 331 -12 Z M331 96 Q477 96 477 351 Q477 604 331 604 Q184 604 184 351 Q184 96 331 96 Z M331 769 L238 769 L305 899 L422 899 L331 769 Z " />
<glyph glyph-name="Obreve" unicode="&#x14e;" horiz-adv-x="661" d="M331 -12 Q187 -12 114 81.5 Q41 175 41 351 Q41 526 114 619 Q187 712 331 712 Q475 712 548 619 Q621 526 621 351 Q621 176 548 82 Q475 -12 331 -12 Z M331 96 Q477 96 477 351 Q477 604 331 604 Q184 604 184 351 Q184 96 331 96 Z M331 770 Q266 770 231 799 Q196 828 191 898 L265 902 Q268 867 287 851.5 Q306 836 331 836 Q355 836 374 851.5 Q393 867 396 902 L470 898 Q465 828 430 799 Q395 770 331 770 Z " />
<glyph glyph-name="Ocircumflex" unicode="&#xd4;" horiz-adv-x="661" d="M331 -12 Q187 -12 114 81.5 Q41 175 41 351 Q41 526 114 619 Q187 712 331 712 Q475 712 548 619 Q621 526 621 351 Q621 176 548 82 Q475 -12 331 -12 Z M331 96 Q477 96 477 351 Q477 604 331 604 Q184 604 184 351 Q184 96 331 96 Z M391 765 L329 852 L271 765 L161 765 L266 896 L396 896 L500 765 L391 765 Z " />
<glyph glyph-name="Odieresis" unicode="&#xd6;" horiz-adv-x="661" d="M331 -12 Q187 -12 114 81.5 Q41 175 41 351 Q41 526 114 619 Q187 712 331 712 Q475 712 548 619 Q621 526 621 351 Q621 176 548 82 Q475 -12 331 -12 Z M331 96 Q477 96 477 351 Q477 604 331 604 Q184 604 184 351 Q184 96 331 96 Z M232 907 Q263 907 278.5 891.5 Q294 876 294 848 Q294 788 231 788 Q202 788 186 803.5 Q170 819 170 848 Q170 876 186 891.5 Q202 907 232 907 Z M428 907 Q491 907 491 848 Q491 788 428 788 Q368 788 368 848 Q368 876 383 891.5 Q398 907 428 907 Z " />
<glyph glyph-name="Ograve" unicode="&#xd2;" horiz-adv-x="661" d="M331 -12 Q187 -12 114 81.5 Q41 175 41 351 Q41 526 114 619 Q187 712 331 712 Q475 712 548 619 Q621 526 621 351 Q621 176 548 82 Q475 -12 331 -12 Z M331 96 Q477 96 477 351 Q477 604 331 604 Q184 604 184 351 Q184 96 331 96 Z M390 769 L298 769 L210 899 L325 899 L390 769 Z " />
<glyph glyph-name="Ohungarumlaut" unicode="&#x150;" horiz-adv-x="661" d="M331 -12 Q187 -12 114 81.5 Q41 175 41 351 Q41 526 114 619 Q187 712 331 712 Q475 712 548 619 Q621 526 621 351 Q621 176 548 82 Q475 -12 331 -12 Z M331 96 Q477 96 477 351 Q477 604 331 604 Q184 604 184 351 Q184 96 331 96 Z M286 769 L193 769 L257 899 L374 899 L286 769 Z M443 769 L350 769 L414 899 L531 899 L443 769 Z " />
<glyph glyph-name="Omacron" unicode="&#x14c;" horiz-adv-x="661" d="M331 -12 Q187 -12 114 81.5 Q41 175 41 351 Q41 526 114 619 Q187 712 331 712 Q475 712 548 619 Q621 526 621 351 Q621 176 548 82 Q475 -12 331 -12 Z M331 96 Q477 96 477 351 Q477 604 331 604 Q184 604 184 351 Q184 96 331 96 Z M458 813 L204 813 L204 889 L458 889 L458 813 Z " />
<glyph glyph-name="Oslash" unicode="&#xd8;" horiz-adv-x="661" d="M524 645 Q621 555 621 351 Q621 176 548 82 Q475 -12 331 -12 Q254 -12 197 15 L170 -37 L101 -37 L145 49 Q41 138 41 351 Q41 526 114 619 Q187 712 331 712 Q413 712 473 681 L499 731 L568 731 L524 645 Z M184 351 Q184 239 212 177 L416 572 Q383 604 331 604 Q184 604 184 351 Z M331 96 Q477 96 477 351 Q477 451 454 511 L252 122 Q284 96 331 96 Z " />
<glyph glyph-name="Oslashacute" unicode="&#x1fe;" horiz-adv-x="661" d="M524 645 Q621 555 621 351 Q621 176 548 82 Q475 -12 331 -12 Q254 -12 197 15 L170 -37 L101 -37 L145 49 Q41 138 41 351 Q41 526 114 619 Q187 712 331 712 Q413 712 473 681 L499 731 L568 731 L524 645 Z M184 351 Q184 239 212 177 L416 572 Q383 604 331 604 Q184 604 184 351 Z M331 96 Q477 96 477 351 Q477 451 454 511 L252 122 Q284 96 331 96 Z M331 769 L238 769 L305 899 L422 899 L331 769 Z " />
<glyph glyph-name="Otilde" unicode="&#xd5;" horiz-adv-x="661" d="M331 -12 Q187 -12 114 81.5 Q41 175 41 351 Q41 526 114 619 Q187 712 331 712 Q475 712 548 619 Q621 526 621 351 Q621 176 548 82 Q475 -12 331 -12 Z M331 96 Q477 96 477 351 Q477 604 331 604 Q184 604 184 351 Q184 96 331 96 Z M386 785 Q368 785 354.5 791 Q341 797 329.5 804 Q318 811 315 813 Q300 823 288.5 828.5 Q277 834 266 834 Q236 834 224 790 L178 812 Q208 917 280 917 Q295 917 307.5 911.5 Q320 906 330.5 899.5 Q341 893 345 890 Q376 868 397 868 Q416 868 425 880 Q434 892 440 912 L485 891 Q458 785 386 785 Z " />
<glyph glyph-name="OE" unicode="&#x152;" horiz-adv-x="951" d="M916 106 L916 0 L501 0 L501 60 Q437 -10 333 -10 Q189 -10 115 85 Q41 180 41 351 Q41 522 115 617 Q189 712 333 712 Q437 712 501 642 L501 700 L911 700 L911 594 L633 594 L633 395 L874 395 L874 290 L633 290 L633 106 L916 106 Z M333 99 Q401 99 440 160.5 Q479 222 479 351 Q479 479 440 541 Q401 603 333 603 Q264 603 225 541 Q186 479 186 351 Q186 222 225 160.5 Q264 99 333 99 Z " />
<glyph glyph-name="P" unicode="P" horiz-adv-x="581" d="M70 700 L332 700 Q401 700 451.5 669.5 Q502 639 528.5 587 Q555 535 555 472 Q555 408 528.5 355.5 Q502 303 451.5 272.5 Q401 242 332 242 L206 242 L206 0 L70 0 L70 700 Z M290 345 Q348 345 381 380 Q414 415 414 471 Q414 527 381 562 Q348 597 290 597 L206 597 L206 345 L290 345 Z " />
<glyph glyph-name="Thorn" unicode="&#xde;" horiz-adv-x="576" d="M70 700 L208 700 L208 578 L333 578 Q404 578 452.5 547.5 Q501 517 525.5 466.5 Q550 416 550 355 Q550 294 526 243.5 Q502 193 453.5 163 Q405 133 335 133 L208 133 L208 0 L70 0 L70 700 Z M297 239 Q350 239 380.5 270.5 Q411 302 411 355 Q411 407 380.5 439.5 Q350 472 297 472 L208 472 L208 239 L297 239 Z " />
<glyph glyph-name="Q" unicode="Q" horiz-adv-x="665" d="M478 21 Q520 8 562 -13 L615 -41 L573 -133 L334 -12 L333 -12 Q188 -12 114.5 82 Q41 176 41 351 Q41 526 114.5 619 Q188 712 333 712 Q477 712 551 618.5 Q625 525 625 351 Q625 227 588 143.5 Q551 60 478 21 Z M186 351 Q186 97 333 97 Q479 97 479 351 Q479 604 333 604 Q186 604 186 351 Z " />
<glyph glyph-name="R" unicode="R" horiz-adv-x="598" d="M561 484 Q561 418 528.5 364.5 Q496 311 437 285 L551 0 L416 0 L321 263 L206 264 L206 0 L70 0 L70 700 L332 700 Q405 700 456.5 671 Q508 642 534.5 593 Q561 544 561 484 Z M206 366 L301 366 Q360 366 391.5 397 Q423 428 423 482 Q423 536 391.5 566.5 Q360 597 301 597 L206 597 L206 366 Z " />
<glyph glyph-name="Racute" unicode="&#x154;" horiz-adv-x="598" d="M561 484 Q561 418 528.5 364.5 Q496 311 437 285 L551 0 L416 0 L321 263 L206 264 L206 0 L70 0 L70 700 L332 700 Q405 700 456.5 671 Q508 642 534.5 593 Q561 544 561 484 Z M206 366 L301 366 Q360 366 391.5 397 Q423 428 423 482 Q423 536 391.5 566.5 Q360 597 301 597 L206 597 L206 366 Z M305 769 L212 769 L279 899 L396 899 L305 769 Z " />
<glyph glyph-name="Rcaron" unicode="&#x158;" horiz-adv-x="598" d="M561 484 Q561 418 528.5 364.5 Q496 311 437 285 L551 0 L416 0 L321 263 L206 264 L206 0 L70 0 L70 700 L332 700 Q405 700 456.5 671 Q508 642 534.5 593 Q561 544 561 484 Z M206 366 L301 366 Q360 366 391.5 397 Q423 428 423 482 Q423 536 391.5 566.5 Q360 597 301 597 L206 597 L206 366 Z M440 896 L336 765 L206 765 L101 896 L207 896 L270 805 L335 896 L440 896 Z " />
<glyph glyph-name="Rcommaaccent" unicode="&#x156;" horiz-adv-x="598" d="M561 484 Q561 418 528.5 364.5 Q496 311 437 285 L551 0 L416 0 L321 263 L206 264 L206 0 L70 0 L70 700 L332 700 Q405 700 456.5 671 Q508 642 534.5 593 Q561 544 561 484 Z M206 366 L301 366 Q360 366 391.5 397 Q423 428 423 482 Q423 536 391.5 566.5 Q360 597 301 597 L206 597 L206 366 Z M335 -74 Q335 -130 326.5 -167.5 Q318 -205 303 -247 L228 -247 Q238 -209 244 -171 Q250 -133 250 -74 L335 -74 Z " />
<glyph glyph-name="S" unicode="S" horiz-adv-x="527" d="M256 -9 Q201 -9 139.5 5.5 Q78 20 34 43 L45 163 Q94 138 147.5 119 Q201 100 246 100 Q297 100 326 121 Q355 142 355 184 Q355 213 341 231 Q327 249 306 260 Q285 271 247 284 L219 294 Q136 324 90 372.5 Q44 421 44 510 Q44 612 105.5 662 Q167 712 267 712 Q320 712 376.5 698.5 Q433 685 477 664 L466 548 Q410 574 369.5 588.5 Q329 603 286 603 Q233 603 208 580.5 Q183 558 183 520 Q183 489 197.5 470 Q212 451 234 439.5 Q256 428 297 412 L318 404 Q375 382 412 358 Q449 334 470.5 295.5 Q492 257 492 198 Q492 94 428 42.5 Q364 -9 256 -9 Z " />
<glyph glyph-name="Sacute" unicode="&#x15a;" horiz-adv-x="527" d="M256 -9 Q201 -9 139.5 5.5 Q78 20 34 43 L45 163 Q94 138 147.5 119 Q201 100 246 100 Q297 100 326 121 Q355 142 355 184 Q355 213 341 231 Q327 249 306 260 Q285 271 247 284 L219 294 Q136 324 90 372.5 Q44 421 44 510 Q44 612 105.5 662 Q167 712 267 712 Q320 712 376.5 698.5 Q433 685 477 664 L466 548 Q410 574 369.5 588.5 Q329 603 286 603 Q233 603 208 580.5 Q183 558 183 520 Q183 489 197.5 470 Q212 451 234 439.5 Q256 428 297 412 L318 404 Q375 382 412 358 Q449 334 470.5 295.5 Q492 257 492 198 Q492 94 428 42.5 Q364 -9 256 -9 Z M303 769 L210 769 L277 899 L394 899 L303 769 Z " />
<glyph glyph-name="Scaron" unicode="&#x160;" horiz-adv-x="527" d="M256 -9 Q201 -9 139.5 5.5 Q78 20 34 43 L45 163 Q94 138 147.5 119 Q201 100 246 100 Q297 100 326 121 Q355 142 355 184 Q355 213 341 231 Q327 249 306 260 Q285 271 247 284 L219 294 Q136 324 90 372.5 Q44 421 44 510 Q44 612 105.5 662 Q167 712 267 712 Q320 712 376.5 698.5 Q433 685 477 664 L466 548 Q410 574 369.5 588.5 Q329 603 286 603 Q233 603 208 580.5 Q183 558 183 520 Q183 489 197.5 470 Q212 451 234 439.5 Q256 428 297 412 L318 404 Q375 382 412 358 Q449 334 470.5 295.5 Q492 257 492 198 Q492 94 428 42.5 Q364 -9 256 -9 Z M426 896 L322 765 L192 765 L87 896 L193 896 L256 805 L321 896 L426 896 Z " />
<glyph glyph-name="Scedilla" unicode="&#x15e;" horiz-adv-x="527" d="M256 -9 Q201 -9 139.5 5.5 Q78 20 34 43 L45 163 Q94 138 147.5 119 Q201 100 246 100 Q297 100 326 121 Q355 142 355 184 Q355 213 341 231 Q327 249 306 260 Q285 271 247 284 L219 294 Q136 324 90 372.5 Q44 421 44 510 Q44 612 105.5 662 Q167 712 267 712 Q320 712 376.5 698.5 Q433 685 477 664 L466 548 Q410 574 369.5 588.5 Q329 603 286 603 Q233 603 208 580.5 Q183 558 183 520 Q183 489 197.5 470 Q212 451 234 439.5 Q256 428 297 412 L318 404 Q375 382 412 358 Q449 334 470.5 295.5 Q492 257 492 198 Q492 94 428 42.5 Q364 -9 256 -9 Z M275 -49 Q313 -52 343.5 -72 Q374 -92 374 -137 Q374 -185 338 -207 Q302 -229 247 -229 Q186 -229 155 -217 L160 -158 Q199 -173 234 -173 Q259 -173 276 -163 Q293 -153 293 -130 Q293 -107 271 -94.5 Q249 -82 202 -81 L233 22 L296 22 L275 -49 Z " />
<glyph glyph-name="Scircumflex" unicode="&#x15c;" horiz-adv-x="527" d="M256 -9 Q201 -9 139.5 5.5 Q78 20 34 43 L45 163 Q94 138 147.5 119 Q201 100 246 100 Q297 100 326 121 Q355 142 355 184 Q355 213 341 231 Q327 249 306 260 Q285 271 247 284 L219 294 Q136 324 90 372.5 Q44 421 44 510 Q44 612 105.5 662 Q167 712 267 712 Q320 712 376.5 698.5 Q433 685 477 664 L466 548 Q410 574 369.5 588.5 Q329 603 286 603 Q233 603 208 580.5 Q183 558 183 520 Q183 489 197.5 470 Q212 451 234 439.5 Q256 428 297 412 L318 404 Q375 382 412 358 Q449 334 470.5 295.5 Q492 257 492 198 Q492 94 428 42.5 Q364 -9 256 -9 Z M327 765 L265 852 L207 765 L97 765 L202 896 L332 896 L436 765 L327 765 Z " />
<glyph glyph-name="Scommaaccent" unicode="&#x218;" horiz-adv-x="527" d="M256 -9 Q201 -9 139.5 5.5 Q78 20 34 43 L45 163 Q94 138 147.5 119 Q201 100 246 100 Q297 100 326 121 Q355 142 355 184 Q355 213 341 231 Q327 249 306 260 Q285 271 247 284 L219 294 Q136 324 90 372.5 Q44 421 44 510 Q44 612 105.5 662 Q167 712 267 712 Q320 712 376.5 698.5 Q433 685 477 664 L466 548 Q410 574 369.5 588.5 Q329 603 286 603 Q233 603 208 580.5 Q183 558 183 520 Q183 489 197.5 470 Q212 451 234 439.5 Q256 428 297 412 L318 404 Q375 382 412 358 Q449 334 470.5 295.5 Q492 257 492 198 Q492 94 428 42.5 Q364 -9 256 -9 Z M306 -74 Q306 -130 297.5 -167.5 Q289 -205 274 -247 L199 -247 Q209 -209 215 -171 Q221 -133 221 -74 L306 -74 Z " />
<glyph glyph-name="T" unicode="T" horiz-adv-x="534" d="M518 597 L336 597 L336 0 L200 0 L200 597 L16 597 L16 700 L518 700 L518 597 Z " />
<glyph glyph-name="Tbar" unicode="&#x166;" horiz-adv-x="525" d="M330 594 L330 381 L431 381 L431 320 L330 320 L330 0 L197 0 L197 320 L95 320 L95 381 L197 381 L197 594 L22 594 L22 700 L504 700 L504 594 L330 594 Z " />
<glyph glyph-name="Tcaron" unicode="&#x164;" horiz-adv-x="534" d="M518 597 L336 597 L336 0 L200 0 L200 597 L16 597 L16 700 L518 700 L518 597 Z M437 896 L333 765 L203 765 L98 896 L204 896 L267 805 L332 896 L437 896 Z " />
<glyph glyph-name="uni0162" unicode="&#x162;" horiz-adv-x="534" d="M518 597 L336 597 L336 0 L200 0 L200 597 L16 597 L16 700 L518 700 L518 597 Z M312 -74 Q312 -130 303.5 -167.5 Q295 -205 280 -247 L205 -247 Q215 -209 221 -171 Q227 -133 227 -74 L312 -74 Z " />
<glyph glyph-name="uni021A" unicode="&#x21a;" horiz-adv-x="534" d="M518 597 L336 597 L336 0 L200 0 L200 597 L16 597 L16 700 L518 700 L518 597 Z M312 -74 Q312 -130 303.5 -167.5 Q295 -205 280 -247 L205 -247 Q215 -209 221 -171 Q227 -133 227 -74 L312 -74 Z " />
<glyph glyph-name="U" unicode="U" horiz-adv-x="620" d="M556 227 Q556 156 527 102 Q498 48 442.5 18 Q387 -12 310 -12 Q194 -12 129 53.5 Q64 119 64 227 L64 700 L200 700 L200 228 Q200 162 232 130.5 Q264 99 312 99 Q361 99 395 130.5 Q429 162 429 228 L429 700 L556 700 L556 227 Z " />
<glyph glyph-name="Uacute" unicode="&#xda;" horiz-adv-x="620" d="M556 227 Q556 156 527 102 Q498 48 442.5 18 Q387 -12 310 -12 Q194 -12 129 53.5 Q64 119 64 227 L64 700 L200 700 L200 228 Q200 162 232 130.5 Q264 99 312 99 Q361 99 395 130.5 Q429 162 429 228 L429 700 L556 700 L556 227 Z M355 769 L262 769 L329 899 L446 899 L355 769 Z " />
<glyph glyph-name="Ubreve" unicode="&#x16c;" horiz-adv-x="620" d="M556 227 Q556 156 527 102 Q498 48 442.5 18 Q387 -12 310 -12 Q194 -12 129 53.5 Q64 119 64 227 L64 700 L200 700 L200 228 Q200 162 232 130.5 Q264 99 312 99 Q361 99 395 130.5 Q429 162 429 228 L429 700 L556 700 L556 227 Z M310 770 Q245 770 210 799 Q175 828 170 898 L244 902 Q247 867 266 851.5 Q285 836 310 836 Q334 836 353 851.5 Q372 867 375 902 L449 898 Q444 828 409 799 Q374 770 310 770 Z " />
<glyph glyph-name="Ucircumflex" unicode="&#xdb;" horiz-adv-x="620" d="M556 227 Q556 156 527 102 Q498 48 442.5 18 Q387 -12 310 -12 Q194 -12 129 53.5 Q64 119 64 227 L64 700 L200 700 L200 228 Q200 162 232 130.5 Q264 99 312 99 Q361 99 395 130.5 Q429 162 429 228 L429 700 L556 700 L556 227 Z M370 765 L308 852 L250 765 L140 765 L245 896 L375 896 L479 765 L370 765 Z " />
<glyph glyph-name="Udieresis" unicode="&#xdc;" horiz-adv-x="620" d="M556 227 Q556 156 527 102 Q498 48 442.5 18 Q387 -12 310 -12 Q194 -12 129 53.5 Q64 119 64 227 L64 700 L200 700 L200 228 Q200 162 232 130.5 Q264 99 312 99 Q361 99 395 130.5 Q429 162 429 228 L429 700 L556 700 L556 227 Z M211 907 Q242 907 257.5 891.5 Q273 876 273 848 Q273 788 210 788 Q181 788 165 803.5 Q149 819 149 848 Q149 876 165 891.5 Q181 907 211 907 Z M407 907 Q470 907 470 848 Q470 788 407 788 Q347 788 347 848 Q347 876 362 891.5 Q377 907 407 907 Z " />
<glyph glyph-name="Ugrave" unicode="&#xd9;" horiz-adv-x="620" d="M556 227 Q556 156 527 102 Q498 48 442.5 18 Q387 -12 310 -12 Q194 -12 129 53.5 Q64 119 64 227 L64 700 L200 700 L200 228 Q200 162 232 130.5 Q264 99 312 99 Q361 99 395 130.5 Q429 162 429 228 L429 700 L556 700 L556 227 Z M369 769 L277 769 L189 899 L304 899 L369 769 Z " />
<glyph glyph-name="Uhungarumlaut" unicode="&#x170;" horiz-adv-x="620" d="M556 227 Q556 156 527 102 Q498 48 442.5 18 Q387 -12 310 -12 Q194 -12 129 53.5 Q64 119 64 227 L64 700 L200 700 L200 228 Q200 162 232 130.5 Q264 99 312 99 Q361 99 395 130.5 Q429 162 429 228 L429 700 L556 700 L556 227 Z M265 769 L172 769 L236 899 L353 899 L265 769 Z M422 769 L329 769 L393 899 L510 899 L422 769 Z " />
<glyph glyph-name="Umacron" unicode="&#x16a;" horiz-adv-x="620" d="M556 227 Q556 156 527 102 Q498 48 442.5 18 Q387 -12 310 -12 Q194 -12 129 53.5 Q64 119 64 227 L64 700 L200 700 L200 228 Q200 162 232 130.5 Q264 99 312 99 Q361 99 395 130.5 Q429 162 429 228 L429 700 L556 700 L556 227 Z M437 813 L183 813 L183 889 L437 889 L437 813 Z " />
<glyph glyph-name="Uogonek" unicode="&#x172;" horiz-adv-x="620" d="M556 700 L556 227 Q556 139 512 78.5 Q468 18 388 -3 Q358 -13 344.5 -26.5 Q331 -40 331 -62 Q331 -81 344 -90.5 Q357 -100 378 -100 Q405 -100 438 -89 L439 -169 Q403 -180 367 -180 Q318 -180 290 -157.5 Q262 -135 262 -91 Q262 -39 296 -12 Q187 -8 125.5 57 Q64 122 64 227 L64 700 L200 700 L200 228 Q200 162 232 130.5 Q264 99 312 99 Q361 99 395 130.5 Q429 162 429 228 L429 700 L556 700 Z " />
<glyph glyph-name="Uring" unicode="&#x16e;" horiz-adv-x="620" d="M556 227 Q556 156 527 102 Q498 48 442.5 18 Q387 -12 310 -12 Q194 -12 129 53.5 Q64 119 64 227 L64 700 L200 700 L200 228 Q200 162 232 130.5 Q264 99 312 99 Q361 99 395 130.5 Q429 162 429 228 L429 700 L556 700 L556 227 Z M309 772 Q264 772 234.5 801 Q205 830 205 884 Q205 938 234.5 966.5 Q264 995 309 995 Q354 995 383.5 966.5 Q413 938 413 884 Q413 830 383.5 801 Q354 772 309 772 Z M309 825 Q325 825 337.5 839.5 Q350 854 350 884 Q350 914 337.5 928 Q325 942 309 942 Q293 942 281 928 Q269 914 269 884 Q269 854 281 839.5 Q293 825 309 825 Z " />
<glyph glyph-name="Utilde" unicode="&#x168;" horiz-adv-x="620" d="M556 227 Q556 156 527 102 Q498 48 442.5 18 Q387 -12 310 -12 Q194 -12 129 53.5 Q64 119 64 227 L64 700 L200 700 L200 228 Q200 162 232 130.5 Q264 99 312 99 Q361 99 395 130.5 Q429 162 429 228 L429 700 L556 700 L556 227 Z M365 785 Q347 785 333.5 791 Q320 797 308.5 804 Q297 811 294 813 Q279 823 267.5 828.5 Q256 834 245 834 Q215 834 203 790 L157 812 Q187 917 259 917 Q274 917 286.5 911.5 Q299 906 309.5 899.5 Q320 893 324 890 Q355 868 376 868 Q395 868 404 880 Q413 892 419 912 L464 891 Q437 785 365 785 Z " />
<glyph glyph-name="V" unicode="V" horiz-adv-x="578" d="M568 700 L376 0 L202 0 L10 700 L150 700 L295 150 L434 700 L568 700 Z " />
<glyph glyph-name="W" unicode="W" horiz-adv-x="905" d="M887 699 L752 -1 L557 0 L453 532 L348 0 L156 0 L17 700 L153 700 L260 129 L377 694 L542 694 L655 138 L761 700 L887 699 Z " />
<glyph glyph-name="Wacute" unicode="&#x1e82;" horiz-adv-x="897" d="M887 699 L752 -1 L557 0 L453 532 L348 0 L156 0 L17 700 L153 700 L260 129 L377 694 L542 694 L655 138 L761 700 L887 699 Z M497 769 L404 769 L471 899 L588 899 L497 769 Z " />
<glyph glyph-name="Wcircumflex" unicode="&#x174;" horiz-adv-x="897" d="M887 699 L752 -1 L557 0 L453 532 L348 0 L156 0 L17 700 L153 700 L260 129 L377 694 L542 694 L655 138 L761 700 L887 699 Z M511 765 L449 852 L391 765 L281 765 L386 896 L516 896 L620 765 L511 765 Z " />
<glyph glyph-name="Wdieresis" unicode="&#x1e84;" horiz-adv-x="897" d="M887 699 L752 -1 L557 0 L453 532 L348 0 L156 0 L17 700 L153 700 L260 129 L377 694 L542 694 L655 138 L761 700 L887 699 Z M352 907 Q383 907 398.5 891.5 Q414 876 414 848 Q414 788 351 788 Q322 788 306 803.5 Q290 819 290 848 Q290 876 306 891.5 Q322 907 352 907 Z M548 907 Q611 907 611 848 Q611 788 548 788 Q488 788 488 848 Q488 876 503 891.5 Q518 907 548 907 Z " />
<glyph glyph-name="Wgrave" unicode="&#x1e80;" horiz-adv-x="905" d="M887 699 L752 -1 L557 0 L453 532 L348 0 L156 0 L17 700 L153 700 L260 129 L377 694 L542 694 L655 138 L761 700 L887 699 Z M510 769 L418 769 L330 899 L445 899 L510 769 Z " />
<glyph glyph-name="X" unicode="X" horiz-adv-x="571" d="M407 0 L279 247 L148 0 L9 0 L206 344 L12 700 L168 700 L296 457 L425 700 L557 700 L366 364 L563 0 L407 0 Z " />
<glyph glyph-name="Y" unicode="Y" horiz-adv-x="559" d="M348 286 L348 0 L212 0 L212 284 L8 700 L150 700 L284 411 L418 700 L551 700 L348 286 Z " />
<glyph glyph-name="Yacute" unicode="&#xdd;" horiz-adv-x="559" d="M348 286 L348 0 L212 0 L212 284 L8 700 L150 700 L284 411 L418 700 L551 700 L348 286 Z M326 769 L233 769 L300 899 L417 899 L326 769 Z " />
<glyph glyph-name="Ycircumflex" unicode="&#x176;" horiz-adv-x="559" d="M348 286 L348 0 L212 0 L212 284 L8 700 L150 700 L284 411 L418 700 L551 700 L348 286 Z M340 765 L278 852 L220 765 L110 765 L215 896 L345 896 L449 765 L340 765 Z " />
<glyph glyph-name="Ydieresis" unicode="&#x178;" horiz-adv-x="559" d="M348 286 L348 0 L212 0 L212 284 L8 700 L150 700 L284 411 L418 700 L551 700 L348 286 Z M181 907 Q212 907 227.5 891.5 Q243 876 243 848 Q243 788 180 788 Q151 788 135 803.5 Q119 819 119 848 Q119 876 135 891.5 Q151 907 181 907 Z M377 907 Q440 907 440 848 Q440 788 377 788 Q317 788 317 848 Q317 876 332 891.5 Q347 907 377 907 Z " />
<glyph glyph-name="Ygrave" unicode="&#x1ef2;" horiz-adv-x="559" d="M348 286 L348 0 L212 0 L212 284 L8 700 L150 700 L284 411 L418 700 L551 700 L348 286 Z M339 769 L247 769 L159 899 L274 899 L339 769 Z " />
<glyph glyph-name="Z" unicode="Z" horiz-adv-x="515" d="M481 110 L481 0 L30 0 L30 104 L317 597 L166 594 L45 594 L45 700 L476 700 L476 601 L187 106 L331 110 L481 110 Z " />
<glyph glyph-name="Zacute" unicode="&#x179;" horiz-adv-x="515" d="M481 110 L481 0 L30 0 L30 104 L317 597 L166 594 L45 594 L45 700 L476 700 L476 601 L187 106 L331 110 L481 110 Z M298 769 L205 769 L272 899 L389 899 L298 769 Z " />
<glyph glyph-name="Zcaron" unicode="&#x17d;" horiz-adv-x="515" d="M481 110 L481 0 L30 0 L30 104 L317 597 L166 594 L45 594 L45 700 L476 700 L476 601 L187 106 L331 110 L481 110 Z M421 896 L317 765 L187 765 L82 896 L188 896 L251 805 L316 896 L421 896 Z " />
<glyph glyph-name="Zdotaccent" unicode="&#x17b;" horiz-adv-x="515" d="M481 110 L481 0 L30 0 L30 104 L317 597 L166 594 L45 594 L45 700 L476 700 L476 601 L187 106 L331 110 L481 110 Z M251 787 Q222 787 206 801.5 Q190 816 190 844 Q190 872 206 886.5 Q222 901 251 901 Q313 901 313 844 Q313 787 251 787 Z " />
<glyph glyph-name="a" unicode="a" horiz-adv-x="501" d="M489 5 Q473 1 449 -2 Q425 -5 406 -5 Q326 -5 314 62 Q298 29 264 10 Q230 -9 180 -9 Q109 -9 68.5 32.5 Q28 74 28 152 Q28 239 81 276 Q134 313 238 313 Q269 313 299 310 L299 352 Q299 397 277 414 Q255 431 214 431 Q156 431 61 397 L52 501 Q94 514 145 521.5 Q196 529 240 529 Q333 529 379 491 Q425 453 425 358 L425 142 Q425 117 433 107.5 Q441 98 457 98 Q464 98 473.5 100.5 Q483 103 488 104 L489 5 Z M223 79 Q254 79 276.5 101.5 Q299 124 299 164 L299 233 Q274 237 252 237 Q158 237 158 155 Q158 115 176.5 97 Q195 79 223 79 Z " />
<glyph glyph-name="aacute" unicode="&#xe1;" horiz-adv-x="501" d="M489 5 Q473 1 449 -2 Q425 -5 406 -5 Q326 -5 314 62 Q298 29 264 10 Q230 -9 180 -9 Q109 -9 68.5 32.5 Q28 74 28 152 Q28 239 81 276 Q134 313 238 313 Q269 313 299 310 L299 352 Q299 397 277 414 Q255 431 214 431 Q156 431 61 397 L52 501 Q94 514 145 521.5 Q196 529 240 529 Q333 529 379 491 Q425 453 425 358 L425 142 Q425 117 433 107.5 Q441 98 457 98 Q464 98 473.5 100.5 Q483 103 488 104 L489 5 Z M223 79 Q254 79 276.5 101.5 Q299 124 299 164 L299 233 Q274 237 252 237 Q158 237 158 155 Q158 115 176.5 97 Q195 79 223 79 Z M292 600 L200 600 L270 774 L386 774 L292 600 Z " />
<glyph glyph-name="abreve" unicode="&#x103;" horiz-adv-x="501" d="M489 5 Q473 1 449 -2 Q425 -5 406 -5 Q326 -5 314 62 Q298 29 264 10 Q230 -9 180 -9 Q109 -9 68.5 32.5 Q28 74 28 152 Q28 239 81 276 Q134 313 238 313 Q269 313 299 310 L299 352 Q299 397 277 414 Q255 431 214 431 Q156 431 61 397 L52 501 Q94 514 145 521.5 Q196 529 240 529 Q333 529 379 491 Q425 453 425 358 L425 142 Q425 117 433 107.5 Q441 98 457 98 Q464 98 473.5 100.5 Q483 103 488 104 L489 5 Z M223 79 Q254 79 276.5 101.5 Q299 124 299 164 L299 233 Q274 237 252 237 Q158 237 158 155 Q158 115 176.5 97 Q195 79 223 79 Z M247 602 Q174 602 138 638.5 Q102 675 94 755 L174 765 Q181 716 197.5 692.5 Q214 669 247 669 Q280 669 296 692 Q312 715 320 765 L400 755 Q392 674 356 638 Q320 602 247 602 Z " />
<glyph glyph-name="acircumflex" unicode="&#xe2;" horiz-adv-x="501" d="M489 5 Q473 1 449 -2 Q425 -5 406 -5 Q326 -5 314 62 Q298 29 264 10 Q230 -9 180 -9 Q109 -9 68.5 32.5 Q28 74 28 152 Q28 239 81 276 Q134 313 238 313 Q269 313 299 310 L299 352 Q299 397 277 414 Q255 431 214 431 Q156 431 61 397 L52 501 Q94 514 145 521.5 Q196 529 240 529 Q333 529 379 491 Q425 453 425 358 L425 142 Q425 117 433 107.5 Q441 98 457 98 Q464 98 473.5 100.5 Q483 103 488 104 L489 5 Z M223 79 Q254 79 276.5 101.5 Q299 124 299 164 L299 233 Q274 237 252 237 Q158 237 158 155 Q158 115 176.5 97 Q195 79 223 79 Z M309 597 L246 718 L185 597 L77 597 L180 766 L312 766 L415 597 L309 597 Z " />
<glyph glyph-name="adieresis" unicode="&#xe4;" horiz-adv-x="501" d="M489 5 Q473 1 449 -2 Q425 -5 406 -5 Q326 -5 314 62 Q298 29 264 10 Q230 -9 180 -9 Q109 -9 68.5 32.5 Q28 74 28 152 Q28 239 81 276 Q134 313 238 313 Q269 313 299 310 L299 352 Q299 397 277 414 Q255 431 214 431 Q156 431 61 397 L52 501 Q94 514 145 521.5 Q196 529 240 529 Q333 529 379 491 Q425 453 425 358 L425 142 Q425 117 433 107.5 Q441 98 457 98 Q464 98 473.5 100.5 Q483 103 488 104 L489 5 Z M223 79 Q254 79 276.5 101.5 Q299 124 299 164 L299 233 Q274 237 252 237 Q158 237 158 155 Q158 115 176.5 97 Q195 79 223 79 Z M148 719 Q181 719 197.5 702.5 Q214 686 214 656 Q214 594 148 594 Q116 594 99 610 Q82 626 82 656 Q82 686 99.5 702.5 Q117 719 148 719 Z M344 719 Q377 719 394 702.5 Q411 686 411 656 Q411 594 344 594 Q313 594 296.5 610 Q280 626 280 656 Q280 686 296.5 702.5 Q313 719 344 719 Z " />
<glyph glyph-name="agrave" unicode="&#xe0;" horiz-adv-x="501" d="M489 5 Q473 1 449 -2 Q425 -5 406 -5 Q326 -5 314 62 Q298 29 264 10 Q230 -9 180 -9 Q109 -9 68.5 32.5 Q28 74 28 152 Q28 239 81 276 Q134 313 238 313 Q269 313 299 310 L299 352 Q299 397 277 414 Q255 431 214 431 Q156 431 61 397 L52 501 Q94 514 145 521.5 Q196 529 240 529 Q333 529 379 491 Q425 453 425 358 L425 142 Q425 117 433 107.5 Q441 98 457 98 Q464 98 473.5 100.5 Q483 103 488 104 L489 5 Z M223 79 Q254 79 276.5 101.5 Q299 124 299 164 L299 233 Q274 237 252 237 Q158 237 158 155 Q158 115 176.5 97 Q195 79 223 79 Z M307 600 L215 600 L128 773 L246 773 L307 600 Z " />
<glyph glyph-name="amacron" unicode="&#x101;" horiz-adv-x="501" d="M489 5 Q473 1 449 -2 Q425 -5 406 -5 Q326 -5 314 62 Q298 29 264 10 Q230 -9 180 -9 Q109 -9 68.5 32.5 Q28 74 28 152 Q28 239 81 276 Q134 313 238 313 Q269 313 299 310 L299 352 Q299 397 277 414 Q255 431 214 431 Q156 431 61 397 L52 501 Q94 514 145 521.5 Q196 529 240 529 Q333 529 379 491 Q425 453 425 358 L425 142 Q425 117 433 107.5 Q441 98 457 98 Q464 98 473.5 100.5 Q483 103 488 104 L489 5 Z M223 79 Q254 79 276.5 101.5 Q299 124 299 164 L299 233 Q274 237 252 237 Q158 237 158 155 Q158 115 176.5 97 Q195 79 223 79 Z M374 633 L120 633 L120 709 L374 709 L374 633 Z " />
<glyph glyph-name="aogonek" unicode="&#x105;" horiz-adv-x="501" d="M493 -169 Q458 -180 421 -180 Q372 -180 344 -157.5 Q316 -135 316 -91 Q316 -30 369 0 Q323 12 314 62 Q298 29 264 10 Q230 -9 180 -9 Q109 -9 68.5 32.5 Q28 74 28 152 Q28 239 81 276 Q134 313 238 313 Q269 313 299 310 L299 352 Q299 397 277 414 Q255 431 214 431 Q156 431 61 397 L52 501 Q94 514 145 521.5 Q196 529 240 529 Q333 529 379 491 Q425 453 425 358 L425 142 Q425 117 433 107.5 Q441 98 457 98 Q464 98 473.5 100.5 Q483 103 488 104 L489 5 Q489 5 464 0 Q423 -9 404 -23 Q385 -37 385 -62 Q385 -81 398 -90.5 Q411 -100 433 -100 Q459 -100 492 -89 L493 -169 Z M223 79 Q254 79 276.5 101.5 Q299 124 299 164 L299 233 Q274 237 252 237 Q158 237 158 155 Q158 115 176.5 97 Q195 79 223 79 Z " />
<glyph glyph-name="aring" unicode="&#xe5;" horiz-adv-x="501" d="M489 5 Q473 1 449 -2 Q425 -5 406 -5 Q326 -5 314 62 Q298 29 264 10 Q230 -9 180 -9 Q109 -9 68.5 32.5 Q28 74 28 152 Q28 239 81 276 Q134 313 238 313 Q269 313 299 310 L299 352 Q299 397 277 414 Q255 431 214 431 Q156 431 61 397 L52 501 Q94 514 145 521.5 Q196 529 240 529 Q333 529 379 491 Q425 453 425 358 L425 142 Q425 117 433 107.5 Q441 98 457 98 Q464 98 473.5 100.5 Q483 103 488 104 L489 5 Z M223 79 Q254 79 276.5 101.5 Q299 124 299 164 L299 233 Q274 237 252 237 Q158 237 158 155 Q158 115 176.5 97 Q195 79 223 79 Z M247 592 Q202 592 172.5 621 Q143 650 143 704 Q143 758 172.5 786.5 Q202 815 247 815 Q292 815 321.5 786.5 Q351 758 351 704 Q351 650 321.5 621 Q292 592 247 592 Z M247 645 Q263 645 275.5 659.5 Q288 674 288 704 Q288 734 275.5 748 Q263 762 247 762 Q231 762 219 748 Q207 734 207 704 Q207 674 219 659.5 Q231 645 247 645 Z " />
<glyph glyph-name="atilde" unicode="&#xe3;" horiz-adv-x="501" d="M489 5 Q473 1 449 -2 Q425 -5 406 -5 Q326 -5 314 62 Q298 29 264 10 Q230 -9 180 -9 Q109 -9 68.5 32.5 Q28 74 28 152 Q28 239 81 276 Q134 313 238 313 Q269 313 299 310 L299 352 Q299 397 277 414 Q255 431 214 431 Q156 431 61 397 L52 501 Q94 514 145 521.5 Q196 529 240 529 Q333 529 379 491 Q425 453 425 358 L425 142 Q425 117 433 107.5 Q441 98 457 98 Q464 98 473.5 100.5 Q483 103 488 104 L489 5 Z M223 79 Q254 79 276.5 101.5 Q299 124 299 164 L299 233 Q274 237 252 237 Q158 237 158 155 Q158 115 176.5 97 Q195 79 223 79 Z M303 605 Q285 605 271.5 611 Q258 617 246.5 624 Q235 631 232 633 Q217 643 205.5 648.5 Q194 654 183 654 Q153 654 141 610 L95 632 Q125 737 197 737 Q212 737 224.5 731.5 Q237 726 247.5 719.5 Q258 713 262 710 Q293 688 314 688 Q333 688 342 700 Q351 712 357 732 L402 711 Q375 605 303 605 Z " />
<glyph glyph-name="ae" unicode="&#xe6;" horiz-adv-x="768" d="M735 291 Q735 269 733.5 251.5 Q732 234 731 228 L452 228 Q455 80 572 80 Q642 80 707 114 L715 24 Q680 8 637 -0.5 Q594 -9 556 -9 Q416 -9 369 96 Q353 48 306 19.5 Q259 -9 198 -9 Q117 -9 72.5 31 Q28 71 28 145 Q28 230 82.5 266.5 Q137 303 239 303 L297 303 L297 346 Q297 394 276 412 Q255 430 213 430 Q181 430 140 422 Q99 414 64 402 L57 500 Q100 514 149 521.5 Q198 529 243 529 Q299 529 334.5 507.5 Q370 486 384 434 Q406 480 446.5 504.5 Q487 529 537 529 Q631 529 683 466 Q735 403 735 291 Z M617 302 Q617 437 540 437 Q499 437 476 401 Q453 365 450 302 L617 302 Z M297 229 L242 229 Q203 230 180.5 210 Q158 190 158 151 Q158 112 176.5 93.5 Q195 75 224 75 Q259 75 278 97 Q297 119 297 161 L297 229 Z " />
<glyph glyph-name="aeacute" unicode="&#x1fd;" horiz-adv-x="768" d="M735 291 Q735 269 733.5 251.5 Q732 234 731 228 L452 228 Q455 80 572 80 Q642 80 707 114 L715 24 Q680 8 637 -0.5 Q594 -9 556 -9 Q416 -9 369 96 Q353 48 306 19.5 Q259 -9 198 -9 Q117 -9 72.5 31 Q28 71 28 145 Q28 230 82.5 266.5 Q137 303 239 303 L297 303 L297 346 Q297 394 276 412 Q255 430 213 430 Q181 430 140 422 Q99 414 64 402 L57 500 Q100 514 149 521.5 Q198 529 243 529 Q299 529 334.5 507.5 Q370 486 384 434 Q406 480 446.5 504.5 Q487 529 537 529 Q631 529 683 466 Q735 403 735 291 Z M617 302 Q617 437 540 437 Q499 437 476 401 Q453 365 450 302 L617 302 Z M297 229 L242 229 Q203 230 180.5 210 Q158 190 158 151 Q158 112 176.5 93.5 Q195 75 224 75 Q259 75 278 97 Q297 119 297 161 L297 229 Z M426 600 L334 600 L404 774 L520 774 L426 600 Z " />
<glyph glyph-name="b" unicode="b" horiz-adv-x="535" d="M313 529 Q404 529 451 453 Q498 377 498 260 Q498 143 451 67 Q404 -9 315 -9 Q271 -9 235 10 Q199 29 178 68 L168 0 L58 0 L58 732 L185 732 L185 462 Q205 493 237 511 Q269 529 313 529 Z M278 88 Q321 88 345 133 Q369 178 369 260 Q369 342 345 387 Q321 432 278 432 Q233 432 207 386 Q181 340 181 260 Q181 181 207.5 134.5 Q234 88 278 88 Z " />
<glyph glyph-name="c" unicode="c" horiz-adv-x="435" d="M280 -9 Q172 -9 104 58 Q36 125 36 261 Q36 395 102.5 462 Q169 529 276 529 Q348 529 404 510 L395 407 Q343 432 305 432 Q239 432 203 388 Q167 344 167 260 Q167 175 203.5 131 Q240 87 304 87 Q323 87 341 92 Q359 97 375 103 Q391 109 399 112 L406 11 Q354 -9 280 -9 Z " />
<glyph glyph-name="cacute" unicode="&#x107;" horiz-adv-x="435" d="M280 -9 Q172 -9 104 58 Q36 125 36 261 Q36 395 102.5 462 Q169 529 276 529 Q348 529 404 510 L395 407 Q343 432 305 432 Q239 432 203 388 Q167 344 167 260 Q167 175 203.5 131 Q240 87 304 87 Q323 87 341 92 Q359 97 375 103 Q391 109 399 112 L406 11 Q354 -9 280 -9 Z M292 600 L200 600 L270 774 L386 774 L292 600 Z " />
<glyph glyph-name="ccaron" unicode="&#x10d;" horiz-adv-x="434" d="M280 -9 Q172 -9 104 58 Q36 125 36 261 Q36 395 102.5 462 Q169 529 276 529 Q348 529 404 510 L395 407 Q343 432 305 432 Q239 432 203 388 Q167 344 167 260 Q167 175 203.5 131 Q240 87 304 87 Q323 87 341 92 Q359 97 375 103 Q391 109 399 112 L406 11 Q354 -9 280 -9 Z M421 766 L316 597 L181 597 L75 766 L182 766 L248 637 L316 766 L421 766 Z " />
<glyph glyph-name="ccedilla" unicode="&#xe7;" horiz-adv-x="435" d="M280 -9 Q172 -9 104 58 Q36 125 36 261 Q36 395 102.5 462 Q169 529 276 529 Q348 529 404 510 L395 407 Q343 432 305 432 Q239 432 203 388 Q167 344 167 260 Q167 175 203.5 131 Q240 87 304 87 Q323 87 341 92 Q359 97 375 103 Q391 109 399 112 L406 11 Q354 -9 280 -9 Z M264 -49 Q302 -52 332.5 -72 Q363 -92 363 -137 Q363 -185 327 -207 Q291 -229 236 -229 Q175 -229 144 -217 L149 -158 Q188 -173 223 -173 Q248 -173 265 -163 Q282 -153 282 -130 Q282 -107 260 -94.5 Q238 -82 191 -81 L222 22 L285 22 L264 -49 Z " />
<glyph glyph-name="ccircumflex" unicode="&#x109;" horiz-adv-x="434" d="M280 -9 Q172 -9 104 58 Q36 125 36 261 Q36 395 102.5 462 Q169 529 276 529 Q348 529 404 510 L395 407 Q343 432 305 432 Q239 432 203 388 Q167 344 167 260 Q167 175 203.5 131 Q240 87 304 87 Q323 87 341 92 Q359 97 375 103 Q391 109 399 112 L406 11 Q354 -9 280 -9 Z M310 597 L247 718 L186 597 L78 597 L181 766 L313 766 L416 597 L310 597 Z " />
<glyph glyph-name="cdotaccent" unicode="&#x10b;" horiz-adv-x="435" d="M280 -9 Q172 -9 104 58 Q36 125 36 261 Q36 395 102.5 462 Q169 529 276 529 Q348 529 404 510 L395 407 Q343 432 305 432 Q239 432 203 388 Q167 344 167 260 Q167 175 203.5 131 Q240 87 304 87 Q323 87 341 92 Q359 97 375 103 Q391 109 399 112 L406 11 Q354 -9 280 -9 Z M251 618 Q219 618 201.5 632.5 Q184 647 184 677 Q184 707 201.5 721.5 Q219 736 251 736 Q318 736 318 677 Q318 618 251 618 Z " />
<glyph glyph-name="d" unicode="d" horiz-adv-x="535" d="M476 732 L476 0 L358 0 L354 69 Q332 30 297 10.5 Q262 -9 222 -9 Q130 -9 83 67.5 Q36 144 36 259 Q36 376 84 452.5 Q132 529 223 529 Q309 529 349 457 L349 732 L476 732 Z M259 88 Q301 88 327 134 Q353 180 353 258 Q353 338 327.5 385 Q302 432 260 432 Q215 432 190 386 Q165 340 165 258 Q165 178 190 133 Q215 88 259 88 Z " />
<glyph glyph-name="eth" unicode="&#xf0;" horiz-adv-x="509" d="M310 684 Q470 510 470 278 Q470 -9 254 -9 Q147 -9 91.5 57.5 Q36 124 36 241 Q36 323 62.5 378.5 Q89 434 132.5 461 Q176 488 228 488 Q314 488 353 409 Q344 467 309 529 Q280 581 230 631 L144 573 L120 606 L199 659 Q152 700 89 739 L175 801 Q234 759 282 713 L350 759 L373 726 L310 684 Z M253 87 Q297 87 318.5 129.5 Q340 172 340 242 Q340 310 318.5 351 Q297 392 253 392 Q210 392 187.5 350.5 Q165 309 165 241 Q165 173 187 130 Q209 87 253 87 Z " />
<glyph glyph-name="dcaron" unicode="&#x10f;" horiz-adv-x="556" d="M349 732 L476 732 L476 0 L358 0 L354 69 Q332 30 297 10.5 Q262 -9 222 -9 Q130 -9 83 67.5 Q36 144 36 259 Q36 376 84 452.5 Q132 529 223 529 Q309 529 349 457 L349 732 Z M622 732 Q622 692 617 661 Q612 630 602 592 Q601 586 597 569 L531 569 L531 623 L531 732 L622 732 Z M259 88 Q301 88 327 134 Q353 180 353 258 Q353 338 327.5 385 Q302 432 260 432 Q215 432 190 386 Q165 340 165 258 Q165 178 190 133 Q215 88 259 88 Z " />
<glyph glyph-name="dslash" unicode="&#x111;" horiz-adv-x="525" d="M520 598 L467 598 L467 0 L357 0 L345 79 Q323 34 290.5 12.5 Q258 -9 220 -9 Q130 -9 83 67.5 Q36 144 36 258 Q36 376 83.5 452.5 Q131 529 220 529 Q306 529 340 444 L340 598 L249 598 L249 643 L340 643 L340 732 L467 732 L467 643 L520 643 L520 598 Z M256 88 Q297 88 320 133.5 Q343 179 343 258 Q343 340 320.5 386 Q298 432 256 432 Q214 432 189.5 386 Q165 340 165 258 Q165 179 189.5 133.5 Q214 88 256 88 Z " />
<glyph glyph-name="e" unicode="e" horiz-adv-x="486" d="M454 285 Q454 261 452 241.5 Q450 222 450 220 L167 220 Q172 149 201 116.5 Q230 84 290 84 Q351 84 425 124 L433 24 Q398 9 355 0 Q312 -9 274 -9 Q154 -9 95 61.5 Q36 132 36 258 Q36 387 94.5 458 Q153 529 255 529 Q349 529 401.5 464.5 Q454 400 454 285 Z M334 301 Q334 367 316 402 Q298 437 258 437 Q215 437 193.5 403.5 Q172 370 167 301 L334 301 Z " />
<glyph glyph-name="eacute" unicode="&#xe9;" horiz-adv-x="486" d="M454 285 Q454 261 452 241.5 Q450 222 450 220 L167 220 Q172 149 201 116.5 Q230 84 290 84 Q351 84 425 124 L433 24 Q398 9 355 0 Q312 -9 274 -9 Q154 -9 95 61.5 Q36 132 36 258 Q36 387 94.5 458 Q153 529 255 529 Q349 529 401.5 464.5 Q454 400 454 285 Z M334 301 Q334 367 316 402 Q298 437 258 437 Q215 437 193.5 403.5 Q172 370 167 301 L334 301 Z M295 600 L203 600 L273 774 L389 774 L295 600 Z " />
<glyph glyph-name="ebreve" unicode="&#x115;" horiz-adv-x="486" d="M454 285 Q454 261 452 241.5 Q450 222 450 220 L167 220 Q172 149 201 116.5 Q230 84 290 84 Q351 84 425 124 L433 24 Q398 9 355 0 Q312 -9 274 -9 Q154 -9 95 61.5 Q36 132 36 258 Q36 387 94.5 458 Q153 529 255 529 Q349 529 401.5 464.5 Q454 400 454 285 Z M334 301 Q334 367 316 402 Q298 437 258 437 Q215 437 193.5 403.5 Q172 370 167 301 L334 301 Z M250 602 Q177 602 141 638.5 Q105 675 97 755 L177 765 Q184 716 200.5 692.5 Q217 669 250 669 Q283 669 299 692 Q315 715 323 765 L403 755 Q395 674 359 638 Q323 602 250 602 Z " />
<glyph glyph-name="ecaron" unicode="&#x11b;" horiz-adv-x="486" d="M454 285 Q454 261 452 241.5 Q450 222 450 220 L167 220 Q172 149 201 116.5 Q230 84 290 84 Q351 84 425 124 L433 24 Q398 9 355 0 Q312 -9 274 -9 Q154 -9 95 61.5 Q36 132 36 258 Q36 387 94.5 458 Q153 529 255 529 Q349 529 401.5 464.5 Q454 400 454 285 Z M334 301 Q334 367 316 402 Q298 437 258 437 Q215 437 193.5 403.5 Q172 370 167 301 L334 301 Z M423 766 L318 597 L183 597 L77 766 L184 766 L250 637 L318 766 L423 766 Z " />
<glyph glyph-name="ecircumflex" unicode="&#xea;" horiz-adv-x="486" d="M454 285 Q454 261 452 241.5 Q450 222 450 220 L167 220 Q172 149 201 116.5 Q230 84 290 84 Q351 84 425 124 L433 24 Q398 9 355 0 Q312 -9 274 -9 Q154 -9 95 61.5 Q36 132 36 258 Q36 387 94.5 458 Q153 529 255 529 Q349 529 401.5 464.5 Q454 400 454 285 Z M334 301 Q334 367 316 402 Q298 437 258 437 Q215 437 193.5 403.5 Q172 370 167 301 L334 301 Z M313 597 L250 718 L189 597 L81 597 L184 766 L316 766 L419 597 L313 597 Z " />
<glyph glyph-name="edieresis" unicode="&#xeb;" horiz-adv-x="486" d="M454 285 Q454 261 452 241.5 Q450 222 450 220 L167 220 Q172 149 201 116.5 Q230 84 290 84 Q351 84 425 124 L433 24 Q398 9 355 0 Q312 -9 274 -9 Q154 -9 95 61.5 Q36 132 36 258 Q36 387 94.5 458 Q153 529 255 529 Q349 529 401.5 464.5 Q454 400 454 285 Z M334 301 Q334 367 316 402 Q298 437 258 437 Q215 437 193.5 403.5 Q172 370 167 301 L334 301 Z M152 719 Q185 719 201.5 702.5 Q218 686 218 656 Q218 594 152 594 Q120 594 103 610 Q86 626 86 656 Q86 686 103.5 702.5 Q121 719 152 719 Z M348 719 Q381 719 398 702.5 Q415 686 415 656 Q415 594 348 594 Q317 594 300.5 610 Q284 626 284 656 Q284 686 300.5 702.5 Q317 719 348 719 Z " />
<glyph glyph-name="edotaccent" unicode="&#x117;" horiz-adv-x="486" d="M454 285 Q454 261 452 241.5 Q450 222 450 220 L167 220 Q172 149 201 116.5 Q230 84 290 84 Q351 84 425 124 L433 24 Q398 9 355 0 Q312 -9 274 -9 Q154 -9 95 61.5 Q36 132 36 258 Q36 387 94.5 458 Q153 529 255 529 Q349 529 401.5 464.5 Q454 400 454 285 Z M334 301 Q334 367 316 402 Q298 437 258 437 Q215 437 193.5 403.5 Q172 370 167 301 L334 301 Z M249 618 Q217 618 199.5 632.5 Q182 647 182 677 Q182 707 199.5 721.5 Q217 736 249 736 Q316 736 316 677 Q316 618 249 618 Z " />
<glyph glyph-name="egrave" unicode="&#xe8;" horiz-adv-x="486" d="M454 285 Q454 261 452 241.5 Q450 222 450 220 L167 220 Q172 149 201 116.5 Q230 84 290 84 Q351 84 425 124 L433 24 Q398 9 355 0 Q312 -9 274 -9 Q154 -9 95 61.5 Q36 132 36 258 Q36 387 94.5 458 Q153 529 255 529 Q349 529 401.5 464.5 Q454 400 454 285 Z M334 301 Q334 367 316 402 Q298 437 258 437 Q215 437 193.5 403.5 Q172 370 167 301 L334 301 Z M310 600 L218 600 L131 773 L249 773 L310 600 Z " />
<glyph glyph-name="emacron" unicode="&#x113;" horiz-adv-x="486" d="M454 285 Q454 261 452 241.5 Q450 222 450 220 L167 220 Q172 149 201 116.5 Q230 84 290 84 Q351 84 425 124 L433 24 Q398 9 355 0 Q312 -9 274 -9 Q154 -9 95 61.5 Q36 132 36 258 Q36 387 94.5 458 Q153 529 255 529 Q349 529 401.5 464.5 Q454 400 454 285 Z M334 301 Q334 367 316 402 Q298 437 258 437 Q215 437 193.5 403.5 Q172 370 167 301 L334 301 Z M377 633 L123 633 L123 709 L377 709 L377 633 Z " />
<glyph glyph-name="eogonek" unicode="&#x119;" horiz-adv-x="486" d="M454 285 Q454 261 452 241.5 Q450 222 450 220 L167 220 Q172 149 201 116.5 Q230 84 290 84 Q351 84 425 124 L433 24 Q406 13 385 7 Q318 -17 318 -62 Q318 -81 331 -90.5 Q344 -100 365 -100 Q392 -100 425 -89 L426 -169 Q390 -180 354 -180 Q305 -180 277 -157.5 Q249 -135 249 -91 Q249 -39 286 -9 L274 -9 Q154 -9 95 61.5 Q36 132 36 258 Q36 387 94.5 458 Q153 529 255 529 Q349 529 401.5 464.5 Q454 400 454 285 Z M334 301 Q334 367 316 402 Q298 437 258 437 Q215 437 193.5 403.5 Q172 370 167 301 L334 301 Z " />
<glyph glyph-name="f" unicode="f" horiz-adv-x="347" d="M90 430 L22 430 L22 520 L90 520 L90 576 Q90 666 130.5 703.5 Q171 741 245 741 Q298 741 351 725 L347 631 Q309 648 282 648 Q249 648 232 631 Q215 614 215 576 L215 520 L333 520 L333 430 L215 430 L215 0 L90 0 L90 430 Z " />
<glyph glyph-name="g" unicode="g" horiz-adv-x="509" d="M486 434 L407 439 Q450 408 450 338 Q450 262 397 217.5 Q344 173 249 173 Q203 173 169 183 Q151 168 151 147 Q151 123 173 114.5 Q195 106 241 106 L294 106 Q381 106 423.5 78 Q466 50 466 -19 Q466 -105 405.5 -141.5 Q345 -178 246 -178 Q159 -178 96 -149.5 Q33 -121 33 -52 Q33 7 93 42 Q43 69 43 128 Q43 185 105 213 Q45 259 45 350 Q45 438 100 483.5 Q155 529 252 529 Q290 529 325 520 L486 520 L486 434 Z M248 259 Q284 259 304.5 279.5 Q325 300 325 350 Q325 442 249 442 Q171 442 171 350 Q171 259 248 259 Z M255 13 Q201 13 163 19 Q141 -1 141 -29 Q141 -65 169 -80.5 Q197 -96 252 -96 Q302 -96 327 -83 Q352 -70 352 -34 Q352 -9 336 2 Q320 13 279 13 L255 13 Z " />
<glyph glyph-name="gbreve" unicode="&#x11f;" horiz-adv-x="509" d="M486 434 L407 439 Q450 408 450 338 Q450 262 397 217.5 Q344 173 249 173 Q203 173 169 183 Q151 168 151 147 Q151 123 173 114.5 Q195 106 241 106 L294 106 Q381 106 423.5 78 Q466 50 466 -19 Q466 -105 405.5 -141.5 Q345 -178 246 -178 Q159 -178 96 -149.5 Q33 -121 33 -52 Q33 7 93 42 Q43 69 43 128 Q43 185 105 213 Q45 259 45 350 Q45 438 100 483.5 Q155 529 252 529 Q290 529 325 520 L486 520 L486 434 Z M248 259 Q284 259 304.5 279.5 Q325 300 325 350 Q325 442 249 442 Q171 442 171 350 Q171 259 248 259 Z M255 13 Q201 13 163 19 Q141 -1 141 -29 Q141 -65 169 -80.5 Q197 -96 252 -96 Q302 -96 327 -83 Q352 -70 352 -34 Q352 -9 336 2 Q320 13 279 13 L255 13 Z M252 602 Q179 602 143 638.5 Q107 675 99 755 L179 765 Q186 716 202.5 692.5 Q219 669 252 669 Q285 669 301 692 Q317 715 325 765 L405 755 Q397 674 361 638 Q325 602 252 602 Z " />
<glyph glyph-name="gcircumflex" unicode="&#x11d;" horiz-adv-x="509" d="M486 434 L407 439 Q450 408 450 338 Q450 262 397 217.5 Q344 173 249 173 Q203 173 169 183 Q151 168 151 147 Q151 123 173 114.5 Q195 106 241 106 L294 106 Q381 106 423.5 78 Q466 50 466 -19 Q466 -105 405.5 -141.5 Q345 -178 246 -178 Q159 -178 96 -149.5 Q33 -121 33 -52 Q33 7 93 42 Q43 69 43 128 Q43 185 105 213 Q45 259 45 350 Q45 438 100 483.5 Q155 529 252 529 Q290 529 325 520 L486 520 L486 434 Z M248 259 Q284 259 304.5 279.5 Q325 300 325 350 Q325 442 249 442 Q171 442 171 350 Q171 259 248 259 Z M255 13 Q201 13 163 19 Q141 -1 141 -29 Q141 -65 169 -80.5 Q197 -96 252 -96 Q302 -96 327 -83 Q352 -70 352 -34 Q352 -9 336 2 Q320 13 279 13 L255 13 Z M314 597 L251 718 L190 597 L82 597 L185 766 L317 766 L420 597 L314 597 Z " />
<glyph glyph-name="gcommaaccent" unicode="&#x123;" horiz-adv-x="509" d="M486 434 L407 439 Q450 408 450 338 Q450 262 397 217.5 Q344 173 249 173 Q203 173 169 183 Q151 168 151 147 Q151 123 173 114.5 Q195 106 241 106 L294 106 Q381 106 423.5 78 Q466 50 466 -19 Q466 -105 405.5 -141.5 Q345 -178 246 -178 Q159 -178 96 -149.5 Q33 -121 33 -52 Q33 7 93 42 Q43 69 43 128 Q43 185 105 213 Q45 259 45 350 Q45 438 100 483.5 Q155 529 252 529 Q290 529 325 520 L486 520 L486 434 Z M248 259 Q284 259 304.5 279.5 Q325 300 325 350 Q325 442 249 442 Q171 442 171 350 Q171 259 248 259 Z M255 13 Q201 13 163 19 Q141 -1 141 -29 Q141 -65 169 -80.5 Q197 -96 252 -96 Q302 -96 327 -83 Q352 -70 352 -34 Q352 -9 336 2 Q320 13 279 13 L255 13 Z M208 594 Q208 650 216.5 687.5 Q225 725 240 767 L315 767 Q305 729 299 691 Q293 653 293 594 L208 594 Z " />
<glyph glyph-name="gdotaccent" unicode="&#x121;" horiz-adv-x="509" d="M486 434 L407 439 Q450 408 450 338 Q450 262 397 217.5 Q344 173 249 173 Q203 173 169 183 Q151 168 151 147 Q151 123 173 114.5 Q195 106 241 106 L294 106 Q381 106 423.5 78 Q466 50 466 -19 Q466 -105 405.5 -141.5 Q345 -178 246 -178 Q159 -178 96 -149.5 Q33 -121 33 -52 Q33 7 93 42 Q43 69 43 128 Q43 185 105 213 Q45 259 45 350 Q45 438 100 483.5 Q155 529 252 529 Q290 529 325 520 L486 520 L486 434 Z M248 259 Q284 259 304.5 279.5 Q325 300 325 350 Q325 442 249 442 Q171 442 171 350 Q171 259 248 259 Z M255 13 Q201 13 163 19 Q141 -1 141 -29 Q141 -65 169 -80.5 Q197 -96 252 -96 Q302 -96 327 -83 Q352 -70 352 -34 Q352 -9 336 2 Q320 13 279 13 L255 13 Z M251 618 Q219 618 201.5 632.5 Q184 647 184 677 Q184 707 201.5 721.5 Q219 736 251 736 Q318 736 318 677 Q318 618 251 618 Z " />
<glyph glyph-name="h" unicode="h" horiz-adv-x="520" d="M317 529 Q380 529 422.5 488 Q465 447 465 350 L465 0 L339 0 L339 337 Q339 383 320 407.5 Q301 432 270 432 Q227 432 206 389.5 Q185 347 185 281 L185 0 L58 0 L58 732 L185 732 L185 456 Q236 529 317 529 Z " />
<glyph glyph-name="hbar" unicode="&#x127;" horiz-adv-x="520" d="M318 529 Q380 529 423 488 Q466 447 466 350 L466 0 L339 0 L339 337 Q339 383 319.5 407.5 Q300 432 271 432 Q229 432 207 389.5 Q185 347 185 281 L185 0 L59 0 L59 596 L5 596 L5 646 L59 646 L59 732 L185 732 L185 646 L275 646 L275 596 L185 596 L185 453 Q235 529 318 529 Z " />
<glyph glyph-name="hcircumflex" unicode="&#x125;" horiz-adv-x="516" d="M314 529 Q377 529 419.5 488 Q462 447 462 350 L462 0 L336 0 L336 337 Q336 383 317 407.5 Q298 432 267 432 Q224 432 203 389.5 Q182 347 182 281 L182 0 L55 0 L55 732 L182 732 L182 456 Q233 529 314 529 Z M171 765 L109 852 L51 765 L-59 765 L46 896 L176 896 L280 765 L171 765 Z " />
<glyph glyph-name="i" unicode="i" horiz-adv-x="268" d="M144 593 Q112 593 94 608.5 Q76 624 76 656 Q76 687 94 702.5 Q112 718 144 718 Q214 718 214 656 Q214 593 144 593 Z M82 430 L8 430 L8 520 L209 520 L209 0 L82 0 L82 430 Z " />
<glyph glyph-name="dotlessi" unicode="&#x131;" horiz-adv-x="261" d="M202 0 L76 0 L76 430 L8 430 L8 520 L202 520 L202 0 Z " />
<glyph glyph-name="iacute" unicode="&#xed;" horiz-adv-x="261" d="M202 0 L76 0 L76 430 L8 430 L8 520 L202 520 L202 0 Z M176 600 L84 600 L154 774 L270 774 L176 600 Z " />
<glyph glyph-name="ibreve" unicode="&#x12d;" horiz-adv-x="267" d="M208 0 L82 0 L82 430 L14 430 L14 520 L208 520 L208 0 Z M135 602 Q62 602 26 638.5 Q-10 675 -18 755 L62 765 Q69 716 85.5 692.5 Q102 669 135 669 Q168 669 184 692 Q200 715 208 765 L288 755 Q280 674 244 638 Q208 602 135 602 Z " />
<glyph glyph-name="icircumflex" unicode="&#xee;" horiz-adv-x="261" d="M200 0 L74 0 L74 430 L6 430 L6 520 L200 520 L200 0 Z M191 597 L128 718 L67 597 L-41 597 L62 766 L194 766 L297 597 L191 597 Z " />
<glyph glyph-name="idieresis" unicode="&#xef;" horiz-adv-x="261" d="M202 0 L76 0 L76 430 L8 430 L8 520 L202 520 L202 0 Z M28 719 Q61 719 77.5 702.5 Q94 686 94 656 Q94 594 28 594 Q-4 594 -21 610 Q-38 626 -38 656 Q-38 686 -20.5 702.5 Q-3 719 28 719 Z M224 719 Q257 719 274 702.5 Q291 686 291 656 Q291 594 224 594 Q193 594 176.5 610 Q160 626 160 656 Q160 686 176.5 702.5 Q193 719 224 719 Z " />
<glyph glyph-name="igrave" unicode="&#xec;" horiz-adv-x="261" d="M202 0 L76 0 L76 430 L8 430 L8 520 L202 520 L202 0 Z M191 600 L99 600 L12 773 L130 773 L191 600 Z " />
<glyph glyph-name="imacron" unicode="&#x12b;" horiz-adv-x="264" d="M202 0 L76 0 L76 430 L8 430 L8 520 L202 520 L202 0 Z M248 633 L-6 633 L-6 709 L248 709 L248 633 Z " />
<glyph glyph-name="iogonek" unicode="&#x12f;" horiz-adv-x="268" d="M144 593 Q112 593 94 608.5 Q76 624 76 656 Q76 687 94 702.5 Q112 718 144 718 Q214 718 214 656 Q214 593 144 593 Z M82 430 L8 430 L8 520 L209 520 L209 0 L82 0 L82 430 Z M164 -180 Q115 -180 87 -157.5 Q59 -135 59 -91 Q59 -33 99 -6.5 Q139 20 195 27 L209 0 Q168 -7 148 -22 Q128 -37 128 -62 Q128 -81 141 -90.5 Q154 -100 175 -100 Q202 -100 235 -89 L236 -169 Q201 -180 164 -180 Z " />
<glyph glyph-name="itilde" unicode="&#x129;" horiz-adv-x="275" d="M207 0 L81 0 L81 430 L13 430 L13 520 L207 520 L207 0 Z M192 605 Q174 605 160.5 611 Q147 617 135.5 624 Q124 631 121 633 Q106 643 94.5 648.5 Q83 654 72 654 Q42 654 30 610 L-16 632 Q14 737 86 737 Q101 737 113.5 731.5 Q126 726 136.5 719.5 Q147 713 151 710 Q182 688 203 688 Q222 688 231 700 Q240 712 246 732 L291 711 Q264 605 192 605 Z " />
<glyph glyph-name="j" unicode="j" horiz-adv-x="268" d="M141 593 Q72 593 72 656 Q72 718 141 718 Q174 718 192 702.5 Q210 687 210 656 Q210 624 192 608.5 Q174 593 141 593 Z M56 -173 Q2 -173 -32 -162 L-29 -74 Q-5 -83 23 -83 Q83 -83 83 -25 L83 430 L9 430 L9 520 L209 520 L209 -20 Q209 -101 166.5 -137 Q124 -173 56 -173 Z " />
<glyph glyph-name="jcircumflex" unicode="&#x135;" horiz-adv-x="265" d="M62 597 L-46 597 L57 766 L189 766 L292 597 L186 597 L123 718 L62 597 Z M12 520 L212 520 L212 -20 Q212 -101 169.5 -137 Q127 -173 59 -173 Q5 -173 -29 -162 L-26 -74 Q-2 -83 26 -83 Q86 -83 86 -25 L86 430 L12 430 L12 520 Z " />
<glyph glyph-name="k" unicode="k" horiz-adv-x="485" d="M352 0 L248 235 L183 150 L183 0 L58 0 L58 732 L183 732 L183 295 L347 520 L468 520 L325 331 L476 0 L352 0 Z " />
<glyph glyph-name="kcommaaccent" unicode="&#x137;" horiz-adv-x="485" d="M352 0 L248 235 L183 150 L183 0 L58 0 L58 732 L183 732 L183 295 L347 520 L468 520 L325 331 L476 0 L352 0 Z M275 -74 Q275 -130 266.5 -167.5 Q258 -205 243 -247 L168 -247 Q178 -209 184 -171 Q190 -133 190 -74 L275 -74 Z " />
<glyph glyph-name="kgreenlandic" unicode="&#x138;" horiz-adv-x="487" d="M354 0 L252 236 L185 150 L185 0 L58 0 L58 520 L185 520 L185 294 L348 520 L470 520 L327 331 L479 0 L354 0 Z " />
<glyph glyph-name="l" unicode="l" horiz-adv-x="276" d="M186 126 Q186 104 196 96 Q206 88 223 88 Q232 88 266 96 L267 -1 Q216 -9 179 -9 Q116 -9 87.5 19 Q59 47 59 105 L59 732 L186 732 L186 126 Z " />
<glyph glyph-name="lacute" unicode="&#x13a;" horiz-adv-x="276" d="M186 126 Q186 104 196 96 Q206 88 223 88 Q232 88 266 96 L267 -1 Q216 -9 179 -9 Q116 -9 87.5 19 Q59 47 59 105 L59 732 L186 732 L186 126 Z M165 769 L72 769 L139 899 L256 899 L165 769 Z " />
<glyph glyph-name="lcaron" unicode="&#x13e;" horiz-adv-x="285" d="M186 126 Q186 104 196 96 Q206 88 223 88 Q232 88 266 96 L267 -1 Q216 -9 179 -9 Q116 -9 87.5 19 Q59 47 59 105 L59 732 L186 732 L186 126 Z M336 732 Q336 691 331 660.5 Q326 630 320 604 Q314 578 312 569 L246 569 L246 623 L246 732 L336 732 Z " />
<glyph glyph-name="lcommaaccent" unicode="&#x13c;" horiz-adv-x="276" d="M186 126 Q186 104 196 96 Q206 88 223 88 Q232 88 266 96 L267 -1 Q216 -9 179 -9 Q116 -9 87.5 19 Q59 47 59 105 L59 732 L186 732 L186 126 Z M189 -74 Q189 -130 180.5 -167.5 Q172 -205 157 -247 L82 -247 Q92 -209 98 -171 Q104 -133 104 -74 L189 -74 Z " />
<glyph glyph-name="lslash" unicode="&#x142;" horiz-adv-x="327" d="M214 341 L214 126 Q214 104 224 96 Q234 88 251 88 Q260 88 294 96 L295 -1 Q244 -9 207 -9 Q144 -9 115.5 19 Q87 47 87 105 L87 256 L22 213 L22 279 L87 322 L87 732 L214 732 L214 406 L311 470 L311 406 L214 341 Z " />
<glyph glyph-name="m" unicode="m" horiz-adv-x="766" d="M569 529 Q632 529 672 485.5 Q712 442 712 343 L712 0 L585 0 L585 325 Q585 432 522 432 Q483 432 465.5 396.5 Q448 361 448 308 L448 0 L322 0 L322 328 Q322 376 306.5 404 Q291 432 259 432 Q222 432 203.5 398 Q185 364 185 310 L185 0 L58 0 L58 520 L168 520 L174 449 Q192 485 225 507 Q258 529 302 529 Q396 529 430 441 Q478 529 569 529 Z " />
<glyph glyph-name="n" unicode="n" horiz-adv-x="520" d="M317 529 Q380 529 422.5 488 Q465 447 465 350 L465 0 L339 0 L339 337 Q339 383 321 407.5 Q303 432 272 432 Q228 432 206.5 391 Q185 350 185 281 L185 0 L58 0 L58 520 L169 520 L176 444 Q227 529 317 529 Z " />
<glyph glyph-name="nacute" unicode="&#x144;" horiz-adv-x="520" d="M317 529 Q380 529 422.5 488 Q465 447 465 350 L465 0 L339 0 L339 337 Q339 383 321 407.5 Q303 432 272 432 Q228 432 206.5 391 Q185 350 185 281 L185 0 L58 0 L58 520 L169 520 L176 444 Q227 529 317 529 Z M297 600 L205 600 L275 774 L391 774 L297 600 Z " />
<glyph glyph-name="ncaron" unicode="&#x148;" horiz-adv-x="520" d="M317 529 Q380 529 422.5 488 Q465 447 465 350 L465 0 L339 0 L339 337 Q339 383 321 407.5 Q303 432 272 432 Q228 432 206.5 391 Q185 350 185 281 L185 0 L58 0 L58 520 L169 520 L176 444 Q227 529 317 529 Z M425 766 L320 597 L185 597 L79 766 L186 766 L252 637 L320 766 L425 766 Z " />
<glyph glyph-name="ncommaaccent" unicode="&#x146;" horiz-adv-x="520" d="M317 529 Q380 529 422.5 488 Q465 447 465 350 L465 0 L339 0 L339 337 Q339 383 321 407.5 Q303 432 272 432 Q228 432 206.5 391 Q185 350 185 281 L185 0 L58 0 L58 520 L169 520 L176 444 Q227 529 317 529 Z M299 -74 Q299 -130 290.5 -167.5 Q282 -205 267 -247 L192 -247 Q202 -209 208 -171 Q214 -133 214 -74 L299 -74 Z " />
<glyph glyph-name="eng" unicode="&#x14b;" horiz-adv-x="520" d="M320 529 Q380 529 422.5 487.5 Q465 446 465 350 L465 8 Q465 -84 415.5 -129 Q366 -174 285 -191 L245 -99 Q283 -94 311 -75 Q339 -56 339 -18 L339 337 Q339 383 319.5 407.5 Q300 432 269 432 Q228 432 206.5 390.5 Q185 349 185 281 L185 0 L58 0 L58 520 L169 520 L177 442 Q226 529 320 529 Z " />
<glyph glyph-name="ntilde" unicode="&#xf1;" horiz-adv-x="520" d="M317 529 Q380 529 422.5 488 Q465 447 465 350 L465 0 L339 0 L339 337 Q339 383 321 407.5 Q303 432 272 432 Q228 432 206.5 391 Q185 350 185 281 L185 0 L58 0 L58 520 L169 520 L176 444 Q227 529 317 529 Z M308 605 Q290 605 276.5 611 Q263 617 251.5 624 Q240 631 237 633 Q222 643 210.5 648.5 Q199 654 188 654 Q158 654 146 610 L100 632 Q130 737 202 737 Q217 737 229.5 731.5 Q242 726 252.5 719.5 Q263 713 267 710 Q298 688 319 688 Q338 688 347 700 Q356 712 362 732 L407 711 Q380 605 308 605 Z " />
<glyph glyph-name="o" unicode="o" horiz-adv-x="516" d="M258 -9 Q153 -9 94.5 59 Q36 127 36 261 Q36 394 94.5 461.5 Q153 529 258 529 Q363 529 421.5 461.5 Q480 394 480 261 Q480 127 421.5 59 Q363 -9 258 -9 Z M258 88 Q304 88 327.5 133 Q351 178 351 261 Q351 343 327.5 387.5 Q304 432 258 432 Q212 432 188.5 387.5 Q165 343 165 261 Q165 178 188.5 133 Q212 88 258 88 Z " />
<glyph glyph-name="oacute" unicode="&#xf3;" horiz-adv-x="516" d="M258 -9 Q153 -9 94.5 59 Q36 127 36 261 Q36 394 94.5 461.5 Q153 529 258 529 Q363 529 421.5 461.5 Q480 394 480 261 Q480 127 421.5 59 Q363 -9 258 -9 Z M258 88 Q304 88 327.5 133 Q351 178 351 261 Q351 343 327.5 387.5 Q304 432 258 432 Q212 432 188.5 387.5 Q165 343 165 261 Q165 178 188.5 133 Q212 88 258 88 Z M256 600 L164 600 L234 774 L350 774 L256 600 Z " />
<glyph glyph-name="obreve" unicode="&#x14f;" horiz-adv-x="516" d="M258 -9 Q153 -9 94.5 59 Q36 127 36 261 Q36 394 94.5 461.5 Q153 529 258 529 Q363 529 421.5 461.5 Q480 394 480 261 Q480 127 421.5 59 Q363 -9 258 -9 Z M258 88 Q304 88 327.5 133 Q351 178 351 261 Q351 343 327.5 387.5 Q304 432 258 432 Q212 432 188.5 387.5 Q165 343 165 261 Q165 178 188.5 133 Q212 88 258 88 Z M257 602 Q184 602 148 638.5 Q112 675 104 755 L184 765 Q191 716 207.5 692.5 Q224 669 257 669 Q290 669 306 692 Q322 715 330 765 L410 755 Q402 674 366 638 Q330 602 257 602 Z " />
<glyph glyph-name="ocircumflex" unicode="&#xf4;" horiz-adv-x="516" d="M258 -9 Q153 -9 94.5 59 Q36 127 36 261 Q36 394 94.5 461.5 Q153 529 258 529 Q363 529 421.5 461.5 Q480 394 480 261 Q480 127 421.5 59 Q363 -9 258 -9 Z M258 88 Q304 88 327.5 133 Q351 178 351 261 Q351 343 327.5 387.5 Q304 432 258 432 Q212 432 188.5 387.5 Q165 343 165 261 Q165 178 188.5 133 Q212 88 258 88 Z M319 597 L256 718 L195 597 L87 597 L190 766 L322 766 L425 597 L319 597 Z " />
<glyph glyph-name="odieresis" unicode="&#xf6;" horiz-adv-x="516" d="M258 -9 Q153 -9 94.5 59 Q36 127 36 261 Q36 394 94.5 461.5 Q153 529 258 529 Q363 529 421.5 461.5 Q480 394 480 261 Q480 127 421.5 59 Q363 -9 258 -9 Z M258 88 Q304 88 327.5 133 Q351 178 351 261 Q351 343 327.5 387.5 Q304 432 258 432 Q212 432 188.5 387.5 Q165 343 165 261 Q165 178 188.5 133 Q212 88 258 88 Z M158 719 Q191 719 207.5 702.5 Q224 686 224 656 Q224 594 158 594 Q126 594 109 610 Q92 626 92 656 Q92 686 109.5 702.5 Q127 719 158 719 Z M354 719 Q387 719 404 702.5 Q421 686 421 656 Q421 594 354 594 Q323 594 306.5 610 Q290 626 290 656 Q290 686 306.5 702.5 Q323 719 354 719 Z " />
<glyph glyph-name="ograve" unicode="&#xf2;" horiz-adv-x="516" d="M258 -9 Q153 -9 94.5 59 Q36 127 36 261 Q36 394 94.5 461.5 Q153 529 258 529 Q363 529 421.5 461.5 Q480 394 480 261 Q480 127 421.5 59 Q363 -9 258 -9 Z M258 88 Q304 88 327.5 133 Q351 178 351 261 Q351 343 327.5 387.5 Q304 432 258 432 Q212 432 188.5 387.5 Q165 343 165 261 Q165 178 188.5 133 Q212 88 258 88 Z M317 600 L225 600 L138 773 L256 773 L317 600 Z " />
<glyph glyph-name="ohungarumlaut" unicode="&#x151;" horiz-adv-x="516" d="M258 -9 Q153 -9 94.5 59 Q36 127 36 261 Q36 394 94.5 461.5 Q153 529 258 529 Q363 529 421.5 461.5 Q480 394 480 261 Q480 127 421.5 59 Q363 -9 258 -9 Z M258 88 Q304 88 327.5 133 Q351 178 351 261 Q351 343 327.5 387.5 Q304 432 258 432 Q212 432 188.5 387.5 Q165 343 165 261 Q165 178 188.5 133 Q212 88 258 88 Z M213 600 L120 600 L188 774 L305 774 L213 600 Z M370 600 L277 600 L345 774 L462 774 L370 600 Z " />
<glyph glyph-name="omacron" unicode="&#x14d;" horiz-adv-x="516" d="M258 -9 Q153 -9 94.5 59 Q36 127 36 261 Q36 394 94.5 461.5 Q153 529 258 529 Q363 529 421.5 461.5 Q480 394 480 261 Q480 127 421.5 59 Q363 -9 258 -9 Z M258 88 Q304 88 327.5 133 Q351 178 351 261 Q351 343 327.5 387.5 Q304 432 258 432 Q212 432 188.5 387.5 Q165 343 165 261 Q165 178 188.5 133 Q212 88 258 88 Z M384 633 L130 633 L130 709 L384 709 L384 633 Z " />
<glyph glyph-name="oslash" unicode="&#xf8;" horiz-adv-x="516" d="M258 -9 Q153 -9 94.5 59 Q36 127 36 261 Q36 394 94.5 461.5 Q153 529 258 529 Q363 529 421.5 461.5 Q480 394 480 261 Q480 127 421.5 59 Q363 -9 258 -9 Z M258 88 Q304 88 327.5 133 Q351 178 351 261 Q351 343 327.5 387.5 Q304 432 258 432 Q212 432 188.5 387.5 Q165 343 165 261 Q165 178 188.5 133 Q212 88 258 88 Z M262 256 L252 256 L257 264 L268 264 L262 256 Z " />
<glyph glyph-name="oslashacute" unicode="&#x1ff;" horiz-adv-x="516" d="M256 600 L164 600 L234 774 L350 774 L256 600 Z M397 485 Q480 418 480 261 Q480 127 421.5 59 Q363 -9 258 -9 Q198 -9 153 13 L129 -34 L82 -34 L118 36 Q78 69 57 125.5 Q36 182 36 261 Q36 394 94.5 461.5 Q153 529 258 529 Q319 529 363 507 L387 554 L433 554 L397 485 Z M165 261 Q165 196 180 154 L312 409 Q291 432 258 432 Q212 432 188.5 387.5 Q165 343 165 261 Z M258 88 Q304 88 327.5 133 Q351 178 351 261 Q351 325 336 367 L204 111 Q225 88 258 88 Z " />
<glyph glyph-name="otilde" unicode="&#xf5;" horiz-adv-x="516" d="M258 -9 Q153 -9 94.5 59 Q36 127 36 261 Q36 394 94.5 461.5 Q153 529 258 529 Q363 529 421.5 461.5 Q480 394 480 261 Q480 127 421.5 59 Q363 -9 258 -9 Z M258 88 Q304 88 327.5 133 Q351 178 351 261 Q351 343 327.5 387.5 Q304 432 258 432 Q212 432 188.5 387.5 Q165 343 165 261 Q165 178 188.5 133 Q212 88 258 88 Z M313 605 Q295 605 281.5 611 Q268 617 256.5 624 Q245 631 242 633 Q227 643 215.5 648.5 Q204 654 193 654 Q163 654 151 610 L105 632 Q135 737 207 737 Q222 737 234.5 731.5 Q247 726 257.5 719.5 Q268 713 272 710 Q303 688 324 688 Q343 688 352 700 Q361 712 367 732 L412 711 Q385 605 313 605 Z " />
<glyph glyph-name="oe" unicode="&#x153;" horiz-adv-x="811" d="M778 285 Q778 260 776 241 Q774 222 774 221 L493 221 Q499 84 614 84 Q650 84 685 93 Q720 102 750 118 L757 23 Q723 8 680 -0.5 Q637 -9 599 -9 Q482 -9 422 60 Q364 -9 258 -9 Q153 -9 94.5 59 Q36 127 36 261 Q36 394 94.5 461.5 Q153 529 258 529 Q365 529 423 460 Q480 529 579 529 Q672 529 725 464 Q778 399 778 285 Z M258 87 Q304 87 327.5 132.5 Q351 178 351 261 Q351 343 327.5 388 Q304 433 258 433 Q212 433 188.5 388 Q165 343 165 261 Q165 178 188.5 132.5 Q212 87 258 87 Z M659 301 Q659 361 640 396.5 Q621 432 582 432 Q541 432 518.5 397.5 Q496 363 493 301 L659 301 Z " />
<glyph glyph-name="p" unicode="p" horiz-adv-x="534" d="M312 529 Q404 529 451 452.5 Q498 376 498 261 Q498 144 450 67.5 Q402 -9 311 -9 Q224 -9 185 63 L185 -170 L58 -170 L58 520 L172 520 L180 450 Q202 490 237.5 509.5 Q273 529 312 529 Z M274 88 Q319 88 344 134 Q369 180 369 262 Q369 341 344 386.5 Q319 432 275 432 Q233 432 207 386 Q181 340 181 262 Q181 182 206 135 Q231 88 274 88 Z " />
<glyph glyph-name="thorn" unicode="&#xfe;" horiz-adv-x="534" d="M312 529 Q403 529 450.5 452 Q498 375 498 261 Q498 143 450 67 Q402 -9 310 -9 Q226 -9 185 62 L185 -170 L58 -170 L58 723 L185 723 L185 458 Q207 494 241 511.5 Q275 529 312 529 Z M274 88 Q319 88 343.5 133.5 Q368 179 368 262 Q368 342 343 387 Q318 432 275 432 Q233 432 207.5 386 Q182 340 182 261 Q182 181 206.5 134.5 Q231 88 274 88 Z " />
<glyph glyph-name="q" unicode="q" horiz-adv-x="534" d="M476 520 L476 -170 L348 -170 L348 62 Q309 -9 223 -9 Q131 -9 83.5 67.5 Q36 144 36 261 Q36 376 83 452.5 Q130 529 221 529 Q261 529 296.5 509.5 Q332 490 354 450 L362 520 L476 520 Z M259 88 Q302 88 327.5 135 Q353 182 353 262 Q353 340 327 386 Q301 432 259 432 Q215 432 190 387 Q165 342 165 262 Q165 179 189.5 133.5 Q214 88 259 88 Z " />
<glyph glyph-name="r" unicode="r" horiz-adv-x="336" d="M270 527 Q296 527 316 522 L313 401 Q289 405 273 405 Q224 405 204.5 370.5 Q185 336 185 269 L185 0 L58 0 L58 520 L166 520 L172 443 Q184 482 210 504.5 Q236 527 270 527 Z " />
<glyph glyph-name="racute" unicode="&#x155;" horiz-adv-x="336" d="M270 527 Q296 527 316 522 L313 401 Q289 405 273 405 Q224 405 204.5 370.5 Q185 336 185 269 L185 0 L58 0 L58 520 L166 520 L172 443 Q184 482 210 504.5 Q236 527 270 527 Z M222 600 L130 600 L200 774 L316 774 L222 600 Z " />
<glyph glyph-name="rcaron" unicode="&#x159;" horiz-adv-x="336" d="M270 527 Q296 527 316 522 L313 401 Q289 405 273 405 Q224 405 204.5 370.5 Q185 336 185 269 L185 0 L58 0 L58 520 L166 520 L172 443 Q184 482 210 504.5 Q236 527 270 527 Z M349 766 L244 597 L109 597 L3 766 L110 766 L176 637 L244 766 L349 766 Z " />
<glyph glyph-name="rcommaaccent" unicode="&#x157;" horiz-adv-x="336" d="M270 527 Q296 527 316 522 L313 401 Q289 405 273 405 Q224 405 204.5 370.5 Q185 336 185 269 L185 0 L58 0 L58 520 L166 520 L172 443 Q184 482 210 504.5 Q236 527 270 527 Z M166 -74 Q166 -130 157.5 -167.5 Q149 -205 134 -247 L59 -247 Q69 -209 75 -171 Q81 -133 81 -74 L166 -74 Z " />
<glyph glyph-name="s" unicode="s" horiz-adv-x="425" d="M209 -7 Q163 -7 115 4 Q67 15 31 32 L42 131 Q73 113 114.5 97 Q156 81 195 81 Q231 81 250.5 97 Q270 113 270 141 Q270 167 250.5 181 Q231 195 189 210 L168 218 Q108 242 74 276 Q40 310 40 376 Q40 454 90.5 491.5 Q141 529 220 529 Q260 529 303.5 521 Q347 513 380 498 L369 400 Q340 415 300 428 Q260 441 233 441 Q198 441 180 425.5 Q162 410 162 382 Q162 356 182.5 341.5 Q203 327 245 311 L268 302 Q332 275 363 243.5 Q394 212 394 152 Q394 69 340.5 31 Q287 -7 209 -7 Z " />
<glyph glyph-name="sacute" unicode="&#x15b;" horiz-adv-x="425" d="M209 -7 Q163 -7 115 4 Q67 15 31 32 L42 131 Q73 113 114.5 97 Q156 81 195 81 Q231 81 250.5 97 Q270 113 270 141 Q270 167 250.5 181 Q231 195 189 210 L168 218 Q108 242 74 276 Q40 310 40 376 Q40 454 90.5 491.5 Q141 529 220 529 Q260 529 303.5 521 Q347 513 380 498 L369 400 Q340 415 300 428 Q260 441 233 441 Q198 441 180 425.5 Q162 410 162 382 Q162 356 182.5 341.5 Q203 327 245 311 L268 302 Q332 275 363 243.5 Q394 212 394 152 Q394 69 340.5 31 Q287 -7 209 -7 Z M255 600 L163 600 L233 774 L349 774 L255 600 Z " />
<glyph glyph-name="scaron" unicode="&#x161;" horiz-adv-x="425" d="M209 -7 Q163 -7 115 4 Q67 15 31 32 L42 131 Q73 113 114.5 97 Q156 81 195 81 Q231 81 250.5 97 Q270 113 270 141 Q270 167 250.5 181 Q231 195 189 210 L168 218 Q108 242 74 276 Q40 310 40 376 Q40 454 90.5 491.5 Q141 529 220 529 Q260 529 303.5 521 Q347 513 380 498 L369 400 Q340 415 300 428 Q260 441 233 441 Q198 441 180 425.5 Q162 410 162 382 Q162 356 182.5 341.5 Q203 327 245 311 L268 302 Q332 275 363 243.5 Q394 212 394 152 Q394 69 340.5 31 Q287 -7 209 -7 Z M383 766 L278 597 L143 597 L37 766 L144 766 L210 637 L278 766 L383 766 Z " />
<glyph glyph-name="scedilla" unicode="&#x15f;" horiz-adv-x="425" d="M209 -7 Q163 -7 115 4 Q67 15 31 32 L42 131 Q73 113 114.5 97 Q156 81 195 81 Q231 81 250.5 97 Q270 113 270 141 Q270 167 250.5 181 Q231 195 189 210 L168 218 Q108 242 74 276 Q40 310 40 376 Q40 454 90.5 491.5 Q141 529 220 529 Q260 529 303.5 521 Q347 513 380 498 L369 400 Q340 415 300 428 Q260 441 233 441 Q198 441 180 425.5 Q162 410 162 382 Q162 356 182.5 341.5 Q203 327 245 311 L268 302 Q332 275 363 243.5 Q394 212 394 152 Q394 69 340.5 31 Q287 -7 209 -7 Z M226 -49 Q264 -52 294.5 -72 Q325 -92 325 -137 Q325 -185 289 -207 Q253 -229 198 -229 Q137 -229 106 -217 L111 -158 Q150 -173 185 -173 Q210 -173 227 -163 Q244 -153 244 -130 Q244 -107 222 -94.5 Q200 -82 153 -81 L184 22 L247 22 L226 -49 Z " />
<glyph glyph-name="scircumflex" unicode="&#x15d;" horiz-adv-x="425" d="M209 -7 Q163 -7 115 4 Q67 15 31 32 L42 131 Q73 113 114.5 97 Q156 81 195 81 Q231 81 250.5 97 Q270 113 270 141 Q270 167 250.5 181 Q231 195 189 210 L168 218 Q108 242 74 276 Q40 310 40 376 Q40 454 90.5 491.5 Q141 529 220 529 Q260 529 303.5 521 Q347 513 380 498 L369 400 Q340 415 300 428 Q260 441 233 441 Q198 441 180 425.5 Q162 410 162 382 Q162 356 182.5 341.5 Q203 327 245 311 L268 302 Q332 275 363 243.5 Q394 212 394 152 Q394 69 340.5 31 Q287 -7 209 -7 Z M272 597 L209 718 L148 597 L40 597 L143 766 L275 766 L378 597 L272 597 Z " />
<glyph glyph-name="scommaaccent" unicode="&#x219;" horiz-adv-x="425" d="M209 -7 Q163 -7 115 4 Q67 15 31 32 L42 131 Q73 113 114.5 97 Q156 81 195 81 Q231 81 250.5 97 Q270 113 270 141 Q270 167 250.5 181 Q231 195 189 210 L168 218 Q108 242 74 276 Q40 310 40 376 Q40 454 90.5 491.5 Q141 529 220 529 Q260 529 303.5 521 Q347 513 380 498 L369 400 Q340 415 300 428 Q260 441 233 441 Q198 441 180 425.5 Q162 410 162 382 Q162 356 182.5 341.5 Q203 327 245 311 L268 302 Q332 275 363 243.5 Q394 212 394 152 Q394 69 340.5 31 Q287 -7 209 -7 Z M257 -74 Q257 -130 248.5 -167.5 Q240 -205 225 -247 L150 -247 Q160 -209 166 -171 Q172 -133 172 -74 L257 -74 Z " />
<glyph glyph-name="germandbls" unicode="&#xdf;" horiz-adv-x="569" d="M387 -9 Q327 -9 262 10 L268 112 Q275 109 296 100 Q317 91 335 86 Q353 81 368 81 Q439 81 439 146 Q439 183 423 202 Q407 221 374 242 Q339 264 322 285.5 Q305 307 305 348 Q305 382 315.5 407 Q326 432 347 465 Q363 490 371 507.5 Q379 525 379 545 Q379 581 356.5 599 Q334 617 298 617 Q257 617 233 593 Q209 569 209 521 L209 0 L82 0 L82 430 L9 430 L8 520 L82 520 Q82 610 135.5 661 Q189 712 291 712 Q379 712 437 675 Q495 638 495 568 Q495 529 484 504.5 Q473 480 452 452 Q434 427 426 410 Q418 393 418 368 Q418 341 432 324.5 Q446 308 476 287 Q503 268 520.5 251 Q538 234 550.5 205.5 Q563 177 563 135 Q563 74 518 32.5 Q473 -9 387 -9 Z " />
<glyph glyph-name="t" unicode="t" horiz-adv-x="356" d="M237 -8 Q167 -8 128.5 24.5 Q90 57 90 145 L90 430 L20 430 L20 520 L90 520 L103 670 L217 670 L217 520 L330 520 L330 430 L217 430 L217 166 Q217 123 230 107.5 Q243 92 273 92 Q285 92 301 96.5 Q317 101 334 107 L338 6 Q290 -8 237 -8 Z " />
<glyph glyph-name="tbar" unicode="&#x167;" horiz-adv-x="356" d="M338 6 Q290 -8 237 -8 Q167 -8 128.5 24.5 Q90 57 90 145 L90 292 L22 292 L22 337 L90 337 L90 430 L20 430 L20 520 L90 520 L103 670 L217 670 L217 520 L330 520 L330 430 L217 430 L217 337 L329 337 L329 292 L217 292 L217 166 Q217 123 230 107.5 Q243 92 273 92 Q285 92 301 96.5 Q317 101 334 107 L338 6 Z " />
<glyph glyph-name="tcaron" unicode="&#x165;" horiz-adv-x="356" d="M359 732 Q359 692 354 661 Q349 630 339 592 Q338 586 334 569 L268 569 L268 623 L268 732 L359 732 Z M237 -8 Q167 -8 128.5 24.5 Q90 57 90 145 L90 430 L20 430 L20 520 L90 520 L103 670 L217 670 L217 520 L330 520 L330 430 L217 430 L217 166 Q217 123 230 107.5 Q243 92 273 92 Q285 92 301 96.5 Q317 101 334 107 L338 6 Q290 -8 237 -8 Z " />
<glyph glyph-name="uni0163" unicode="&#x163;" horiz-adv-x="356" d="M237 -8 Q167 -8 128.5 24.5 Q90 57 90 145 L90 430 L20 430 L20 520 L90 520 L103 670 L217 670 L217 520 L330 520 L330 430 L217 430 L217 166 Q217 123 230 107.5 Q243 92 273 92 Q285 92 301 96.5 Q317 101 334 107 L338 6 Q290 -8 237 -8 Z M256 -74 Q256 -130 247.5 -167.5 Q239 -205 224 -247 L149 -247 Q159 -209 165 -171 Q171 -133 171 -74 L256 -74 Z " />
<glyph glyph-name="uni021B" unicode="&#x21b;" horiz-adv-x="356" d="M237 -8 Q167 -8 128.5 24.5 Q90 57 90 145 L90 430 L20 430 L20 520 L90 520 L103 670 L217 670 L217 520 L330 520 L330 430 L217 430 L217 166 Q217 123 230 107.5 Q243 92 273 92 Q285 92 301 96.5 Q317 101 334 107 L338 6 Q290 -8 237 -8 Z M256 -74 Q256 -130 247.5 -167.5 Q239 -205 224 -247 L149 -247 Q159 -209 165 -171 Q171 -133 171 -74 L256 -74 Z " />
<glyph glyph-name="u" unicode="u" horiz-adv-x="520" d="M461 520 L461 0 L350 0 L343 76 Q291 -9 202 -9 Q140 -9 97 32 Q54 73 54 170 L54 520 L181 520 L181 183 Q181 134 200 111 Q219 88 248 88 Q291 88 313 130 Q335 172 335 239 L335 520 L461 520 Z " />
<glyph glyph-name="uacute" unicode="&#xfa;" horiz-adv-x="520" d="M461 520 L461 0 L350 0 L343 76 Q291 -9 202 -9 Q140 -9 97 32 Q54 73 54 170 L54 520 L181 520 L181 183 Q181 134 200 111 Q219 88 248 88 Q291 88 313 130 Q335 172 335 239 L335 520 L461 520 Z M303 600 L211 600 L281 774 L397 774 L303 600 Z " />
<glyph glyph-name="ubreve" unicode="&#x16d;" horiz-adv-x="520" d="M461 520 L461 0 L350 0 L343 76 Q291 -9 202 -9 Q140 -9 97 32 Q54 73 54 170 L54 520 L181 520 L181 183 Q181 134 200 111 Q219 88 248 88 Q291 88 313 130 Q335 172 335 239 L335 520 L461 520 Z M258 602 Q185 602 149 638.5 Q113 675 105 755 L185 765 Q192 716 208.5 692.5 Q225 669 258 669 Q291 669 307 692 Q323 715 331 765 L411 755 Q403 674 367 638 Q331 602 258 602 Z " />
<glyph glyph-name="ucircumflex" unicode="&#xfb;" horiz-adv-x="520" d="M461 520 L461 0 L350 0 L343 76 Q291 -9 202 -9 Q140 -9 97 32 Q54 73 54 170 L54 520 L181 520 L181 183 Q181 134 200 111 Q219 88 248 88 Q291 88 313 130 Q335 172 335 239 L335 520 L461 520 Z M321 597 L258 718 L197 597 L89 597 L192 766 L324 766 L427 597 L321 597 Z " />
<glyph glyph-name="udieresis" unicode="&#xfc;" horiz-adv-x="520" d="M461 520 L461 0 L350 0 L343 76 Q291 -9 202 -9 Q140 -9 97 32 Q54 73 54 170 L54 520 L181 520 L181 183 Q181 134 200 111 Q219 88 248 88 Q291 88 313 130 Q335 172 335 239 L335 520 L461 520 Z M160 719 Q193 719 209.5 702.5 Q226 686 226 656 Q226 594 160 594 Q128 594 111 610 Q94 626 94 656 Q94 686 111.5 702.5 Q129 719 160 719 Z M356 719 Q389 719 406 702.5 Q423 686 423 656 Q423 594 356 594 Q325 594 308.5 610 Q292 626 292 656 Q292 686 308.5 702.5 Q325 719 356 719 Z " />
<glyph glyph-name="ugrave" unicode="&#xf9;" horiz-adv-x="520" d="M461 520 L461 0 L350 0 L343 76 Q291 -9 202 -9 Q140 -9 97 32 Q54 73 54 170 L54 520 L181 520 L181 183 Q181 134 200 111 Q219 88 248 88 Q291 88 313 130 Q335 172 335 239 L335 520 L461 520 Z M318 600 L226 600 L139 773 L257 773 L318 600 Z " />
<glyph glyph-name="uhungarumlaut" unicode="&#x171;" horiz-adv-x="520" d="M461 520 L461 0 L350 0 L343 76 Q291 -9 202 -9 Q140 -9 97 32 Q54 73 54 170 L54 520 L181 520 L181 183 Q181 134 200 111 Q219 88 248 88 Q291 88 313 130 Q335 172 335 239 L335 520 L461 520 Z M214 600 L121 600 L189 774 L306 774 L214 600 Z M371 600 L278 600 L346 774 L463 774 L371 600 Z " />
<glyph glyph-name="umacron" unicode="&#x16b;" horiz-adv-x="520" d="M461 520 L461 0 L350 0 L343 76 Q291 -9 202 -9 Q140 -9 97 32 Q54 73 54 170 L54 520 L181 520 L181 183 Q181 134 200 111 Q219 88 248 88 Q291 88 313 130 Q335 172 335 239 L335 520 L461 520 Z M386 633 L132 633 L132 709 L386 709 L386 633 Z " />
<glyph glyph-name="uogonek" unicode="&#x173;" horiz-adv-x="520" d="M461 520 L461 0 L350 0 L343 76 Q291 -9 202 -9 Q140 -9 97 32 Q54 73 54 170 L54 520 L181 520 L181 183 Q181 134 200 111 Q219 88 248 88 Q291 88 313 130 Q335 172 335 239 L335 520 L461 520 Z M416 -180 Q367 -180 339 -157.5 Q311 -135 311 -91 Q311 -33 351 -6.5 Q391 20 447 27 L461 0 Q420 -7 400 -22 Q380 -37 380 -62 Q380 -81 393 -90.5 Q406 -100 427 -100 Q454 -100 487 -89 L488 -169 Q453 -180 416 -180 Z " />
<glyph glyph-name="uring" unicode="&#x16f;" horiz-adv-x="520" d="M461 520 L461 0 L350 0 L343 76 Q291 -9 202 -9 Q140 -9 97 32 Q54 73 54 170 L54 520 L181 520 L181 183 Q181 134 200 111 Q219 88 248 88 Q291 88 313 130 Q335 172 335 239 L335 520 L461 520 Z M258 592 Q213 592 183.5 621 Q154 650 154 704 Q154 758 183.5 786.5 Q213 815 258 815 Q303 815 332.5 786.5 Q362 758 362 704 Q362 650 332.5 621 Q303 592 258 592 Z M258 645 Q274 645 286.5 659.5 Q299 674 299 704 Q299 734 286.5 748 Q274 762 258 762 Q242 762 230 748 Q218 734 218 704 Q218 674 230 659.5 Q242 645 258 645 Z " />
<glyph glyph-name="utilde" unicode="&#x169;" horiz-adv-x="520" d="M461 520 L461 0 L350 0 L343 76 Q291 -9 202 -9 Q140 -9 97 32 Q54 73 54 170 L54 520 L181 520 L181 183 Q181 134 200 111 Q219 88 248 88 Q291 88 313 130 Q335 172 335 239 L335 520 L461 520 Z M314 605 Q296 605 282.5 611 Q269 617 257.5 624 Q246 631 243 633 Q228 643 216.5 648.5 Q205 654 194 654 Q164 654 152 610 L106 632 Q136 737 208 737 Q223 737 235.5 731.5 Q248 726 258.5 719.5 Q269 713 273 710 Q304 688 325 688 Q344 688 353 700 Q362 712 368 732 L413 711 Q386 605 314 605 Z " />
<glyph glyph-name="v" unicode="v" horiz-adv-x="458" d="M452 520 L309 0 L154 0 L14 520 L138 520 L237 131 L240 131 L340 520 L452 520 Z " />
<glyph glyph-name="w" unicode="w" horiz-adv-x="710" d="M694 520 L582 0 L432 0 L357 337 L353 337 L277 0 L128 0 L15 520 L133 520 L213 132 L217 132 L294 511 L423 511 L505 130 L509 130 L585 520 L694 520 Z " />
<glyph glyph-name="wacute" unicode="&#x1e83;" horiz-adv-x="710" d="M694 520 L582 0 L432 0 L357 337 L353 337 L277 0 L128 0 L15 520 L133 520 L213 132 L217 132 L294 511 L423 511 L505 130 L509 130 L585 520 L694 520 Z M405 600 L313 600 L383 774 L499 774 L405 600 Z " />
<glyph glyph-name="wcircumflex" unicode="&#x175;" horiz-adv-x="710" d="M694 520 L582 0 L432 0 L357 337 L353 337 L277 0 L128 0 L15 520 L133 520 L213 132 L217 132 L294 511 L423 511 L505 130 L509 130 L585 520 L694 520 Z M422 597 L359 718 L298 597 L190 597 L293 766 L425 766 L528 597 L422 597 Z " />
<glyph glyph-name="wdieresis" unicode="&#x1e85;" horiz-adv-x="710" d="M694 520 L582 0 L432 0 L357 337 L353 337 L277 0 L128 0 L15 520 L133 520 L213 132 L217 132 L294 511 L423 511 L505 130 L509 130 L585 520 L694 520 Z M261 719 Q294 719 310.5 702.5 Q327 686 327 656 Q327 594 261 594 Q229 594 212 610 Q195 626 195 656 Q195 686 212.5 702.5 Q230 719 261 719 Z M457 719 Q490 719 507 702.5 Q524 686 524 656 Q524 594 457 594 Q426 594 409.5 610 Q393 626 393 656 Q393 686 409.5 702.5 Q426 719 457 719 Z " />
<glyph glyph-name="wgrave" unicode="&#x1e81;" horiz-adv-x="710" d="M694 520 L582 0 L432 0 L357 337 L353 337 L277 0 L128 0 L15 520 L133 520 L213 132 L217 132 L294 511 L423 511 L505 130 L509 130 L585 520 L694 520 Z M420 600 L328 600 L241 773 L359 773 L420 600 Z " />
<glyph glyph-name="x" unicode="x" horiz-adv-x="464" d="M318 0 L228 173 L133 0 L11 0 L160 256 L16 520 L148 520 L239 351 L332 520 L446 520 L305 272 L452 0 L318 0 Z " />
<glyph glyph-name="y" unicode="y" horiz-adv-x="471" d="M461 520 L255 -170 L135 -170 L182 -10 L9 520 L135 521 L247 160 L348 520 L461 520 Z " />
<glyph glyph-name="yacute" unicode="&#xfd;" horiz-adv-x="471" d="M461 520 L255 -170 L135 -170 L182 -10 L9 520 L135 521 L247 160 L348 520 L461 520 Z M289 600 L197 600 L267 774 L383 774 L289 600 Z " />
<glyph glyph-name="ycircumflex" unicode="&#x177;" horiz-adv-x="471" d="M461 520 L255 -170 L135 -170 L182 -10 L9 520 L135 521 L247 160 L348 520 L461 520 Z M307 597 L244 718 L183 597 L75 597 L178 766 L310 766 L413 597 L307 597 Z " />
<glyph glyph-name="ydieresis" unicode="&#xff;" horiz-adv-x="471" d="M461 520 L255 -170 L135 -170 L182 -10 L9 520 L135 521 L247 160 L348 520 L461 520 Z M146 719 Q179 719 195.5 702.5 Q212 686 212 656 Q212 594 146 594 Q114 594 97 610 Q80 626 80 656 Q80 686 97.5 702.5 Q115 719 146 719 Z M342 719 Q375 719 392 702.5 Q409 686 409 656 Q409 594 342 594 Q311 594 294.5 610 Q278 626 278 656 Q278 686 294.5 702.5 Q311 719 342 719 Z " />
<glyph glyph-name="ygrave" unicode="&#x1ef3;" horiz-adv-x="471" d="M461 520 L255 -170 L135 -170 L182 -10 L9 520 L135 521 L247 160 L348 520 L461 520 Z M304 600 L212 600 L125 773 L243 773 L304 600 Z " />
<glyph glyph-name="z" unicode="z" horiz-adv-x="429" d="M392 420 L171 94 L313 97 L392 97 L392 0 L33 0 L33 101 L263 429 L120 427 L39 427 L39 520 L392 520 L392 420 Z " />
<glyph glyph-name="zacute" unicode="&#x17a;" horiz-adv-x="429" d="M392 420 L171 94 L313 97 L392 97 L392 0 L33 0 L33 101 L263 429 L120 427 L39 427 L39 520 L392 520 L392 420 Z M259 600 L167 600 L237 774 L353 774 L259 600 Z " />
<glyph glyph-name="zcaron" unicode="&#x17e;" horiz-adv-x="430" d="M393 420 L172 94 L314 97 L393 97 L393 0 L34 0 L34 101 L264 429 L121 427 L40 427 L40 520 L393 520 L393 420 Z M388 766 L283 597 L148 597 L42 766 L149 766 L215 637 L283 766 L388 766 Z " />
<glyph glyph-name="zdotaccent" unicode="&#x17c;" horiz-adv-x="429" d="M392 420 L171 94 L313 97 L392 97 L392 0 L33 0 L33 101 L263 429 L120 427 L39 427 L39 520 L392 520 L392 420 Z M213 618 Q181 618 163.5 632.5 Q146 647 146 677 Q146 707 163.5 721.5 Q181 736 213 736 Q280 736 280 677 Q280 618 213 618 Z " />
<glyph glyph-name="ordfeminine" unicode="&#xaa;" horiz-adv-x="395" d="M344 415 L344 347 Q315 339 290 339 Q270 339 254 349 Q238 359 234 380 Q225 362 205.5 350 Q186 338 155 338 Q109 338 82.5 366 Q56 394 56 449 Q56 564 179 564 Q197 564 227 561 L227 585 Q227 615 213 629 Q199 643 170 643 Q127 643 73 625 L64 700 Q134 718 195 718 Q255 718 285.5 689.5 Q316 661 316 596 L316 430 Q316 414 328 414 L344 415 Z M227 509 Q207 512 194 512 Q165 512 150 498 Q135 484 135 451 Q135 426 146 411 Q157 396 175 396 Q198 396 212.5 413.5 Q227 431 227 461 L227 509 Z M56 273 L344 273 L344 196 L56 196 L56 273 Z " />
<glyph glyph-name="ordmasculine" unicode="&#xba;" horiz-adv-x="421" d="M211 341 Q138 341 96 389.5 Q54 438 54 530 Q54 622 96 670 Q138 718 211 718 Q282 718 324.5 670 Q367 622 367 530 Q367 438 325 389.5 Q283 341 211 341 Z M211 410 Q243 410 261 441 Q279 472 279 530 Q279 587 261 618 Q243 649 211 649 Q179 649 161 618 Q143 587 143 530 Q143 472 161 441 Q179 410 211 410 Z M56 273 L365 273 L365 196 L56 196 L56 273 Z " />
<glyph glyph-name="zero" unicode="0" horiz-adv-x="596" d="M298 -12 Q183 -12 116 75.5 Q49 163 49 350 Q49 536 116 624 Q183 712 298 712 Q413 712 479.5 624 Q546 536 546 350 Q546 163 479.5 75.5 Q413 -12 298 -12 Z M298 93 Q351 93 377 151 Q403 209 403 350 Q403 491 377 549 Q351 607 298 607 Q245 607 219 549 Q193 491 193 350 Q193 209 219 151 Q245 93 298 93 Z " />
<glyph glyph-name="one" unicode="1" horiz-adv-x="343" d="M272 706 L272 0 L140 0 L140 593 L26 557 L20 661 L163 706 L272 706 Z " />
<glyph glyph-name="two" unicode="2" horiz-adv-x="516" d="M365 258 Q310 197 203 110 L471 110 L471 0 L38 0 L38 101 Q155 208 236 295 Q284 347 306 389 Q328 431 328 475 Q328 530 296.5 566.5 Q265 603 200 603 Q162 603 128.5 591 Q95 579 52 559 L42 675 Q97 694 141.5 703 Q186 712 232 712 Q340 712 406 656 Q472 600 472 491 Q472 421 444.5 368.5 Q417 316 365 258 Z " />
<glyph glyph-name="three" unicode="3" horiz-adv-x="509" d="M336 364 Q395 348 430.5 303.5 Q466 259 466 188 Q466 91 399.5 41 Q333 -9 218 -9 Q121 -9 37 21 L46 129 Q88 112 124 102 Q160 92 194 92 Q250 92 287 118 Q324 144 324 202 Q324 262 285.5 292 Q247 322 191 322 L126 322 L126 418 L193 418 Q244 418 278.5 441.5 Q313 465 313 515 Q313 565 281.5 587.5 Q250 610 199 610 Q142 610 52 574 L42 678 Q141 712 229 712 Q334 712 392.5 666 Q451 620 451 533 Q451 475 422.5 430.5 Q394 386 336 364 Z " />
<glyph glyph-name="four" unicode="4" horiz-adv-x="561" d="M525 154 L448 154 L448 0 L321 0 L320 154 L32 154 L32 249 L289 705 L447 705 L448 253 L524 253 L525 154 Z M319 253 L319 543 L155 253 L319 253 Z " />
<glyph glyph-name="five" unicode="5" horiz-adv-x="520" d="M288 438 Q339 438 384 416 Q429 394 457.5 345.5 Q486 297 486 223 Q486 121 426.5 55.5 Q367 -10 235 -10 Q187 -10 136 -2 Q85 6 42 23 L51 133 Q152 91 215 91 Q276 91 313 123.5 Q350 156 350 220 Q350 275 321.5 307.5 Q293 340 247 340 Q218 340 192.5 326.5 Q167 313 154 290 L61 310 L61 700 L440 700 L440 591 L174 591 L174 398 Q222 438 288 438 Z " />
<glyph glyph-name="six" unicode="6" horiz-adv-x="557" d="M332 452 Q417 452 469 393.5 Q521 335 521 227 Q521 112 460.5 50.5 Q400 -11 293 -11 Q155 -11 93 106 Q68 151 55.5 211.5 Q43 272 43 339 Q43 413 59 481.5 Q75 550 108 601 Q179 713 325 713 Q405 713 487 685 L478 569 Q394 607 343 607 Q258 607 217 541 Q197 511 191.5 475 Q186 439 185 389 L185 377 Q230 452 332 452 Z M288 87 Q331 87 355.5 123.5 Q380 160 380 223 Q380 286 355.5 321 Q331 356 289 356 Q244 356 219 318.5 Q194 281 194 221 Q194 169 210 138 Q221 114 241.5 100.5 Q262 87 288 87 Z " />
<glyph glyph-name="seven" unicode="7" horiz-adv-x="465" d="M432 700 L432 602 L240 0 L96 0 L292 590 L26 590 L26 700 L432 700 Z " />
<glyph glyph-name="eight" unicode="8" horiz-adv-x="562" d="M390 371 Q446 355 483.5 311 Q521 267 521 191 Q521 93 456.5 40.5 Q392 -12 281 -12 Q170 -12 105.5 40.5 Q41 93 41 191 Q41 267 78.5 311 Q116 355 172 371 L172 374 Q127 390 96 430 Q65 470 65 533 Q65 618 123 665 Q181 712 281 712 Q381 712 439 665 Q497 618 497 533 Q497 470 466 430 Q435 390 390 374 L390 371 Z M223 553 Q210 536 210 515 Q210 498 219.5 482 Q229 466 247 454 Q267 441 285 441 Q315 441 339 475 Q352 494 352 514 Q352 549 315 575 Q293 589 276 589 Q246 589 223 553 Z M281 89 Q332 89 360.5 118 Q389 147 389 204 Q389 258 361 289.5 Q333 321 281 321 Q229 321 201 289.5 Q173 258 173 204 Q173 147 202 118 Q231 89 281 89 Z " />
<glyph glyph-name="nine" unicode="9" horiz-adv-x="558" d="M464 596 Q489 551 501.5 491 Q514 431 514 364 Q514 288 498 219.5 Q482 151 449 100 Q379 -11 232 -11 Q145 -11 66 16 L74 130 Q108 115 146.5 104.5 Q185 94 214 94 Q298 94 340 159 Q360 190 366 229 Q372 268 373 323 L373 326 Q327 250 226 250 Q140 250 88 308 Q36 366 36 474 Q36 590 97 651.5 Q158 713 265 713 Q402 713 464 596 Z M269 345 Q314 345 338.5 383 Q363 421 363 481 Q363 532 347 563 Q336 587 315.5 600.5 Q295 614 270 614 Q226 614 201 578 Q176 542 176 479 Q176 415 201.5 380 Q227 345 269 345 Z " />
<glyph glyph-name="uni24FF" unicode="&#x24ff;" horiz-adv-x="668" d="M335 -27 Q206 -27 128 50 Q50 127 50 299 Q50 471 128 548 Q206 625 335 625 Q463 625 540.5 548 Q618 471 618 299 Q618 127 540.5 50 Q463 -27 335 -27 Z M333 92 Q406 92 452 139.5 Q498 187 498 299 Q498 411 452 458.5 Q406 506 333 506 Q261 506 215.5 458.5 Q170 411 170 299 Q170 187 215.5 139.5 Q261 92 333 92 Z M334 171 Q309 171 294 198.5 Q279 226 279 299 Q279 373 294 400 Q309 427 334 427 Q359 427 374.5 400 Q390 373 390 299 Q390 226 374.5 198.5 Q359 171 334 171 Z " />
<glyph glyph-name="uni2776" unicode="&#x2776;" horiz-adv-x="668" d="M335 -27 Q206 -27 128 50 Q50 127 50 299 Q50 471 128 548 Q206 625 335 625 Q463 625 540.5 548 Q618 471 618 299 Q618 127 540.5 50 Q463 -27 335 -27 Z M402 98 L402 501 L320 501 L223 471 L227 386 L301 409 L301 98 L402 98 Z " />
<glyph glyph-name="uni2777" unicode="&#x2777;" horiz-adv-x="668" d="M335 -27 Q206 -27 128 50 Q50 127 50 299 Q50 471 128 548 Q206 625 335 625 Q463 625 540.5 548 Q618 471 618 299 Q618 127 540.5 50 Q463 -27 335 -27 Z M474 99 L474 182 L336 182 Q400 228 423 254 Q448 283 461.5 310 Q475 337 475 372 Q475 440 434.5 474 Q394 508 328 508 Q281 508 206 483 L212 398 Q218 400 234.5 407.5 Q251 415 268.5 420 Q286 425 301 425 Q332 425 349 406.5 Q366 388 366 359 Q366 318 325 277 Q265 215 216 175 L216 99 L474 99 Z " />
<glyph glyph-name="uni2778" unicode="&#x2778;" horiz-adv-x="668" d="M335 -27 Q206 -27 128 50 Q50 127 50 299 Q50 471 128 548 Q206 625 335 625 Q463 625 540.5 548 Q618 471 618 299 Q618 127 540.5 50 Q463 -27 335 -27 Z M326 98 Q480 98 480 212 Q480 289 409 309 Q442 323 457 349 Q472 375 472 407 Q472 457 437.5 484.5 Q403 512 332 512 Q275 512 219 494 L227 415 L248 422 Q254 424 276 430.5 Q298 437 315 437 Q337 437 352 425 Q367 413 367 391 Q367 367 350.5 356 Q334 345 308 345 L271 345 L271 278 L305 278 Q371 278 371 227 Q371 201 353 187.5 Q335 174 304 174 Q291 174 278 178 Q265 182 249 188 Q233 194 224 197 L216 114 Q266 98 326 98 Z " />
<glyph glyph-name="uni2779" unicode="&#x2779;" horiz-adv-x="668" d="M335 -27 Q206 -27 128 50 Q50 127 50 299 Q50 471 128 548 Q206 625 335 625 Q463 625 540.5 548 Q618 471 618 299 Q618 127 540.5 50 Q463 -27 335 -27 Z M435 99 L435 181 L480 181 L480 254 L435 254 L434 502 L316 502 L169 256 L169 181 L340 181 L340 99 L435 99 Z M339 395 L339 254 L255 254 L339 395 Z " />
<glyph glyph-name="uni277A" unicode="&#x277a;" horiz-adv-x="668" d="M335 -27 Q206 -27 128 50 Q50 127 50 299 Q50 471 128 548 Q206 625 335 625 Q463 625 540.5 548 Q618 471 618 299 Q618 127 540.5 50 Q463 -27 335 -27 Z M331 94 Q417 94 452 134 Q487 174 487 231 Q487 296 452 324 Q417 352 368 352 Q332 352 306 336 L308 418 L461 418 L461 501 L226 501 L221 272 L296 257 Q300 267 312 272.5 Q324 278 338 278 Q358 278 371.5 266 Q385 254 385 230 Q385 202 366.5 186 Q348 170 324 170 Q300 170 277.5 176 Q255 182 218 195 L209 113 Q238 103 271.5 98.5 Q305 94 331 94 Z " />
<glyph glyph-name="uni277B" unicode="&#x277b;" horiz-adv-x="668" d="M335 -27 Q206 -27 128 50 Q50 127 50 299 Q50 471 128 548 Q206 625 335 625 Q463 625 540.5 548 Q618 471 618 299 Q618 127 540.5 50 Q463 -27 335 -27 Z M338 92 Q407 92 443.5 127.5 Q480 163 480 231 Q480 295 449 326 Q418 357 369 357 Q314 357 284 317 L284 324 Q284 372 304 396 Q327 426 372 426 Q389 426 411 421 Q433 416 451 406 L461 486 Q415 506 357 506 Q313 506 280 492 Q247 478 223 446 Q202 417 191.5 377 Q181 337 181 293 Q181 203 219.5 147.5 Q258 92 338 92 Z M333 168 Q313 168 301 185.5 Q289 203 289 229 Q289 256 301 272.5 Q313 289 334 289 Q354 289 365.5 273 Q377 257 377 228 Q377 199 365.5 183.5 Q354 168 333 168 Z " />
<glyph glyph-name="uni277C" unicode="&#x277c;" horiz-adv-x="668" d="M335 -27 Q206 -27 128 50 Q50 127 50 299 Q50 471 128 548 Q206 625 335 625 Q463 625 540.5 548 Q618 471 618 299 Q618 127 540.5 50 Q463 -27 335 -27 Z M356 94 L481 419 L483 494 L210 494 L210 409 L376 409 L247 94 L356 94 Z " />
<glyph glyph-name="uni277D" unicode="&#x277d;" horiz-adv-x="668" d="M335 -27 Q206 -27 128 50 Q50 127 50 299 Q50 471 128 548 Q206 625 335 625 Q463 625 540.5 548 Q618 471 618 299 Q618 127 540.5 50 Q463 -27 335 -27 Z M334 97 Q404 97 443 127.5 Q482 158 482 214 Q482 290 409 312 Q433 323 450.5 345 Q468 367 468 404 Q468 455 432 483 Q396 511 334 511 Q272 511 236.5 483 Q201 455 201 404 Q201 367 219 345 Q237 323 261 312 Q187 291 187 214 Q187 158 225.5 127.5 Q264 97 334 97 Z M334 345 Q310 345 298 358 Q286 371 286 392 Q286 414 299 427.5 Q312 441 335 441 Q358 441 370.5 427 Q383 413 383 392 Q383 371 370.5 358 Q358 345 334 345 Z M333 168 Q310 168 295.5 181.5 Q281 195 281 222 Q281 248 294.5 263 Q308 278 333 278 Q359 278 373.5 263 Q388 248 388 222 Q388 196 372 182 Q356 168 333 168 Z " />
<glyph glyph-name="uni277E" unicode="&#x277e;" horiz-adv-x="668" d="M335 -27 Q206 -27 128 50 Q50 127 50 299 Q50 471 128 548 Q206 625 335 625 Q463 625 540.5 548 Q618 471 618 299 Q618 127 540.5 50 Q463 -27 335 -27 Z M324 99 Q368 99 401 112.5 Q434 126 457 159 Q499 218 499 312 Q499 396 465 451 Q427 513 343 513 Q274 513 237.5 477.5 Q201 442 201 374 Q201 311 231.5 280 Q262 249 311 249 Q367 249 397 288 L397 281 Q397 233 377 209 Q353 180 309 180 Q292 180 270 184.5 Q248 189 229 199 L220 119 Q265 99 324 99 Z M348 316 Q328 316 317 332 Q306 348 306 378 Q306 406 317 421.5 Q328 437 348 437 Q370 437 379 418 Q390 400 390 375 Q390 348 379 332 Q368 316 348 316 Z " />
<glyph glyph-name="fraction" unicode="&#x2044;" horiz-adv-x="169" d="M-83 0 L-173 0 L252 720 L341 720 L-83 0 Z " />
<glyph glyph-name="onehalf" unicode="&#xbd;" horiz-adv-x="738" d="M189 703 L189 337 L97 337 L97 620 L29 599 L26 676 L115 703 L189 703 Z M162 0 L72 0 L497 720 L586 720 L162 0 Z M642 140 Q620 116 563 75 L689 75 L689 0 L455 0 L455 69 Q500 106 554 162 Q591 201 591 236 Q591 263 575.5 280 Q560 297 532 297 Q506 297 480.5 285 Q455 273 451 271 L445 349 Q510 371 556 371 Q616 371 653 340.5 Q690 310 690 248 Q690 217 677.5 192 Q665 167 642 140 Z " />
<glyph glyph-name="onequarter" unicode="&#xbc;" horiz-adv-x="720" d="M189 703 L189 337 L97 337 L97 620 L29 599 L26 676 L115 703 L189 703 Z M167 0 L77 0 L502 720 L591 720 L167 0 Z M682 141 L682 74 L641 74 L641 0 L555 0 L555 74 L399 74 L399 143 L533 366 L640 366 L641 141 L682 141 Z M554 141 L554 269 L478 141 L554 141 Z " />
<glyph glyph-name="threequarters" unicode="&#xbe;" horiz-adv-x="783" d="M210 524 Q276 506 276 435 Q276 332 136 332 Q81 332 35 346 L43 422 Q49 420 65.5 413.5 Q82 407 93.5 404 Q105 401 115 401 Q144 401 160 413.5 Q176 426 176 450 Q176 495 116 495 L85 495 L85 557 L119 557 Q143 557 158 567 Q173 577 173 598 Q173 619 159 629.5 Q145 640 125 640 Q107 640 68 627 L46 620 L39 692 Q87 708 142 708 Q206 708 237 683 Q268 658 268 613 Q268 584 254 560.5 Q240 537 210 524 Z M230 0 L140 0 L565 720 L654 720 L230 0 Z M745 141 L745 74 L704 74 L704 0 L618 0 L618 74 L462 74 L462 143 L596 366 L703 366 L704 141 L745 141 Z M617 141 L617 269 L541 141 L617 141 Z " />
<glyph glyph-name="oneeighth" unicode="&#x215b;" horiz-adv-x="768" d="M189 703 L189 337 L97 337 L97 620 L29 599 L26 676 L115 703 L189 703 Z M171 0 L81 0 L506 720 L595 720 L171 0 Z M646 190 Q714 170 714 102 Q714 51 678.5 23 Q643 -5 580 -5 Q516 -5 481 22.5 Q446 50 446 102 Q446 171 513 191 Q491 200 474.5 220 Q458 240 458 274 Q458 321 491 346 Q524 371 580 371 Q636 371 668.5 346 Q701 321 701 274 Q701 215 646 190 Z M580 308 Q559 308 547.5 295.5 Q536 283 536 263 Q536 244 547 232 Q558 220 580 220 Q601 220 612 232 Q623 244 623 263 Q623 283 612 295.5 Q601 308 580 308 Z M579 59 Q601 59 615 71.5 Q629 84 629 108 Q629 133 615.5 146.5 Q602 160 579 160 Q556 160 543.5 146 Q531 132 531 108 Q531 84 544.5 71.5 Q558 59 579 59 Z " />
<glyph glyph-name="threeeighths" unicode="&#x215c;" horiz-adv-x="782" d="M210 524 Q276 506 276 435 Q276 332 136 332 Q81 332 35 346 L43 422 Q49 420 65.5 413.5 Q82 407 93.5 404 Q105 401 115 401 Q144 401 160 413.5 Q176 426 176 450 Q176 495 116 495 L85 495 L85 557 L119 557 Q143 557 158 567 Q173 577 173 598 Q173 619 159 629.5 Q145 640 125 640 Q107 640 68 627 L46 620 L39 692 Q87 708 142 708 Q206 708 237 683 Q268 658 268 613 Q268 584 254 560.5 Q240 537 210 524 Z M214 0 L124 0 L549 720 L638 720 L214 0 Z M685 190 Q753 170 753 102 Q753 51 717.5 23 Q682 -5 619 -5 Q555 -5 520 22.5 Q485 50 485 102 Q485 171 552 191 Q530 200 513.5 220 Q497 240 497 274 Q497 321 530 346 Q563 371 619 371 Q675 371 707.5 346 Q740 321 740 274 Q740 215 685 190 Z M619 308 Q598 308 586.5 295.5 Q575 283 575 263 Q575 244 586 232 Q597 220 619 220 Q640 220 651 232 Q662 244 662 263 Q662 283 651 295.5 Q640 308 619 308 Z M618 59 Q640 59 654 71.5 Q668 84 668 108 Q668 133 654.5 146.5 Q641 160 618 160 Q595 160 582.5 146 Q570 132 570 108 Q570 84 583.5 71.5 Q597 59 618 59 Z " />
<glyph glyph-name="fiveeighths" unicode="&#x215d;" horiz-adv-x="792" d="M169 566 Q213 566 245.5 540 Q278 514 278 455 Q278 403 245.5 367 Q213 331 135 331 Q111 331 81 335.5 Q51 340 25 349 L33 423 Q65 411 86 405.5 Q107 400 129 400 Q151 400 168 414.5 Q185 429 185 455 Q185 477 172.5 488 Q160 499 141 499 Q129 499 118.5 493.5 Q108 488 104 479 L36 493 L40 701 L254 701 L254 626 L115 626 L113 551 Q138 566 169 566 Z M221 0 L131 0 L556 720 L645 720 L221 0 Z M695 190 Q763 170 763 102 Q763 51 727.5 23 Q692 -5 629 -5 Q565 -5 530 22.5 Q495 50 495 102 Q495 171 562 191 Q540 200 523.5 220 Q507 240 507 274 Q507 321 540 346 Q573 371 629 371 Q685 371 717.5 346 Q750 321 750 274 Q750 215 695 190 Z M629 308 Q608 308 596.5 295.5 Q585 283 585 263 Q585 244 596 232 Q607 220 629 220 Q650 220 661 232 Q672 244 672 263 Q672 283 661 295.5 Q650 308 629 308 Z M628 59 Q650 59 664 71.5 Q678 84 678 108 Q678 133 664.5 146.5 Q651 160 628 160 Q605 160 592.5 146 Q580 132 580 108 Q580 84 593.5 71.5 Q607 59 628 59 Z " />
<glyph glyph-name="seveneighths" unicode="&#x215e;" horiz-adv-x="771" d="M272 701 L270 633 L156 337 L58 337 L174 623 L23 623 L23 701 L272 701 Z M193 0 L103 0 L528 720 L617 720 L193 0 Z M673 190 Q741 170 741 102 Q741 51 705.5 23 Q670 -5 607 -5 Q543 -5 508 22.5 Q473 50 473 102 Q473 171 540 191 Q518 200 501.5 220 Q485 240 485 274 Q485 321 518 346 Q551 371 607 371 Q663 371 695.5 346 Q728 321 728 274 Q728 215 673 190 Z M607 308 Q586 308 574.5 295.5 Q563 283 563 263 Q563 244 574 232 Q585 220 607 220 Q628 220 639 232 Q650 244 650 263 Q650 283 639 295.5 Q628 308 607 308 Z M606 59 Q628 59 642 71.5 Q656 84 656 108 Q656 133 642.5 146.5 Q629 160 606 160 Q583 160 570.5 146 Q558 132 558 108 Q558 84 571.5 71.5 Q585 59 606 59 Z " />
<glyph glyph-name="asterisk" unicode="&#x2a;" horiz-adv-x="356" d="M201 591 L273 665 L312 598 L226 548 L312 498 L273 431 L201 504 L214 385 L140 385 L153 504 L81 431 L43 498 L128 548 L43 598 L81 665 L153 591 L140 712 L214 712 L201 591 Z " />
<glyph glyph-name="backslash" unicode="&#x5c;" horiz-adv-x="438" d="M420 -170 L315 -170 L18 802 L123 802 L420 -170 Z " />
<glyph glyph-name="middot" unicode="&#xb7;" horiz-adv-x="246" d="M122 202 Q87 202 66.5 221 Q46 240 46 279 Q46 315 67.5 335.5 Q89 356 122 356 Q157 356 178.5 335.5 Q200 315 200 278 Q200 241 178.5 221.5 Q157 202 122 202 Z " />
<glyph glyph-name="bullet" unicode="&#x2022;" horiz-adv-x="349" d="M175 230 Q126 230 94.5 260.5 Q63 291 63 344 Q63 398 94.5 428.5 Q126 459 175 459 Q223 459 254.5 428.5 Q286 398 286 344 Q286 290 254.5 260 Q223 230 175 230 Z " />
<glyph glyph-name="colon" unicode="&#x3a;" horiz-adv-x="251" d="M125 344 Q91 344 70.5 363 Q50 382 50 419 Q50 454 71 474 Q92 494 125 494 Q159 494 180 474 Q201 454 201 419 Q201 383 180 363.5 Q159 344 125 344 Z M125 -5 Q91 -5 70.5 14 Q50 33 50 70 Q50 105 71 125 Q92 145 125 145 Q159 145 180 125 Q201 105 201 70 Q201 34 180 14.5 Q159 -5 125 -5 Z " />
<glyph glyph-name="comma" unicode="&#x2c;" horiz-adv-x="247" d="M118 139 Q163 139 184.5 106.5 Q206 74 206 28 Q206 -30 173.5 -75 Q141 -120 92 -144 L58 -103 Q90 -85 111.5 -58.5 Q133 -32 133 3 L133 5 Q125 -5 104 -5 Q80 -5 61 12.5 Q42 30 42 64 Q42 101 64.5 120 Q87 139 118 139 Z " />
<glyph glyph-name="ellipsis" unicode="&#x2026;" horiz-adv-x="669" d="M117 -5 Q83 -5 62.5 14 Q42 33 42 70 Q42 105 62.5 125 Q83 145 117 145 Q151 145 171.5 125 Q192 105 192 70 Q192 34 171.5 14.5 Q151 -5 117 -5 Z M334 -5 Q300 -5 279.5 14 Q259 33 259 70 Q259 105 279.5 125 Q300 145 334 145 Q368 145 388.5 125 Q409 105 409 70 Q409 34 388.5 14.5 Q368 -5 334 -5 Z M551 -5 Q517 -5 497 14 Q477 33 477 70 Q477 105 497.5 125 Q518 145 551 145 Q585 145 606 125 Q627 105 627 70 Q627 34 606 14.5 Q585 -5 551 -5 Z " />
<glyph glyph-name="exclam" unicode="&#x21;" horiz-adv-x="255" d="M55 701 L199 701 L182 205 L73 205 L55 701 Z M127 -7 Q94 -7 75.5 10.5 Q57 28 57 64 Q57 98 76 116 Q95 134 127 134 Q159 134 178.5 116 Q198 98 198 64 Q198 28 179 10.5 Q160 -7 127 -7 Z " />
<glyph glyph-name="exclamdown" unicode="&#xa1;" horiz-adv-x="247" d="M123 390 Q91 390 72 408 Q53 426 53 460 Q53 496 71.5 513.5 Q90 531 123 531 Q156 531 175 513 Q194 495 194 460 Q194 426 174.5 408 Q155 390 123 390 Z M69 319 L178 319 L195 -177 L51 -177 L69 319 Z " />
<glyph glyph-name="numbersign" unicode="&#x23;" horiz-adv-x="651" d="M510 433 L478 260 L572 260 L572 157 L459 157 L430 0 L322 0 L351 157 L233 157 L204 0 L95 0 L124 157 L30 157 L30 260 L142 260 L174 433 L78 433 L78 535 L193 535 L223 701 L332 701 L302 535 L420 535 L451 701 L559 701 L528 535 L620 535 L620 433 L510 433 Z M402 433 L283 433 L251 260 L370 260 L402 433 Z " />
<glyph glyph-name="period" unicode="&#x2e;" horiz-adv-x="234" d="M116 -5 Q82 -5 62 14 Q42 33 42 70 Q42 105 62.5 125 Q83 145 116 145 Q150 145 171 125 Q192 105 192 70 Q192 34 171 14.5 Q150 -5 116 -5 Z " />
<glyph glyph-name="question" unicode="&#x3f;" horiz-adv-x="431" d="M136 205 Q135 226 135 265 Q135 304 146.5 332.5 Q158 361 174 379.5 Q190 398 215 421 Q246 449 261 470.5 Q276 492 276 525 Q276 567 252 590 Q228 613 182 613 Q149 613 110.5 600.5 Q72 588 40 572 L24 673 Q61 690 111 701 Q161 712 206 712 Q292 712 347.5 667.5 Q403 623 403 537 Q403 498 392 470 Q381 442 365 423 Q349 404 322 379 Q289 349 271.5 324.5 Q254 300 251 263 Q249 249 249.5 230.5 Q250 212 250 205 L136 205 Z M194 -12 Q161 -12 142 6 Q123 24 123 60 Q123 95 142 113 Q161 131 194 131 Q226 131 245 113 Q264 95 264 60 Q264 24 245 6 Q226 -12 194 -12 Z " />
<glyph glyph-name="questiondown" unicode="&#xbf;" horiz-adv-x="426" d="M236 530 Q269 530 288 512 Q307 494 307 458 Q307 423 288 405 Q269 387 236 387 Q204 387 184.5 405 Q165 423 165 458 Q165 493 184.5 511.5 Q204 530 236 530 Z M293 313 Q295 297 294.5 278 Q294 259 294 253 Q294 197 273.5 164.5 Q253 132 214 97 Q183 69 168 47.5 Q153 26 153 -7 Q153 -49 177.5 -72 Q202 -95 248 -95 Q281 -95 319.5 -82.5 Q358 -70 390 -54 L406 -155 Q369 -172 319 -183 Q269 -194 224 -194 Q138 -194 82.5 -150 Q27 -106 27 -19 Q27 20 38 48 Q49 76 65 95 Q81 114 108 139 Q141 170 158 194 Q175 218 179 255 Q181 269 180.5 287.5 Q180 306 180 313 L293 313 Z " />
<glyph glyph-name="quotedbl" unicode="&#x22;" horiz-adv-x="397" d="M146 471 L52 471 L51 700 L170 700 L146 471 Z M333 471 L239 471 L237 700 L356 700 L333 471 Z " />
<glyph glyph-name="quotesingle" unicode="&#x27;" horiz-adv-x="211" d="M146 471 L52 471 L51 700 L170 700 L146 471 Z " />
<glyph glyph-name="semicolon" unicode="&#x3b;" horiz-adv-x="268" d="M130 344 Q96 344 76 362.5 Q56 381 56 419 Q56 454 76.5 474 Q97 494 130 494 Q164 494 185 474 Q206 454 206 419 Q206 382 185.5 363 Q165 344 130 344 Z M129 139 Q174 139 195.5 106.5 Q217 74 217 28 Q217 -30 184.5 -75 Q152 -120 103 -144 L69 -103 Q101 -85 122.5 -58.5 Q144 -32 144 3 L144 5 Q136 -5 115 -5 Q91 -5 72 12.5 Q53 30 53 64 Q53 101 75 120 Q97 139 129 139 Z " />
<glyph glyph-name="slash" unicode="&#x2f;" horiz-adv-x="439" d="M122 -170 L18 -170 L315 802 L421 802 L122 -170 Z " />
<glyph glyph-name="underscore" unicode="&#x5f;" horiz-adv-x="386" d="M386 -146 L0 -146 L0 -57 L386 -57 L386 -146 Z " />
<glyph glyph-name="braceleft" unicode="&#x7b;" horiz-adv-x="320" d="M294 -88 L294 -170 L233 -170 Q149 -170 121 -129.5 Q93 -89 93 -17 L93 176 Q93 212 78 227.5 Q63 243 39 243 L19 243 L19 319 L39 319 Q63 319 78 334.5 Q93 350 93 386 L93 579 Q93 626 103 658.5 Q113 691 144 711.5 Q175 732 233 732 L293 732 L293 650 L262 650 Q230 650 218 634 Q206 618 206 585 L206 395 Q206 346 184 317 Q162 288 127 281 Q162 274 184 245 Q206 216 206 167 L206 -23 Q206 -55 218.5 -71.5 Q231 -88 263 -88 L294 -88 Z " />
<glyph glyph-name="braceright" unicode="&#x7d;" horiz-adv-x="320" d="M301 319 L301 243 L281 243 Q258 243 242.5 227 Q227 211 227 176 L227 -17 Q227 -89 199.5 -129.5 Q172 -170 88 -170 L27 -170 L27 -88 L58 -88 Q90 -88 102 -72 Q114 -56 114 -23 L114 167 Q114 216 136 245 Q158 274 194 281 Q158 288 136 317 Q114 346 114 395 L114 585 Q114 617 101.5 633.5 Q89 650 57 650 L26 650 L26 732 L87 732 Q171 732 199 691.5 Q227 651 227 579 L227 386 Q227 351 242.5 335 Q258 319 281 319 L301 319 Z " />
<glyph glyph-name="bracketleft" unicode="&#x5b;" horiz-adv-x="307" d="M281 650 L183 650 L184 -88 L282 -88 L282 -170 L65 -170 L65 732 L281 732 L281 650 Z " />
<glyph glyph-name="bracketright" unicode="&#x5d;" horiz-adv-x="307" d="M242 -170 L25 -170 L25 -88 L123 -88 L123 650 L26 650 L26 732 L241 732 L242 -170 Z " />
<glyph glyph-name="parenleft" unicode="&#x28;" horiz-adv-x="298" d="M288 732 Q251 668 225 611 Q199 554 178.5 469 Q158 384 158 281 Q158 178 178.5 93.5 Q199 9 225.5 -49 Q252 -107 288 -170 L162 -170 Q112 -86 75 23 Q38 132 38 281 Q38 430 75 539 Q112 648 162 732 L288 732 Z " />
<glyph glyph-name="parenright" unicode="&#x29;" horiz-adv-x="298" d="M135 732 Q259 528 259 281 Q259 34 135 -170 L9 -170 Q45 -107 71.5 -49 Q98 9 118.5 93.5 Q139 178 139 281 Q139 384 118.5 468.5 Q98 553 71.5 611 Q45 669 9 732 L135 732 Z " />
<glyph glyph-name="emdash" unicode="&#x2014;" horiz-adv-x="775" d="M723 218 L52 218 L52 312 L723 312 L723 218 Z " />
<glyph glyph-name="endash" unicode="&#x2013;" horiz-adv-x="568" d="M516 218 L52 217 L52 311 L516 311 L516 218 Z " />
<glyph glyph-name="hyphen" unicode="&#x2d;" horiz-adv-x="401" d="M349 218 L52 218 L52 312 L349 312 L349 218 Z " />
<glyph glyph-name="guillemotleft" unicode="&#xab;" horiz-adv-x="490" d="M131 260 L255 36 L151 36 L30 260 L151 484 L255 484 L131 260 Z M334 260 L458 36 L355 36 L233 260 L354 484 L458 484 L334 260 Z " />
<glyph glyph-name="guillemotright" unicode="&#xbb;" horiz-adv-x="490" d="M257 260 L136 36 L32 36 L156 260 L32 484 L136 484 L257 260 Z M461 260 L340 36 L236 36 L360 260 L236 484 L340 484 L461 260 Z " />
<glyph glyph-name="guilsinglleft" unicode="&#x2039;" horiz-adv-x="287" d="M131 260 L255 36 L151 36 L30 260 L151 484 L255 484 L131 260 Z " />
<glyph glyph-name="guilsinglright" unicode="&#x203a;" horiz-adv-x="287" d="M257 260 L136 36 L32 36 L156 260 L32 484 L136 484 L257 260 Z " />
<glyph glyph-name="quotedblbase" unicode="&#x201e;" horiz-adv-x="399" d="M108 122 Q141 122 162 97 Q183 72 183 28 Q183 -24 154.5 -63 Q126 -102 83 -125 L52 -84 Q80 -70 100 -43.5 Q120 -17 121 16 Q114 6 97 6 Q72 6 57 20.5 Q42 35 42 61 Q42 88 60 105 Q78 122 108 122 Z M281 122 Q314 122 335.5 97 Q357 72 357 28 Q357 -24 328 -63 Q299 -102 256 -125 L226 -84 Q253 -70 273 -43.5 Q293 -17 294 16 Q287 6 270 6 Q246 6 231 20.5 Q216 35 216 61 Q216 88 233.5 105 Q251 122 281 122 Z " />
<glyph glyph-name="quotedblleft" unicode="&#x201c;" horiz-adv-x="393" d="M124 567 Q149 567 164 552.5 Q179 538 179 512 Q179 485 161 468 Q143 451 113 451 Q80 451 59 476 Q38 501 38 545 Q38 596 67 635 Q96 674 139 697 L169 656 Q141 642 121 616 Q101 590 100 557 Q107 567 124 567 Z M298 567 Q323 567 338 552.5 Q353 538 353 512 Q353 485 335 468 Q317 451 287 451 Q254 451 233 476 Q212 501 212 545 Q212 596 240.5 635 Q269 674 312 697 L343 656 Q315 642 295 616 Q275 590 274 557 Q281 567 298 567 Z " />
<glyph glyph-name="quotedblright" unicode="&#x201d;" horiz-adv-x="389" d="M106 697 Q139 697 160 672 Q181 647 181 603 Q181 552 152.5 513 Q124 474 81 451 L50 491 Q78 506 98 532 Q118 558 119 591 Q112 581 95 581 Q70 581 55 595.5 Q40 610 40 636 Q40 663 58 680 Q76 697 106 697 Z M279 697 Q312 697 333.5 672 Q355 647 355 603 Q355 552 326 513 Q297 474 254 451 L224 491 Q252 506 271.5 532 Q291 558 292 591 Q285 581 268 581 Q244 581 229 595.5 Q214 610 214 636 Q214 663 231.5 680 Q249 697 279 697 Z " />
<glyph glyph-name="quoteleft" unicode="&#x2018;" horiz-adv-x="219" d="M124 567 Q149 567 164 552.5 Q179 538 179 512 Q179 485 161 468 Q143 451 113 451 Q80 451 59 476 Q38 501 38 545 Q38 596 67 635 Q96 674 139 697 L169 656 Q141 642 121 616 Q101 590 100 557 Q107 567 124 567 Z " />
<glyph glyph-name="quoteright" unicode="&#x2019;" horiz-adv-x="216" d="M106 697 Q139 697 160 672 Q181 647 181 603 Q181 552 152.5 513 Q124 474 81 451 L50 491 Q78 506 98 532 Q118 558 119 591 Q112 581 95 581 Q70 581 55 595.5 Q40 610 40 636 Q40 663 58 680 Q76 697 106 697 Z " />
<glyph glyph-name="quotesinglbase" unicode="&#x201a;" horiz-adv-x="225" d="M108 122 Q141 122 162 97 Q183 72 183 28 Q183 -24 154.5 -63 Q126 -102 83 -125 L52 -84 Q80 -70 100 -43.5 Q120 -17 121 16 Q114 6 97 6 Q72 6 57 20.5 Q42 35 42 61 Q42 88 60 105 Q78 122 108 122 Z " />
<glyph glyph-name="uni2009" unicode="&#x2009;" horiz-adv-x="30" d="" />
<glyph glyph-name="cent" unicode="&#xa2;" horiz-adv-x="446" d="M404 91 Q361 75 300 71 L302 -33 L215 -32 L218 77 Q134 94 84 159.5 Q34 225 34 341 Q34 456 83.5 521.5 Q133 587 217 604 L215 714 L298 714 L296 609 Q358 606 402 590 L392 487 Q340 512 303 512 Q237 512 200.5 468 Q164 424 164 340 Q164 255 200.5 211 Q237 167 302 167 Q321 167 339 172 Q357 177 373 183 Q389 189 397 192 L404 91 Z " />
<glyph glyph-name="currency" unicode="&#xa4;" horiz-adv-x="647" d="M541 350 Q541 265 510 205 L607 103 L556 53 L465 148 Q409 100 323 100 Q238 100 182 148 L91 53 L40 103 L137 204 Q105 263 105 350 Q105 436 137 495 L40 595 L91 645 L182 550 Q238 598 323 598 Q409 598 465 550 L556 645 L607 595 L510 493 Q541 434 541 350 Z M323 195 Q380 195 410.5 236 Q441 277 441 350 Q441 422 410.5 462.5 Q380 503 323 503 Q267 503 236.5 462.5 Q206 422 206 350 Q206 277 236.5 236 Q267 195 323 195 Z " />
<glyph glyph-name="dollar" unicode="&#x24;" horiz-adv-x="514" d="M481 192 Q481 100 431.5 50.5 Q382 1 299 -9 L301 -103 L215 -103 L216 -10 Q170 -6 121 6 Q72 18 38 34 L52 154 Q92 133 137 116 Q182 99 234 99 Q286 99 314 120 Q342 141 342 181 Q342 212 325 232 Q308 252 286 263 Q264 274 214 295 Q160 318 123 344 Q86 370 64 411 Q42 452 42 512 Q42 600 88.5 648.5 Q135 697 213 708 L212 801 L300 801 L300 711 Q344 707 388.5 696 Q433 685 465 670 L452 555 Q416 573 371.5 588 Q327 603 286 603 Q236 603 209 583 Q182 563 182 524 Q182 492 200 470.5 Q218 449 241 436.5 Q264 424 315 401 Q370 376 404 352.5 Q438 329 459.5 290 Q481 251 481 192 Z " />
<glyph glyph-name="Euro" unicode="&#x20ac;" horiz-adv-x="645" d="M458 101 Q512 101 594 134 L603 14 Q531 -10 437 -10 Q316 -10 231 56.5 Q146 123 121 253 L29 253 L51 314 L114 314 Q113 326 113 350 Q113 372 114 382 L32 382 L54 443 L121 443 Q143 576 228.5 644 Q314 712 437 712 Q530 712 603 688 L593 570 Q520 600 458 600 Q384 600 335 559 Q286 518 268 443 L498 443 L476 382 L259 382 Q258 372 258 351 Q258 326 259 314 L480 314 L458 253 L270 253 Q289 180 337 140.5 Q385 101 458 101 Z " />
<glyph glyph-name="sterling" unicode="&#xa3;" horiz-adv-x="521" d="M264 233 Q264 182 249 147.5 Q234 113 212 99 L472 99 L472 0 L48 0 L48 91 Q48 88 72 99.5 Q96 111 115.5 141.5 Q135 172 135 227 Q135 257 127 292 L42 292 L42 376 L103 376 Q93 413 88 440 Q83 467 83 495 Q83 602 146 657 Q209 712 307 712 Q354 712 401 701.5 Q448 691 484 674 L470 559 Q441 577 401 591 Q361 605 331 605 Q279 605 245 578.5 Q211 552 211 495 Q211 466 216.5 440 Q222 414 233 376 L421 376 L421 292 L257 292 Q264 259 264 233 Z " />
<glyph glyph-name="yen" unicode="&#xa5;" horiz-adv-x="582" d="M361 290 L460 290 L460 219 L360 219 L360 162 L460 162 L460 94 L360 94 L360 0 L221 0 L221 94 L122 94 L122 162 L221 162 L221 219 L122 219 L122 290 L220 290 L19 700 L161 700 L298 396 L428 700 L562 700 L361 290 Z " />
<glyph glyph-name="plus" unicode="&#x2b;" horiz-adv-x="700" d="M395 383 L544 383 L544 292 L395 292 L395 112 L305 112 L305 292 L157 292 L157 383 L305 383 L305 563 L395 563 L395 383 Z " />
<glyph glyph-name="minus" unicode="&#x2212;" horiz-adv-x="700" d="M537 292 L163 292 L163 383 L537 383 L537 292 Z " />
<glyph glyph-name="multiply" unicode="&#xd7;" horiz-adv-x="700" d="M350 406 L477 560 L542 493 L411 333 L542 173 L477 106 L350 260 L224 106 L158 173 L290 333 L158 493 L224 560 L350 406 Z " />
<glyph glyph-name="divide" unicode="&#xf7;" horiz-adv-x="700" d="M351 449 Q324 449 308 464 Q292 479 292 507 Q292 534 308 548 Q324 562 351 562 Q376 562 391.5 548 Q407 534 407 507 Q407 479 391.5 464 Q376 449 351 449 Z M155 378 L545 378 L545 289 L155 289 L155 378 Z M351 106 Q324 106 308 120.5 Q292 135 292 163 Q292 191 308 205 Q324 219 351 219 Q376 219 391.5 205 Q407 191 407 163 Q407 135 391.5 120.5 Q376 106 351 106 Z " />
<glyph glyph-name="equal" unicode="&#x3d;" horiz-adv-x="700" d="M513 380 L187 380 L187 470 L513 470 L513 380 Z M513 199 L187 199 L187 289 L513 289 L513 199 Z " />
<glyph glyph-name="greater" unicode="&#x3e;" horiz-adv-x="700" d="M582 386 L582 278 L138 112 L138 221 L463 332 L138 443 L138 552 L582 386 Z " />
<glyph glyph-name="less" unicode="&#x3c;" horiz-adv-x="700" d="M562 443 L246 333 L246 330 L562 220 L562 111 L118 277 L118 386 L562 552 L562 443 Z " />
<glyph glyph-name="plusminus" unicode="&#xb1;" horiz-adv-x="700" d="M395 406 L544 406 L544 316 L395 316 L395 174 L305 174 L305 316 L156 316 L156 406 L305 406 L305 550 L395 550 L395 406 Z M544 36 L156 36 L156 126 L544 126 L544 36 Z " />
<glyph glyph-name="asciitilde" unicode="&#x7e;" horiz-adv-x="565" d="M355 274 Q334 274 315.5 280.5 Q297 287 269 301 Q247 312 230.5 318 Q214 324 198 324 Q161 324 144 283 L99 303 Q111 353 141.5 379.5 Q172 406 211 406 Q232 406 250.5 399.5 Q269 393 296 379 Q320 367 335 361.5 Q350 356 367 356 Q405 356 421 398 L466 377 Q455 328 425 301 Q395 274 355 274 Z " />
<glyph glyph-name="percent" unicode="&#x25;" horiz-adv-x="729" d="M554 730 L663 730 L172 -30 L63 -30 L554 730 Z M174 375 Q106 375 67 416 Q28 457 28 543 Q28 629 67 671 Q106 713 174 713 Q242 713 281 671 Q320 629 320 543 Q320 457 281 416 Q242 375 174 375 Z M174 456 Q196 456 210.5 476.5 Q225 497 225 543 Q225 589 210 610 Q195 631 174 631 Q152 631 137 610 Q122 589 122 543 Q122 497 137 476.5 Q152 456 174 456 Z M555 -12 Q487 -12 448 29.5 Q409 71 409 157 Q409 243 448 284.5 Q487 326 555 326 Q623 326 662 284.5 Q701 243 701 157 Q701 71 662 29.5 Q623 -12 555 -12 Z M555 70 Q577 70 592 90.5 Q607 111 607 157 Q607 203 591.5 223.5 Q576 244 554 244 Q533 244 517.5 223 Q502 202 502 157 Q502 112 517.5 91 Q533 70 555 70 Z " />
<glyph glyph-name="perthousand" unicode="&#x2030;" horiz-adv-x="1072" d="M660 730 L169 -30 L66 -30 L557 730 L660 730 Z M174 375 Q106 375 67 416 Q28 457 28 543 Q28 629 67 671 Q106 713 174 713 Q242 713 281 671 Q320 629 320 543 Q320 457 281 416 Q242 375 174 375 Z M174 631 Q152 631 136.5 609.5 Q121 588 121 543 Q121 498 136.5 477.5 Q152 457 174 457 Q196 457 211 477.5 Q226 498 226 543 Q226 589 211 610 Q196 631 174 631 Z M734 326 Q802 326 841 284.5 Q880 243 880 157 Q880 71 841.5 29.5 Q803 -12 735 -12 L728 -12 L721 -12 Q653 -12 613.5 29.5 Q574 71 574 157 Q574 243 613.5 284.5 Q653 326 720 326 L727 326 L734 326 Z M681 157 Q681 115 694 94.5 Q707 74 727 71 Q746 74 759 94.5 Q772 115 772 157 Q772 199 759 219.5 Q746 240 727 243 Q707 240 694 219.5 Q681 199 681 157 Z " />
<glyph glyph-name="arrowup" unicode="&#x2191;" horiz-adv-x="852" d="M726 228 L482 472 L483 414 L484 -1 L366 -1 L367 414 L367 471 L126 229 L50 305 L425 681 L802 303 L726 228 Z " />
<glyph glyph-name="uni2197" unicode="&#x2197;" horiz-adv-x="631" d="M582 606 L581 74 L474 74 L474 418 L434 377 L142 83 L58 167 L352 459 L393 499 L51 499 L51 606 L582 606 Z " />
<glyph glyph-name="arrowright" unicode="&#x2192;" horiz-adv-x="781" d="M731 321 L354 -55 L279 21 L524 265 L464 264 L50 262 L50 381 L521 380 L280 621 L356 697 L731 321 Z " />
<glyph glyph-name="uni2198" unicode="&#x2198;" horiz-adv-x="633" d="M583 608 L583 78 L50 78 L50 185 L395 185 L353 226 L59 518 L143 601 L475 268 L475 609 L583 608 Z " />
<glyph glyph-name="arrowdown" unicode="&#x2193;" horiz-adv-x="852" d="M802 375 L427 0 L50 377 L126 452 L370 208 L369 267 L367 681 L486 681 L485 266 L485 209 L726 451 L802 375 Z " />
<glyph glyph-name="uni2199" unicode="&#x2199;" horiz-adv-x="631" d="M581 186 L580 78 L50 78 L50 611 L157 611 L157 266 L198 308 L490 602 L573 518 L240 186 L581 186 Z " />
<glyph glyph-name="arrowleft" unicode="&#x2190;" horiz-adv-x="781" d="M260 263 L501 22 L425 -54 L50 321 L427 698 L502 622 L259 378 L317 379 L731 380 L731 262 L260 263 Z " />
<glyph glyph-name="uni2196" unicode="&#x2196;" horiz-adv-x="633" d="M583 503 L238 503 L280 462 L574 170 L490 87 L197 380 L157 421 L158 79 L50 80 L50 610 L583 610 L583 503 Z " />
<glyph glyph-name="uni26C7" unicode="&#x26c7;" horiz-adv-x="764" d="M87 728 Q87 721 82 716 Q77 711 70 711 Q63 711 58 716 Q53 721 53 728 Q53 735 58 740 Q63 745 70 745 Q77 745 82 740 Q87 735 87 728 Z M694 745 Q701 745 706 740 Q711 735 711 728 Q711 721 706 716 Q701 711 694 711 Q687 711 682 716 Q677 721 677 728 Q677 735 682 740 Q687 745 694 745 Z M277 706 Q270 706 265 711 Q260 716 260 723 Q260 730 265 735 Q270 740 277 740 Q284 740 289 735 Q294 730 294 723 Q294 716 289 711 Q284 706 277 706 Z M382 706 Q375 706 370 711 Q365 716 365 723 Q365 730 370 735 Q375 740 382 740 Q389 740 394 735 Q399 730 399 723 Q399 716 394 711 Q389 706 382 706 Z M487 706 Q480 706 475 711 Q470 716 470 723 Q470 730 475 735 Q480 740 487 740 Q494 740 499 735 Q504 730 504 723 Q504 716 499 711 Q494 706 487 706 Z M167 692 Q160 692 154.5 697.5 Q149 703 149 710 Q149 717 154.5 722 Q160 727 167 727 Q174 727 179 722 Q184 717 184 710 Q184 703 179 697.5 Q174 692 167 692 Z M597 692 Q590 692 585 697.5 Q580 703 580 710 Q580 717 585 722 Q590 727 597 727 Q604 727 609.5 722 Q615 717 615 710 Q615 703 610 697.5 Q605 692 597 692 Z M518 399 Q573 375 603.5 330 Q634 285 634 217 Q634 112 564.5 56 Q495 0 382 0 Q307 0 247.5 24.5 Q188 49 153.5 98 Q119 147 119 217 Q119 285 152.5 331 Q186 377 245 400 Q183 438 183 516 Q183 600 238.5 641.5 Q294 683 382 683 Q470 683 525 641.5 Q580 600 580 516 Q580 437 518 399 Z M60 639 Q60 646 65 651 Q70 656 77 656 Q84 656 89 651 Q94 646 94 639 Q94 632 89 627 Q84 622 77 622 Q70 622 65 627 Q60 632 60 639 Z M687 656 Q694 656 699 651 Q704 646 704 639 Q704 632 699 627 Q694 622 687 622 Q680 622 675 627 Q670 632 670 639 Q670 646 675 651 Q680 656 687 656 Z M147 587 Q140 587 135 592 Q130 597 130 604 Q130 611 135 616 Q140 621 147 621 Q154 621 159 616 Q164 611 164 604 Q164 597 159 592 Q154 587 147 587 Z M617 621 Q624 621 629 616 Q634 611 634 604 Q634 597 629 592 Q624 587 617 587 Q610 587 605 592 Q600 597 600 604 Q600 611 605 616 Q610 621 617 621 Z M301 550 Q285 550 273.5 539 Q262 528 262 511 Q262 495 273.5 483.5 Q285 472 301 472 Q318 472 329 483.5 Q340 495 340 511 Q340 528 329 539 Q318 550 301 550 Z M473 550 Q457 550 445.5 539 Q434 528 434 511 Q434 495 445.5 483.5 Q457 472 473 472 Q490 472 501 483.5 Q512 495 512 511 Q512 528 501 539 Q490 550 473 550 Z M96 535 Q103 535 108 530 Q113 525 113 518 Q113 511 108 506 Q103 501 96 501 Q89 501 84 506 Q79 511 79 518 Q79 525 84 530 Q89 535 96 535 Z M685 518 Q685 511 680 506 Q675 501 668 501 Q661 501 656 506 Q651 511 651 518 Q651 525 656 530 Q661 535 668 535 Q675 535 680 530 Q685 525 685 518 Z M391 464 Q385 460 383 454.5 Q381 449 383 443 L452 436 L391 464 Z M147 417 Q140 417 135 422 Q130 427 130 434 Q130 441 135 446 Q140 451 147 451 Q154 451 159 446 Q164 441 164 434 Q164 427 159 422 Q154 417 147 417 Z M617 451 Q624 451 629 446 Q634 441 634 434 Q634 427 629 422 Q624 417 617 417 Q610 417 605 422 Q600 427 600 434 Q600 441 605 446 Q610 451 617 451 Z M77 356 Q84 356 89 351 Q94 346 94 339 Q94 332 89 327 Q84 322 77 322 Q70 322 65 327 Q60 332 60 339 Q60 346 65 351 Q70 356 77 356 Z M687 356 Q694 356 699 351 Q704 346 704 339 Q704 332 699 327 Q694 322 687 322 Q680 322 675 327 Q670 332 670 339 Q670 346 675 351 Q680 356 687 356 Z M384 249 Q390 249 394.5 253.5 Q399 258 399 264 Q399 270 394.5 274 Q390 278 384 278 Q378 278 373.5 274 Q369 270 369 264 Q369 258 373.5 253.5 Q378 249 384 249 Z M384 163 Q390 163 394.5 167.5 Q399 172 399 178 Q399 184 394.5 188.5 Q390 193 384 193 Q378 193 373.5 188.5 Q369 184 369 178 Q369 172 373.5 167.5 Q378 163 384 163 Z M384 78 Q390 78 394.5 82 Q399 86 399 92 Q399 98 394.5 102.5 Q390 107 384 107 Q378 107 373.5 102.5 Q369 98 369 92 Q369 86 373.5 82 Q378 78 384 78 Z " />
<glyph glyph-name="uniF8FF" unicode="&#xf8ff;" horiz-adv-x="1449" d="M707 237 Q684 237 671 252 Q658 267 658 298 Q658 360 708 360 Q725 360 741 350 L741 409 L805 409 L805 241 L747 241 L744 252 Q726 237 707 237 Z M144 240 Q116 240 103.5 251.5 Q91 263 91 292 L91 319 L68 319 L68 356 L91 356 L99 400 L153 400 L153 356 L182 356 L182 319 L153 319 L153 300 Q153 283 169 283 Q178 283 184 285 L185 248 Q167 240 144 240 Z M1341 240 Q1312 240 1299.5 251.5 Q1287 263 1287 292 L1287 319 L1265 319 L1265 356 L1287 356 L1295 400 L1350 400 L1350 356 L1378 356 L1378 319 L1350 319 L1350 300 Q1350 283 1365 283 Q1374 283 1380 285 L1381 248 Q1363 240 1341 240 Z M891 238 Q818 238 818 299 Q818 329 836 345 Q854 361 889 361 Q949 361 949 315 Q949 298 948 289 L875 289 Q876 279 883 275.5 Q890 272 904 272 Q927 272 944 277 L944 248 Q917 238 891 238 Z M356 356 L409 356 L413 343 Q432 360 457 360 Q478 360 490.5 344.5 Q503 329 503 299 Q503 271 490.5 254 Q478 237 453 237 Q433 237 420 248 L420 188 L356 188 L356 356 Z M588 237 Q515 237 515 298 Q515 328 533 344 Q551 360 586 360 Q646 360 646 314 Q646 297 645 288 L572 288 Q573 278 580 274.5 Q587 271 601 271 Q625 271 641 276 L641 247 Q616 237 588 237 Z M964 356 L1017 356 L1021 343 Q1029 350 1041 355 Q1053 360 1065 360 Q1086 360 1098.5 344.5 Q1111 329 1111 299 Q1111 271 1098.5 254 Q1086 237 1061 237 Q1041 237 1028 248 L1028 188 L964 188 L964 356 Z M1190 237 Q1155 237 1139 252 Q1123 267 1123 299 Q1123 331 1139 345.5 Q1155 360 1190 360 L1191 360 Q1226 360 1242.5 345.5 Q1259 331 1259 299 Q1259 267 1243 252 Q1227 237 1192 237 L1190 237 Z M265 182 Q231 182 207 191 L207 228 Q230 221 248 221 Q278 221 278 240 L278 246 Q263 237 245 237 Q222 237 211 247.5 Q200 258 200 280 L200 356 L263 356 L263 276 Q263 268 269 268 L277 270 L277 356 L339 356 L339 251 Q339 182 265 182 Z M899 308 L900 315 Q900 328 888 328 Q874 328 874 308 L899 308 Z M596 307 L597 314 Q597 327 585 327 Q571 327 571 307 L596 307 Z M1191 274 Q1200 274 1200 301 Q1200 326 1191 326 Q1181 326 1181 301 Q1181 274 1191 274 Z M729 271 Q735 271 742 278 L742 319 Q736 322 732 322 Q723 322 719 316.5 Q715 311 715 297 Q715 271 729 271 Z M431 271 Q446 271 446 296 Q446 320 433 320 Q426 320 419 313 L419 276 Q426 271 431 271 Z M1039 271 Q1054 271 1054 296 Q1054 320 1041 320 Q1034 320 1027 313 L1027 276 Q1034 271 1039 271 Z " />
<glyph glyph-name="at" unicode="&#x40;" horiz-adv-x="772" d="M430 693 Q521 693 589.5 657.5 Q658 622 696 552.5 Q734 483 734 384 Q734 308 712 238.5 Q690 169 646 125.5 Q602 82 540 82 Q501 82 478.5 99 Q456 116 452 156 Q432 120 402 101.5 Q372 83 335 83 Q275 83 242.5 128.5 Q210 174 210 248 Q211 303 228 357 Q245 411 282 447.5 Q319 484 375 484 Q410 484 433 466.5 Q456 449 466 420 L482 477 L568 477 L521 218 Q518 205 518 194 Q518 151 555 151 Q588 151 611 186 Q634 221 645 273 Q656 325 656 375 Q656 506 593.5 566 Q531 626 426 626 Q320 626 250.5 570 Q181 514 149 426 Q117 338 117 240 Q117 98 182 25.5 Q247 -47 358 -47 Q413 -47 458 -35.5 Q503 -24 532 -8 L536 -74 Q491 -94 448.5 -104 Q406 -114 354 -114 Q253 -114 182.5 -71 Q112 -28 75.5 50.5 Q39 129 39 235 Q40 352 82.5 456.5 Q125 561 213 627 Q301 693 430 693 Z M447 318 Q447 410 389 410 Q346 410 326 359 Q306 308 306 249 Q306 206 320.5 182.5 Q335 159 362 159 Q402 159 424.5 208 Q447 257 447 318 Z " />
<glyph glyph-name="ampersand" unicode="&#x26;" horiz-adv-x="572" d="M544 306 Q509 195 448 115 Q478 82 535 21 L444 -16 L384 49 Q311 -9 231 -9 Q147 -9 92.5 37 Q38 83 38 179 Q38 241 65 286.5 Q92 332 138 371 Q85 468 85 550 Q85 602 107 638.5 Q129 675 165.5 693.5 Q202 712 245 712 Q282 712 316.5 694 Q351 676 372.5 641.5 Q394 607 394 561 Q394 511 375 473 Q356 435 330.5 410 Q305 385 262 351 Q307 280 382 191 Q428 261 460 360 L544 306 Z M242 617 Q218 617 203.5 601 Q189 585 189 552 Q189 497 216 435 Q252 468 271.5 496 Q291 524 291 555 Q291 587 277 602 Q263 617 242 617 Z M243 95 Q282 95 319 124 Q242 213 189 289 Q150 247 150 193 Q150 145 176 120 Q202 95 243 95 Z " />
<glyph glyph-name="paragraph" unicode="&#xb6;" horiz-adv-x="537" d="M464 -85 L371 -85 L371 606 L290 606 L290 -85 L197 -85 L197 262 L186 262 Q110 262 68 322.5 Q26 383 26 481 Q26 554 52.5 603 Q79 652 119.5 676 Q160 700 202 700 L464 700 L464 -85 Z " />
<glyph glyph-name="section" unicode="&#xa7;" horiz-adv-x="499" d="M392 114 Q439 69 439 -3 Q439 -89 381.5 -130.5 Q324 -172 230 -172 Q187 -172 141 -163 Q95 -154 55 -137 L68 -22 Q107 -40 143 -52 Q179 -64 211 -64 Q251 -64 276.5 -47.5 Q302 -31 302 4 Q302 32 285 50.5 Q268 69 245.5 80 Q223 91 173 112 Q109 142 72.5 176.5 Q36 211 36 272 Q36 353 107 415 Q60 459 60 531 Q60 618 117.5 659 Q175 700 268 700 Q346 700 445 664 L432 549 Q340 592 287 592 Q247 592 222 576.5 Q197 561 197 525 Q197 488 224 467.5 Q251 447 308 424 L336 412 Q395 384 429 350 Q463 316 463 257 Q463 210 442 174 Q421 138 392 114 Z M311 162 Q348 200 348 246 Q348 283 323.5 303.5 Q299 324 251 343 L225 353 Q208 359 188 367 Q151 327 151 283 Q151 245 177.5 224 Q204 203 258 183 L311 162 Z " />
<glyph glyph-name="copyright" unicode="&#xa9;" horiz-adv-x="673" d="M337 -20 Q251 -20 184 24 Q117 68 79.5 149.5 Q42 231 42 340 Q42 450 79.5 531.5 Q117 613 184 657 Q251 701 337 701 Q423 701 490 657 Q557 613 594.5 531.5 Q632 450 632 340 Q632 232 594 150 Q556 68 489 24 Q422 -20 337 -20 Z M337 33 Q408 33 462.5 70 Q517 107 547.5 176 Q578 245 578 340 Q578 435 547.5 504.5 Q517 574 462.5 611 Q408 648 337 648 Q266 648 211.5 611 Q157 574 126.5 504.5 Q96 435 96 340 Q96 245 126.5 176 Q157 107 211.5 70 Q266 33 337 33 Z M360 154 Q283 154 234.5 201 Q186 248 186 343 Q186 440 233.5 487.5 Q281 535 360 535 Q401 535 449 520 L443 447 Q406 462 378 462 Q333 462 308 431 Q283 400 283 343 Q283 286 308 256.5 Q333 227 377 227 Q402 227 447 240 L449 170 Q405 154 360 154 Z " />
<glyph glyph-name="registered" unicode="&#xae;" horiz-adv-x="674" d="M337 702 Q423 702 490 659 Q557 616 594.5 534.5 Q632 453 632 341 Q632 230 594.5 148.5 Q557 67 490 24 Q423 -19 337 -19 Q251 -19 184 24 Q117 67 79.5 148.5 Q42 230 42 341 Q42 453 79.5 534.5 Q117 616 184 659 Q251 702 337 702 Z M337 35 Q409 35 463.5 70.5 Q518 106 548 175 Q578 244 578 341 Q578 439 547.5 508.5 Q517 578 462.5 613.5 Q408 649 337 649 Q266 649 211.5 613.5 Q157 578 126.5 508.5 Q96 439 96 341 Q96 244 126.5 175 Q157 106 211.5 70.5 Q266 35 337 35 Z M468 414 Q468 379 452.5 352 Q437 325 409 312 L462 164 L386 164 L343 301 L293 302 L293 164 L218 164 L218 526 L363 526 Q413 526 440.5 494 Q468 462 468 414 Z M293 362 L346 362 Q368 362 380.5 376.5 Q393 391 393 415 Q393 439 381 454.5 Q369 470 347 470 L293 470 L293 362 Z " />
<glyph glyph-name="trademark" unicode="&#x2122;" horiz-adv-x="725" d="M30 700 L278 700 L278 635 L195 635 L195 387 L113 387 L113 635 L30 635 L30 700 Z M663 700 L663 387 L583 387 L583 579 L530 445 L472 445 L412 586 L411 387 L332 387 L332 700 L426 700 L497 523 L568 700 L663 700 Z " />
<glyph glyph-name="degree" unicode="&#xb0;" horiz-adv-x="346" d="M173 423 Q114 423 75 458 Q36 493 36 566 Q36 640 75 675 Q114 710 173 710 Q231 710 270 675 Q309 640 309 566 Q309 493 270 458 Q231 423 173 423 Z M172 485 Q201 485 220.5 505 Q240 525 240 566 Q240 607 220.5 627.5 Q201 648 172 648 Q143 648 124 628 Q105 608 105 566 Q105 525 124 505 Q143 485 172 485 Z " />
<glyph glyph-name="bar" unicode="&#x7c;" horiz-adv-x="233" d="M168 -159 L65 -159 L65 790 L168 790 L168 -159 Z " />
<glyph glyph-name="dagger" unicode="&#x2020;" horiz-adv-x="395" d="M344 538 L238 548 L247 277 L148 277 L159 548 L51 538 L51 626 L159 617 L148 751 L248 751 L238 617 L344 626 L344 538 Z " />
<glyph glyph-name="daggerdbl" unicode="&#x2021;" horiz-adv-x="395" d="M237 622 L344 632 L344 544 L239 554 L244 477 L241 401 L344 411 L344 323 L238 333 L247 186 L148 186 L158 333 L51 323 L51 411 L155 401 L152 477 L158 554 L51 544 L51 632 L159 622 L148 751 L248 751 L237 622 Z " />
<glyph glyph-name="asciicircum" unicode="&#x5e;" horiz-adv-x="700" d="M449 369 L350 631 L250 369 L150 369 L292 700 L407 700 L549 369 L449 369 Z " />
<glyph glyph-name="gravecomb" unicode="&#x300;" d="M-40 600 L-132 600 L-218 773 L-101 773 L-40 600 Z " />
<glyph glyph-name="uni0326" unicode="&#x326;" d="M-90 -74 Q-90 -130 -98.5 -167.5 Q-107 -205 -122 -247 L-197 -247 Q-187 -209 -181 -171 Q-175 -133 -175 -74 L-90 -74 Z " />
<glyph glyph-name="acute" unicode="&#xb4;" horiz-adv-x="317" d="M168 600 L76 600 L146 774 L262 774 L168 600 Z " />
<glyph glyph-name="breve" unicode="&#x2d8;" horiz-adv-x="410" d="M205 602 Q132 602 96 638.5 Q60 675 52 755 L132 765 Q139 716 155.5 692.5 Q172 669 205 669 Q238 669 254 692 Q270 715 278 765 L358 755 Q350 674 314 638 Q278 602 205 602 Z " />
<glyph glyph-name="caron" unicode="&#x2c7;" horiz-adv-x="452" d="M399 766 L294 597 L159 597 L53 766 L160 766 L226 637 L294 766 L399 766 Z " />
<glyph glyph-name="cedilla" unicode="&#xb8;" horiz-adv-x="295" d="M159 -49 Q197 -52 227.5 -72 Q258 -92 258 -137 Q258 -185 222 -207 Q186 -229 131 -229 Q70 -229 39 -217 L44 -158 Q83 -173 118 -173 Q143 -173 160 -163 Q177 -153 177 -130 Q177 -107 155 -94.5 Q133 -82 86 -81 L117 22 L180 22 L159 -49 Z " />
<glyph glyph-name="circumflex" unicode="&#x2c6;" horiz-adv-x="455" d="M290 597 L227 718 L166 597 L58 597 L161 766 L293 766 L396 597 L290 597 Z " />
<glyph glyph-name="dieresis" unicode="&#xa8;" horiz-adv-x="475" d="M138 719 Q171 719 187.5 702.5 Q204 686 204 656 Q204 594 138 594 Q106 594 89 610 Q72 626 72 656 Q72 686 89.5 702.5 Q107 719 138 719 Z M334 719 Q367 719 384 702.5 Q401 686 401 656 Q401 594 334 594 Q303 594 286.5 610 Q270 626 270 656 Q270 686 286.5 702.5 Q303 719 334 719 Z " />
<glyph glyph-name="dotaccent" unicode="&#x2d9;" horiz-adv-x="266" d="M133 618 Q101 618 83.5 632.5 Q66 647 66 677 Q66 707 83.5 721.5 Q101 736 133 736 Q200 736 200 677 Q200 618 133 618 Z " />
<glyph glyph-name="grave" unicode="&#x60;" horiz-adv-x="319" d="M247 600 L155 600 L68 773 L186 773 L247 600 Z " />
<glyph glyph-name="hungarumlaut" unicode="&#x2dd;" horiz-adv-x="485" d="M168 600 L75 600 L143 774 L260 774 L168 600 Z M325 600 L232 600 L300 774 L417 774 L325 600 Z " />
<glyph glyph-name="overscore" unicode="&#xaf;" horiz-adv-x="408" d="M331 633 L77 633 L77 709 L331 709 L331 633 Z " />
<glyph glyph-name="ogonek" unicode="&#x2db;" horiz-adv-x="294" d="M187 -180 Q138 -180 110 -157.5 Q82 -135 82 -91 Q82 -33 122 -6.5 Q162 20 218 27 L232 0 Q191 -7 171 -22 Q151 -37 151 -62 Q151 -81 164 -90.5 Q177 -100 198 -100 Q225 -100 258 -89 L259 -169 Q224 -180 187 -180 Z " />
<glyph glyph-name="ring" unicode="&#x2da;" horiz-adv-x="319" d="M160 592 Q115 592 85.5 621 Q56 650 56 704 Q56 758 85.5 786.5 Q115 815 160 815 Q205 815 234.5 786.5 Q264 758 264 704 Q264 650 234.5 621 Q205 592 160 592 Z M160 645 Q176 645 188.5 659.5 Q201 674 201 704 Q201 734 188.5 748 Q176 762 160 762 Q144 762 132 748 Q120 734 120 704 Q120 674 132 659.5 Q144 645 160 645 Z " />
<glyph glyph-name="tilde" unicode="&#x2dc;" horiz-adv-x="438" d="M273 605 Q255 605 241.5 611 Q228 617 216.5 624 Q205 631 202 633 Q187 643 175.5 648.5 Q164 654 153 654 Q123 654 111 610 L65 632 Q95 737 167 737 Q182 737 194.5 731.5 Q207 726 217.5 719.5 Q228 713 232 710 Q263 688 284 688 Q303 688 312 700 Q321 712 327 732 L372 711 Q345 605 273 605 Z " />
</font>
</svg>
